<?xml version="1.0" encoding="UTF-8" standalone="no"?><svg xmlns="http://www.w3.org/2000/svg" xmlns:xlink="http://www.w3.org/1999/xlink" clip-rule="evenodd" stroke-miterlimit="4.00" viewBox="0 0 1024 768"><desc>SVG generated by Keynote</desc><defs></defs><g transform="matrix(1.00, 0.00, -0.00, -1.00, 0.0, 768.0)"><path d="M 0.0 768.0 L 1024.0 768.0 L 1024.0 0.0 L 0.0 0.0 Z M 0.0 768.0 " fill="#000000"></path><g><clipPath id="clip-753"><path d="M 936.7 12.0 L 936.7 82.8 L 1007.4 82.8 L 1007.4 12.0 Z M 936.7 12.0 "></path></clipPath><g clip-path="url(#clip-753)"><image xlink:href="63AF18C5C1A3CFA871C6F4F764CDE2DE.png" width="71.00" height="71.00" transform="matrix(0.00, 1.00, 0.99, -0.00, 937.0, 12.0)" opacity="0.13"></image></g></g><text xml:space="preserve" font-family="Helvetica-Light" font-size="18.0" fill="#FEFFFF" transform="matrix(1.00, 0.00, -0.00, -1.00, 506.0, 17.0)">1</text><path d="M 100.0 639.0 L 924.0 639.0 L 924.0 379.0 L 100.0 379.0 Z M 100.0 639.0 " fill="#000000"></path><g><clipPath id="clip-754"><path d="M 79.8 358.8 L 947.3 358.8 L 947.3 639.0 L 79.8 639.0 Z M 79.8 358.8 "></path></clipPath><g clip-path="url(#clip-754)"><text xml:space="preserve" font-family="ComicSansMS-Bold" font-weight="bold" font-size="69.6" fill="#E7A432" transform="matrix(1.00, 0.00, -0.00, -1.00, 108.0, 500.0)">A</text><text xml:space="preserve" font-family="ComicSansMS-Bold" font-weight="bold" font-size="69.6" fill="#E7A432" transform="matrix(1.00, 0.00, -0.00, -1.00, 158.9, 500.0)">c</text><text xml:space="preserve" font-family="ComicSansMS-Bold" font-weight="bold" font-size="69.6" fill="#E7A432" transform="matrix(1.00, 0.00, -0.00, -1.00, 194.6, 500.0)">c</text><text xml:space="preserve" font-family="ComicSansMS-Bold" font-weight="bold" font-size="69.6" fill="#E7A432" transform="matrix(1.00, 0.00, -0.00, -1.00, 230.4, 500.0)">e</text><text xml:space="preserve" font-family="ComicSansMS-Bold" font-weight="bold" font-size="69.6" fill="#E7A432" transform="matrix(1.00, 0.00, -0.00, -1.00, 269.3, 500.0)">p</text><text xml:space="preserve" font-family="ComicSansMS-Bold" font-weight="bold" font-size="69.6" fill="#E7A432" transform="matrix(1.00, 0.00, -0.00, -1.00, 306.5, 500.0)">t</text><text xml:space="preserve" font-family="ComicSansMS-Bold" font-weight="bold" font-size="69.6" fill="#E7A432" transform="matrix(1.00, 0.00, -0.00, -1.00, 339.3, 500.0)">a</text><text xml:space="preserve" font-family="ComicSansMS-Bold" font-weight="bold" font-size="69.6" fill="#E7A432" transform="matrix(1.00, 0.00, -0.00, -1.00, 377.9, 500.0)">n</text><text xml:space="preserve" font-family="ComicSansMS-Bold" font-weight="bold" font-size="69.6" fill="#E7A432" transform="matrix(1.00, 0.00, -0.00, -1.00, 414.4, 500.0)">c</text><text xml:space="preserve" font-family="ComicSansMS-Bold" font-weight="bold" font-size="69.6" fill="#E7A432" transform="matrix(1.00, 0.00, -0.00, -1.00, 450.1, 500.0)">e</text><text xml:space="preserve" font-family="ComicSansMS-Bold" font-weight="bold" font-size="69.6" fill="#E7A432" transform="matrix(1.00, 0.00, -0.00, -1.00, 489.0, 500.0)"> </text><text xml:space="preserve" font-family="ComicSansMS-Bold" font-weight="bold" font-size="69.6" fill="#E7A432" transform="matrix(1.00, 0.00, -0.00, -1.00, 519.2, 500.0)">T</text><text xml:space="preserve" font-family="ComicSansMS-Bold" font-weight="bold" font-size="69.6" fill="#E7A432" transform="matrix(1.00, 0.00, -0.00, -1.00, 567.6, 500.0)">e</text><text xml:space="preserve" font-family="ComicSansMS-Bold" font-weight="bold" font-size="69.6" fill="#E7A432" transform="matrix(1.00, 0.00, -0.00, -1.00, 606.5, 500.0)">s</text><text xml:space="preserve" font-family="ComicSansMS-Bold" font-weight="bold" font-size="69.6" fill="#E7A432" transform="matrix(1.00, 0.00, -0.00, -1.00, 640.3, 500.0)">t</text><text xml:space="preserve" font-family="ComicSansMS-Bold" font-weight="bold" font-size="69.6" fill="#E7A432" transform="matrix(1.00, 0.00, -0.00, -1.00, 673.2, 500.0)"> </text><text xml:space="preserve" font-family="ComicSansMS-Bold" font-weight="bold" font-size="69.6" fill="#E7A432" transform="matrix(1.00, 0.00, -0.00, -1.00, 703.3, 500.0)">D</text><text xml:space="preserve" font-family="ComicSansMS-Bold" font-weight="bold" font-size="69.6" fill="#E7A432" transform="matrix(1.00, 0.00, -0.00, -1.00, 753.5, 500.0)">r</text><text xml:space="preserve" font-family="ComicSansMS-Bold" font-weight="bold" font-size="69.6" fill="#E7A432" transform="matrix(1.00, 0.00, -0.00, -1.00, 786.9, 500.0)">i</text><text xml:space="preserve" font-family="ComicSansMS-Bold" font-weight="bold" font-size="69.6" fill="#E7A432" transform="matrix(1.00, 0.00, -0.00, -1.00, 806.5, 500.0)">v</text><text xml:space="preserve" font-family="ComicSansMS-Bold" font-weight="bold" font-size="69.6" fill="#E7A432" transform="matrix(1.00, 0.00, -0.00, -1.00, 840.4, 500.0)">e</text><text xml:space="preserve" font-family="ComicSansMS-Bold" font-weight="bold" font-size="69.6" fill="#E7A432" transform="matrix(1.00, 0.00, -0.00, -1.00, 879.3, 500.0)">n</text><text xml:space="preserve" font-family="ComicSansMS-Bold" font-weight="bold" font-size="69.6" fill="#E7A432" transform="matrix(1.00, 0.00, -0.00, -1.00, 915.8, 500.0)"> </text><text xml:space="preserve" font-family="ComicSansMS-Bold" font-weight="bold" font-size="69.6" fill="#E7A432" transform="matrix(1.00, 0.00, -0.00, -1.00, 304.0, 403.0)">D</text><text xml:space="preserve" font-family="ComicSansMS-Bold" font-weight="bold" font-size="69.6" fill="#E7A432" transform="matrix(1.00, 0.00, -0.00, -1.00, 354.2, 403.0)">e</text><text xml:space="preserve" font-family="ComicSansMS-Bold" font-weight="bold" font-size="69.6" fill="#E7A432" transform="matrix(1.00, 0.00, -0.00, -1.00, 393.1, 403.0)">v</text><text xml:space="preserve" font-family="ComicSansMS-Bold" font-weight="bold" font-size="69.6" fill="#E7A432" transform="matrix(1.00, 0.00, -0.00, -1.00, 427.0, 403.0)">e</text><text xml:space="preserve" font-family="ComicSansMS-Bold" font-weight="bold" font-size="69.6" fill="#E7A432" transform="matrix(1.00, 0.00, -0.00, -1.00, 465.9, 403.0)">l</text><text xml:space="preserve" font-family="ComicSansMS-Bold" font-weight="bold" font-size="69.6" fill="#E7A432" transform="matrix(1.00, 0.00, -0.00, -1.00, 484.9, 403.0)">o</text><text xml:space="preserve" font-family="ComicSansMS-Bold" font-weight="bold" font-size="69.6" fill="#E7A432" transform="matrix(1.00, 0.00, -0.00, -1.00, 521.5, 403.0)">p</text><text xml:space="preserve" font-family="ComicSansMS-Bold" font-weight="bold" font-size="69.6" fill="#E7A432" transform="matrix(1.00, 0.00, -0.00, -1.00, 558.7, 403.0)">m</text><text xml:space="preserve" font-family="ComicSansMS-Bold" font-weight="bold" font-size="69.6" fill="#E7A432" transform="matrix(1.00, 0.00, -0.00, -1.00, 612.8, 403.0)">e</text><text xml:space="preserve" font-family="ComicSansMS-Bold" font-weight="bold" font-size="69.6" fill="#E7A432" transform="matrix(1.00, 0.00, -0.00, -1.00, 651.6, 403.0)">n</text><text xml:space="preserve" font-family="ComicSansMS-Bold" font-weight="bold" font-size="69.6" fill="#E7A432" transform="matrix(1.00, 0.00, -0.00, -1.00, 688.1, 403.0)">t</text></g></g><text xml:space="preserve" font-family="ComicSansMS" font-size="30.0" fill="#FEFFFF" transform="matrix(1.00, 0.00, -0.00, -1.00, 293.0, 335.0)">S</text><text xml:space="preserve" font-family="ComicSansMS" font-size="30.0" fill="#FEFFFF" transform="matrix(1.00, 0.00, -0.00, -1.00, 313.8, 335.0)">e</text><text xml:space="preserve" font-family="ComicSansMS" font-size="30.0" fill="#FEFFFF" transform="matrix(1.00, 0.00, -0.00, -1.00, 330.2, 335.0)">t</text><text xml:space="preserve" font-family="ComicSansMS" font-size="30.0" fill="#FEFFFF" transform="matrix(1.00, 0.00, -0.00, -1.00, 344.4, 335.0)">t</text><text xml:space="preserve" font-family="ComicSansMS" font-size="30.0" fill="#FEFFFF" transform="matrix(1.00, 0.00, -0.00, -1.00, 358.5, 335.0)">i</text><text xml:space="preserve" font-family="ComicSansMS" font-size="30.0" fill="#FEFFFF" transform="matrix(1.00, 0.00, -0.00, -1.00, 366.9, 335.0)">n</text><text xml:space="preserve" font-family="ComicSansMS" font-size="30.0" fill="#FEFFFF" transform="matrix(1.00, 0.00, -0.00, -1.00, 382.7, 335.0)">g</text><text xml:space="preserve" font-family="ComicSansMS" font-size="30.0" fill="#FEFFFF" transform="matrix(1.00, 0.00, -0.00, -1.00, 398.6, 335.0)"> </text><text xml:space="preserve" font-family="ComicSansMS" font-size="30.0" fill="#FEFFFF" transform="matrix(1.00, 0.00, -0.00, -1.00, 407.5, 335.0)">u</text><text xml:space="preserve" font-family="ComicSansMS" font-size="30.0" fill="#FEFFFF" transform="matrix(1.00, 0.00, -0.00, -1.00, 423.1, 335.0)">p</text><text xml:space="preserve" font-family="ComicSansMS" font-size="30.0" fill="#FEFFFF" transform="matrix(1.00, 0.00, -0.00, -1.00, 439.2, 335.0)"> </text><text xml:space="preserve" font-family="ComicSansMS" font-size="30.0" fill="#FEFFFF" transform="matrix(1.00, 0.00, -0.00, -1.00, 448.1, 335.0)">A</text><text xml:space="preserve" font-family="ComicSansMS" font-size="30.0" fill="#FEFFFF" transform="matrix(1.00, 0.00, -0.00, -1.00, 470.1, 335.0)">T</text><text xml:space="preserve" font-family="ComicSansMS" font-size="30.0" fill="#FEFFFF" transform="matrix(1.00, 0.00, -0.00, -1.00, 490.5, 335.0)">D</text><text xml:space="preserve" font-family="ComicSansMS" font-size="30.0" fill="#FEFFFF" transform="matrix(1.00, 0.00, -0.00, -1.00, 512.1, 335.0)">D</text><text xml:space="preserve" font-family="ComicSansMS" font-size="30.0" fill="#FEFFFF" transform="matrix(1.00, 0.00, -0.00, -1.00, 533.7, 335.0)"> </text><text xml:space="preserve" font-family="ComicSansMS" font-size="30.0" fill="#FEFFFF" transform="matrix(1.00, 0.00, -0.00, -1.00, 542.7, 335.0)">p</text><text xml:space="preserve" font-family="ComicSansMS" font-size="30.0" fill="#FEFFFF" transform="matrix(1.00, 0.00, -0.00, -1.00, 558.7, 335.0)">r</text><text xml:space="preserve" font-family="ComicSansMS" font-size="30.0" fill="#FEFFFF" transform="matrix(1.00, 0.00, -0.00, -1.00, 573.2, 335.0)">o</text><text xml:space="preserve" font-family="ComicSansMS" font-size="30.0" fill="#FEFFFF" transform="matrix(1.00, 0.00, -0.00, -1.00, 588.9, 335.0)">c</text><text xml:space="preserve" font-family="ComicSansMS" font-size="30.0" fill="#FEFFFF" transform="matrix(1.00, 0.00, -0.00, -1.00, 604.3, 335.0)">e</text><text xml:space="preserve" font-family="ComicSansMS" font-size="30.0" fill="#FEFFFF" transform="matrix(1.00, 0.00, -0.00, -1.00, 620.8, 335.0)">s</text><text xml:space="preserve" font-family="ComicSansMS" font-size="30.0" fill="#FEFFFF" transform="matrix(1.00, 0.00, -0.00, -1.00, 635.4, 335.0)">s</text><text xml:space="preserve" font-family="ComicSansMS" font-size="30.0" fill="#FEFFFF" transform="matrix(1.00, 0.00, -0.00, -1.00, 650.0, 335.0)"> </text><text xml:space="preserve" font-family="ComicSansMS" font-size="30.0" fill="#FEFFFF" transform="matrix(1.00, 0.00, -0.00, -1.00, 659.0, 335.0)">c</text><text xml:space="preserve" font-family="ComicSansMS" font-size="30.0" fill="#FEFFFF" transform="matrix(1.00, 0.00, -0.00, -1.00, 674.4, 335.0)">y</text><text xml:space="preserve" font-family="ComicSansMS" font-size="30.0" fill="#FEFFFF" transform="matrix(1.00, 0.00, -0.00, -1.00, 690.0, 335.0)">c</text><text xml:space="preserve" font-family="ComicSansMS" font-size="30.0" fill="#FEFFFF" transform="matrix(1.00, 0.00, -0.00, -1.00, 705.4, 335.0)">l</text><text xml:space="preserve" font-family="ComicSansMS" font-size="30.0" fill="#FEFFFF" transform="matrix(1.00, 0.00, -0.00, -1.00, 713.6, 335.0)">e</text><text xml:space="preserve" font-family="Helvetica-Light" font-size="18.0" fill="#FEFFFF" transform="matrix(1.00, 0.00, -0.00, -1.00, 506.0, 17.0)">1</text></g></svg>