<?xml version="1.0" encoding="UTF-8" standalone="no"?><svg xmlns="http://www.w3.org/2000/svg" xmlns:xlink="http://www.w3.org/1999/xlink" clip-rule="evenodd" stroke-miterlimit="4.00" viewBox="0 0 1024 768"><desc>SVG generated by Keynote</desc><defs></defs><g transform="matrix(1.00, 0.00, -0.00, -1.00, 0.0, 768.0)"><path d="M 0.0 768.0 L 1024.0 768.0 L 1024.0 0.0 L 0.0 0.0 Z M 0.0 768.0 " fill="#000000"></path><g><clipPath id="clip-3587"><path d="M 936.7 12.0 L 936.7 82.8 L 1007.4 82.8 L 1007.4 12.0 Z M 936.7 12.0 "></path></clipPath><g clip-path="url(#clip-3587)"><image xlink:href="../../AAA0FCF1-536D-412F-8916-0370750779E4/assets/63AF18C5C1A3CFA871C6F4F764CDE2DE.png" width="71.00" height="71.00" transform="matrix(0.00, 1.00, 0.99, -0.00, 937.0, 12.0)" opacity="0.13"></image></g></g><text xml:space="preserve" font-family="Helvetica-Light" font-size="18.0" fill="#FEFFFF" transform="matrix(1.00, 0.00, -0.00, -1.00, 506.0, 17.0)">5</text><g opacity="0.19"><g><clipPath id="clip-3588"><path d="M 0.0 0.0 L 1021.0 0.0 L 1021.0 768.0 L 0.0 768.0 Z M 0.0 0.0 "></path></clipPath><g clip-path="url(#clip-3588)"><image xlink:href="91C98BF3967D9C8E7DDA71B69B19980B.png" width="720.00" height="540.00" transform="matrix(1.42, 0.00, -0.00, -1.42, -3.0, 768.0)"></image></g></g></g><g><clipPath id="clip-3589"><path d="M 761.6 170.8 L 866.7 170.8 L 866.7 302.4 L 761.6 302.4 Z M 761.6 170.8 "></path></clipPath><g clip-path="url(#clip-3589)"><image xlink:href="../../34007AC4-FB3D-4DA3-BD14-DDD112AFAC95/assets/212C92B2BDB9807166B46B193ED1497C.png" width="105.00" height="132.00" transform="matrix(1.00, 0.00, -0.00, -0.99, 762.0, 302.0)"></image></g></g><g><clipPath id="clip-3590"><path d="M 797.6 142.7 L 835.5 142.7 L 835.5 176.9 L 797.6 176.9 Z M 797.6 142.7 "></path></clipPath><g clip-path="url(#clip-3590)"><text xml:space="preserve" font-family="ComicSansMS-Bold" font-weight="bold" font-size="16.0" fill="#E7A432" transform="matrix(1.00, 0.00, -0.00, -1.00, 803.0, 153.0)">Q</text><text xml:space="preserve" font-family="ComicSansMS-Bold" font-weight="bold" font-size="16.0" fill="#E7A432" transform="matrix(1.00, 0.00, -0.00, -1.00, 817.0, 153.0)">A</text></g></g><g><clipPath id="clip-3591"><path d="M 536.4 256.9 L 768.8 256.9 L 768.8 361.7 L 536.4 361.7 Z M 536.4 256.9 "></path></clipPath><g clip-path="url(#clip-3591)"><path d="M 553.4 360.2 C 544.8 360.2 537.9 353.2 537.9 344.7 L 537.9 283.6 C 537.9 275.0 544.8 268.0 553.4 268.0 L 716.5 268.0 C 720.9 268.0 724.8 269.8 727.6 272.7 L 767.5 258.4 L 731.8 281.4 C 731.9 282.1 732.1 282.8 732.1 283.6 L 732.1 344.7 C 732.1 353.2 725.1 360.2 716.5 360.2 L 553.4 360.2 Z M 553.4 360.2 " fill="#000000"></path><path d="M 15.5 0.0 C 6.9 0.0 0.0 6.9 0.0 15.5 L 0.0 76.6 C 0.0 85.2 6.9 92.1 15.5 92.1 L 178.7 92.1 C 183.0 92.1 186.9 90.3 189.8 87.5 L 229.7 101.8 L 194.0 78.8 C 194.1 78.0 194.2 77.3 194.2 76.6 L 194.2 15.5 C 194.2 6.9 187.3 0.0 178.7 0.0 L 15.5 0.0 Z M 15.5 0.0 " fill="none" stroke="#E7A432" stroke-width="1.00" transform="matrix(1.00, 0.00, 0.00, -1.00, 537.9, 360.2)"></path></g></g><g><clipPath id="clip-3592"><path d="M 537.9 268.1 L 732.1 268.1 L 732.1 360.2 L 537.9 360.2 Z M 537.9 268.1 "></path></clipPath><g clip-path="url(#clip-3592)"><text xml:space="preserve" font-family="Helvetica-Light" font-size="16.0" fill="#FEFFFF" transform="matrix(1.00, 0.00, -0.00, -1.00, 565.0, 337.0)">l</text><text xml:space="preserve" font-family="Helvetica-Light" font-size="16.0" fill="#FEFFFF" transform="matrix(1.00, 0.00, -0.00, -1.00, 568.6, 337.0)">e</text><text xml:space="preserve" font-family="Helvetica-Light" font-size="16.0" fill="#FEFFFF" transform="matrix(1.00, 0.00, -0.00, -1.00, 577.4, 337.0)">t</text><text xml:space="preserve" font-family="Helvetica-Light" font-size="16.0" fill="#FEFFFF" transform="matrix(1.00, 0.00, -0.00, -1.00, 581.9, 337.0)">s</text><text xml:space="preserve" font-family="Helvetica-Light" font-size="16.0" fill="#FEFFFF" transform="matrix(1.00, 0.00, -0.00, -1.00, 589.9, 337.0)"> </text><text xml:space="preserve" font-family="Helvetica-Light" font-size="16.0" fill="#FEFFFF" transform="matrix(1.00, 0.00, -0.00, -1.00, 594.3, 337.0)">a</text><text xml:space="preserve" font-family="Helvetica-Light" font-size="16.0" fill="#FEFFFF" transform="matrix(1.00, 0.00, -0.00, -1.00, 603.2, 337.0)">u</text><text xml:space="preserve" font-family="Helvetica-Light" font-size="16.0" fill="#FEFFFF" transform="matrix(1.00, 0.00, -0.00, -1.00, 612.1, 337.0)">t</text><text xml:space="preserve" font-family="Helvetica-Light" font-size="16.0" fill="#FEFFFF" transform="matrix(1.00, 0.00, -0.00, -1.00, 616.6, 337.0)">o</text><text xml:space="preserve" font-family="Helvetica-Light" font-size="16.0" fill="#FEFFFF" transform="matrix(1.00, 0.00, -0.00, -1.00, 625.5, 337.0)">m</text><text xml:space="preserve" font-family="Helvetica-Light" font-size="16.0" fill="#FEFFFF" transform="matrix(1.00, 0.00, -0.00, -1.00, 638.8, 337.0)">a</text><text xml:space="preserve" font-family="Helvetica-Light" font-size="16.0" fill="#FEFFFF" transform="matrix(1.00, 0.00, -0.00, -1.00, 647.7, 337.0)">t</text><text xml:space="preserve" font-family="Helvetica-Light" font-size="16.0" fill="#FEFFFF" transform="matrix(1.00, 0.00, -0.00, -1.00, 652.2, 337.0)">e</text><text xml:space="preserve" font-family="Helvetica-Light" font-size="16.0" fill="#FEFFFF" transform="matrix(1.00, 0.00, -0.00, -1.00, 661.0, 337.0)"> </text><text xml:space="preserve" font-family="Helvetica-Light" font-size="16.0" fill="#FEFFFF" transform="matrix(1.00, 0.00, -0.00, -1.00, 665.5, 337.0)">t</text><text xml:space="preserve" font-family="Helvetica-Light" font-size="16.0" fill="#FEFFFF" transform="matrix(1.00, 0.00, -0.00, -1.00, 669.9, 337.0)">h</text><text xml:space="preserve" font-family="Helvetica-Light" font-size="16.0" fill="#FEFFFF" transform="matrix(1.00, 0.00, -0.00, -1.00, 678.8, 337.0)">e</text><text xml:space="preserve" font-family="Helvetica-Light" font-size="16.0" fill="#FEFFFF" transform="matrix(1.00, 0.00, -0.00, -1.00, 687.7, 337.0)">s</text><text xml:space="preserve" font-family="Helvetica-Light" font-size="16.0" fill="#FEFFFF" transform="matrix(1.00, 0.00, -0.00, -1.00, 695.7, 337.0)">e</text><text xml:space="preserve" font-family="Helvetica-Light" font-size="16.0" fill="#FEFFFF" transform="matrix(1.00, 0.00, -0.00, -1.00, 704.6, 337.0)"> </text><text xml:space="preserve" font-family="Helvetica-Light" font-size="16.0" fill="#FEFFFF" transform="matrix(1.00, 0.00, -0.00, -1.00, 542.0, 318.0)">a</text><text xml:space="preserve" font-family="Helvetica-Light" font-size="16.0" fill="#FEFFFF" transform="matrix(1.00, 0.00, -0.00, -1.00, 550.9, 318.0)">c</text><text xml:space="preserve" font-family="Helvetica-Light" font-size="16.0" fill="#FEFFFF" transform="matrix(1.00, 0.00, -0.00, -1.00, 559.8, 318.0)">c</text><text xml:space="preserve" font-family="Helvetica-Light" font-size="16.0" fill="#FEFFFF" transform="matrix(1.00, 0.00, -0.00, -1.00, 568.7, 318.0)">e</text><text xml:space="preserve" font-family="Helvetica-Light" font-size="16.0" fill="#FEFFFF" transform="matrix(1.00, 0.00, -0.00, -1.00, 577.6, 318.0)">p</text><text xml:space="preserve" font-family="Helvetica-Light" font-size="16.0" fill="#FEFFFF" transform="matrix(1.00, 0.00, -0.00, -1.00, 587.4, 318.0)">t</text><text xml:space="preserve" font-family="Helvetica-Light" font-size="16.0" fill="#FEFFFF" transform="matrix(1.00, 0.00, -0.00, -1.00, 591.8, 318.0)">a</text><text xml:space="preserve" font-family="Helvetica-Light" font-size="16.0" fill="#FEFFFF" transform="matrix(1.00, 0.00, -0.00, -1.00, 600.7, 318.0)">n</text><text xml:space="preserve" font-family="Helvetica-Light" font-size="16.0" fill="#FEFFFF" transform="matrix(1.00, 0.00, -0.00, -1.00, 609.6, 318.0)">c</text><text xml:space="preserve" font-family="Helvetica-Light" font-size="16.0" fill="#FEFFFF" transform="matrix(1.00, 0.00, -0.00, -1.00, 618.5, 318.0)">e</text><text xml:space="preserve" font-family="Helvetica-Light" font-size="16.0" fill="#FEFFFF" transform="matrix(1.00, 0.00, -0.00, -1.00, 627.4, 318.0)"> </text><text xml:space="preserve" font-family="Helvetica-Light" font-size="16.0" fill="#FEFFFF" transform="matrix(1.00, 0.00, -0.00, -1.00, 631.8, 318.0)">t</text><text xml:space="preserve" font-family="Helvetica-Light" font-size="16.0" fill="#FEFFFF" transform="matrix(1.00, 0.00, -0.00, -1.00, 636.3, 318.0)">e</text><text xml:space="preserve" font-family="Helvetica-Light" font-size="16.0" fill="#FEFFFF" transform="matrix(1.00, 0.00, -0.00, -1.00, 645.2, 318.0)">s</text><text xml:space="preserve" font-family="Helvetica-Light" font-size="16.0" fill="#FEFFFF" transform="matrix(1.00, 0.00, -0.00, -1.00, 653.2, 318.0)">t</text><text xml:space="preserve" font-family="Helvetica-Light" font-size="16.0" fill="#FEFFFF" transform="matrix(1.00, 0.00, -0.00, -1.00, 657.6, 318.0)">s</text><text xml:space="preserve" font-family="Helvetica-Light" font-size="16.0" fill="#FEFFFF" transform="matrix(1.00, 0.00, -0.00, -1.00, 665.6, 318.0)"> </text><text xml:space="preserve" font-family="Helvetica-Light" font-size="16.0" fill="#FEFFFF" transform="matrix(1.00, 0.00, -0.00, -1.00, 670.1, 318.0)">s</text><text xml:space="preserve" font-family="Helvetica-Light" font-size="16.0" fill="#FEFFFF" transform="matrix(1.00, 0.00, -0.00, -1.00, 678.1, 318.0)">o</text><text xml:space="preserve" font-family="Helvetica-Light" font-size="16.0" fill="#FEFFFF" transform="matrix(1.00, 0.00, -0.00, -1.00, 687.0, 318.0)"> </text><text xml:space="preserve" font-family="Helvetica-Light" font-size="16.0" fill="#FEFFFF" transform="matrix(1.00, 0.00, -0.00, -1.00, 691.4, 318.0)">t</text><text xml:space="preserve" font-family="Helvetica-Light" font-size="16.0" fill="#FEFFFF" transform="matrix(1.00, 0.00, -0.00, -1.00, 695.9, 318.0)">h</text><text xml:space="preserve" font-family="Helvetica-Light" font-size="16.0" fill="#FEFFFF" transform="matrix(1.00, 0.00, -0.00, -1.00, 704.8, 318.0)">a</text><text xml:space="preserve" font-family="Helvetica-Light" font-size="16.0" fill="#FEFFFF" transform="matrix(1.00, 0.00, -0.00, -1.00, 713.7, 318.0)">t</text><text xml:space="preserve" font-family="Helvetica-Light" font-size="16.0" fill="#FEFFFF" transform="matrix(1.00, 0.00, -0.00, -1.00, 718.1, 318.0)"> </text><text xml:space="preserve" font-family="Helvetica-Light" font-size="16.0" fill="#FEFFFF" transform="matrix(1.00, 0.00, -0.00, -1.00, 722.6, 318.0)">I</text><text xml:space="preserve" font-family="Helvetica-Light" font-size="16.0" fill="#FEFFFF" transform="matrix(1.00, 0.00, -0.00, -1.00, 727.0, 318.0)"> </text><text xml:space="preserve" font-family="Helvetica-Light" font-size="16.0" fill="#FEFFFF" transform="matrix(1.00, 0.00, -0.00, -1.00, 546.0, 299.0)">c</text><text xml:space="preserve" font-family="Helvetica-Light" font-size="16.0" fill="#FEFFFF" transform="matrix(1.00, 0.00, -0.00, -1.00, 554.9, 299.0)">a</text><text xml:space="preserve" font-family="Helvetica-Light" font-size="16.0" fill="#FEFFFF" transform="matrix(1.00, 0.00, -0.00, -1.00, 563.8, 299.0)">n</text><text xml:space="preserve" font-family="Helvetica-Light" font-size="16.0" fill="#FEFFFF" transform="matrix(1.00, 0.00, -0.00, -1.00, 572.7, 299.0)"> </text><text xml:space="preserve" font-family="Helvetica-Light" font-size="16.0" fill="#FEFFFF" transform="matrix(1.00, 0.00, -0.00, -1.00, 577.1, 299.0)">r</text><text xml:space="preserve" font-family="Helvetica-Light" font-size="16.0" fill="#FEFFFF" transform="matrix(1.00, 0.00, -0.00, -1.00, 582.5, 299.0)">u</text><text xml:space="preserve" font-family="Helvetica-Light" font-size="16.0" fill="#FEFFFF" transform="matrix(1.00, 0.00, -0.00, -1.00, 591.4, 299.0)">n</text><text xml:space="preserve" font-family="Helvetica-Light" font-size="16.0" fill="#FEFFFF" transform="matrix(1.00, 0.00, -0.00, -1.00, 600.3, 299.0)"> </text><text xml:space="preserve" font-family="Helvetica-Light" font-size="16.0" fill="#FEFFFF" transform="matrix(1.00, 0.00, -0.00, -1.00, 604.7, 299.0)">t</text><text xml:space="preserve" font-family="Helvetica-Light" font-size="16.0" fill="#FEFFFF" transform="matrix(1.00, 0.00, -0.00, -1.00, 609.2, 299.0)">h</text><text xml:space="preserve" font-family="Helvetica-Light" font-size="16.0" fill="#FEFFFF" transform="matrix(1.00, 0.00, -0.00, -1.00, 618.0, 299.0)">e</text><text xml:space="preserve" font-family="Helvetica-Light" font-size="16.0" fill="#FEFFFF" transform="matrix(1.00, 0.00, -0.00, -1.00, 626.9, 299.0)">m</text><text xml:space="preserve" font-family="Helvetica-Light" font-size="16.0" fill="#FEFFFF" transform="matrix(1.00, 0.00, -0.00, -1.00, 640.3, 299.0)"> </text><text xml:space="preserve" font-family="Helvetica-Light" font-size="16.0" fill="#FEFFFF" transform="matrix(1.00, 0.00, -0.00, -1.00, 644.7, 299.0)">w</text><text xml:space="preserve" font-family="Helvetica-Light" font-size="16.0" fill="#FEFFFF" transform="matrix(1.00, 0.00, -0.00, -1.00, 656.3, 299.0)">h</text><text xml:space="preserve" font-family="Helvetica-Light" font-size="16.0" fill="#FEFFFF" transform="matrix(1.00, 0.00, -0.00, -1.00, 665.2, 299.0)">e</text><text xml:space="preserve" font-family="Helvetica-Light" font-size="16.0" fill="#FEFFFF" transform="matrix(1.00, 0.00, -0.00, -1.00, 674.1, 299.0)">n</text><text xml:space="preserve" font-family="Helvetica-Light" font-size="16.0" fill="#FEFFFF" transform="matrix(1.00, 0.00, -0.00, -1.00, 683.0, 299.0)">e</text><text xml:space="preserve" font-family="Helvetica-Light" font-size="16.0" fill="#FEFFFF" transform="matrix(1.00, 0.00, -0.00, -1.00, 691.9, 299.0)">v</text><text xml:space="preserve" font-family="Helvetica-Light" font-size="16.0" fill="#FEFFFF" transform="matrix(1.00, 0.00, -0.00, -1.00, 699.9, 299.0)">e</text><text xml:space="preserve" font-family="Helvetica-Light" font-size="16.0" fill="#FEFFFF" transform="matrix(1.00, 0.00, -0.00, -1.00, 708.8, 299.0)">r</text><text xml:space="preserve" font-family="Helvetica-Light" font-size="16.0" fill="#FEFFFF" transform="matrix(1.00, 0.00, -0.00, -1.00, 714.1, 299.0)"> </text><text xml:space="preserve" font-family="Helvetica-Light" font-size="16.0" fill="#FEFFFF" transform="matrix(1.00, 0.00, -0.00, -1.00, 718.5, 299.0)">I</text><text xml:space="preserve" font-family="Helvetica-Light" font-size="16.0" fill="#FEFFFF" transform="matrix(1.00, 0.00, -0.00, -1.00, 723.0, 299.0)"> </text><text xml:space="preserve" font-family="Helvetica-Light" font-size="16.0" fill="#FEFFFF" transform="matrix(1.00, 0.00, -0.00, -1.00, 618.0, 280.0)">w</text><text xml:space="preserve" font-family="Helvetica-Light" font-size="16.0" fill="#FEFFFF" transform="matrix(1.00, 0.00, -0.00, -1.00, 629.6, 280.0)">a</text><text xml:space="preserve" font-family="Helvetica-Light" font-size="16.0" fill="#FEFFFF" transform="matrix(1.00, 0.00, -0.00, -1.00, 638.4, 280.0)">n</text><text xml:space="preserve" font-family="Helvetica-Light" font-size="16.0" fill="#FEFFFF" transform="matrix(1.00, 0.00, -0.00, -1.00, 647.3, 280.0)">t</text></g></g><g><clipPath id="clip-3593"><path d="M 592.0 187.4 L 649.7 187.4 L 649.7 245.1 L 592.0 245.1 Z M 592.0 187.4 "></path></clipPath><g clip-path="url(#clip-3593)"><image xlink:href="../../AAA0FCF1-536D-412F-8916-0370750779E4/assets/51A0D71708F85035315E7FD6E0AA3FDF.png" width="58.00" height="58.00" transform="matrix(1.00, 0.00, -0.00, -1.00, 592.0, 245.0)"></image></g></g><g><clipPath id="clip-3594"><path d="M 539.2 138.6 L 689.5 138.6 L 689.5 193.2 L 539.2 193.2 Z M 539.2 138.6 "></path></clipPath><g clip-path="url(#clip-3594)"><text xml:space="preserve" font-family="ComicSansMS-Bold" font-weight="bold" font-size="13.0" fill="#E7A432" transform="matrix(1.00, 0.00, -0.00, -1.00, 591.0, 174.0)">f</text><text xml:space="preserve" font-family="ComicSansMS-Bold" font-weight="bold" font-size="13.0" fill="#E7A432" transform="matrix(1.00, 0.00, -0.00, -1.00, 597.6, 174.0)">e</text><text xml:space="preserve" font-family="ComicSansMS-Bold" font-weight="bold" font-size="13.0" fill="#E7A432" transform="matrix(1.00, 0.00, -0.00, -1.00, 604.9, 174.0)">a</text><text xml:space="preserve" font-family="ComicSansMS-Bold" font-weight="bold" font-size="13.0" fill="#E7A432" transform="matrix(1.00, 0.00, -0.00, -1.00, 612.1, 174.0)">t</text><text xml:space="preserve" font-family="ComicSansMS-Bold" font-weight="bold" font-size="13.0" fill="#E7A432" transform="matrix(1.00, 0.00, -0.00, -1.00, 618.2, 174.0)">u</text><text xml:space="preserve" font-family="ComicSansMS-Bold" font-weight="bold" font-size="13.0" fill="#E7A432" transform="matrix(1.00, 0.00, -0.00, -1.00, 625.0, 174.0)">r</text><text xml:space="preserve" font-family="ComicSansMS-Bold" font-weight="bold" font-size="13.0" fill="#E7A432" transform="matrix(1.00, 0.00, -0.00, -1.00, 631.2, 174.0)">e</text><text xml:space="preserve" font-family="ComicSansMS-Bold" font-weight="bold" font-size="13.0" fill="#E7A432" transform="matrix(1.00, 0.00, -0.00, -1.00, 638.5, 174.0)"> </text><text xml:space="preserve" font-family="ComicSansMS-Bold" font-weight="bold" font-size="18.0" fill="#7ADA45" transform="matrix(1.00, 0.00, -0.00, -1.00, 602.0, 151.0)">O</text><text xml:space="preserve" font-family="ComicSansMS-Bold" font-weight="bold" font-size="18.0" fill="#7ADA45" transform="matrix(1.00, 0.00, -0.00, -1.00, 616.4, 151.0)">K</text></g></g><text xml:space="preserve" font-family="ComicSansMS-Bold" font-weight="bold" font-size="30.0" fill="#E7A432" transform="matrix(1.00, 0.00, -0.00, -1.00, 34.0, 720.0)">A</text><text xml:space="preserve" font-family="ComicSansMS-Bold" font-weight="bold" font-size="30.0" fill="#E7A432" transform="matrix(1.00, 0.00, -0.00, -1.00, 56.0, 720.0)">T</text><text xml:space="preserve" font-family="ComicSansMS-Bold" font-weight="bold" font-size="30.0" fill="#E7A432" transform="matrix(1.00, 0.00, -0.00, -1.00, 76.8, 720.0)">D</text><text xml:space="preserve" font-family="ComicSansMS-Bold" font-weight="bold" font-size="30.0" fill="#E7A432" transform="matrix(1.00, 0.00, -0.00, -1.00, 98.5, 720.0)">D</text><text xml:space="preserve" font-family="ComicSansMS-Bold" font-weight="bold" font-size="30.0" fill="#E7A432" transform="matrix(1.00, 0.00, -0.00, -1.00, 120.1, 720.0)"> </text><text xml:space="preserve" font-family="ComicSansMS-Bold" font-weight="bold" font-size="30.0" fill="#E7A432" transform="matrix(1.00, 0.00, -0.00, -1.00, 133.1, 720.0)">E</text><text xml:space="preserve" font-family="ComicSansMS-Bold" font-weight="bold" font-size="30.0" fill="#E7A432" transform="matrix(1.00, 0.00, -0.00, -1.00, 151.8, 720.0)">x</text><text xml:space="preserve" font-family="ComicSansMS-Bold" font-weight="bold" font-size="30.0" fill="#E7A432" transform="matrix(1.00, 0.00, -0.00, -1.00, 169.5, 720.0)">e</text><text xml:space="preserve" font-family="ComicSansMS-Bold" font-weight="bold" font-size="30.0" fill="#E7A432" transform="matrix(1.00, 0.00, -0.00, -1.00, 186.3, 720.0)">c</text><text xml:space="preserve" font-family="ComicSansMS-Bold" font-weight="bold" font-size="30.0" fill="#E7A432" transform="matrix(1.00, 0.00, -0.00, -1.00, 201.7, 720.0)">u</text><text xml:space="preserve" font-family="ComicSansMS-Bold" font-weight="bold" font-size="30.0" fill="#E7A432" transform="matrix(1.00, 0.00, -0.00, -1.00, 217.3, 720.0)">t</text><text xml:space="preserve" font-family="ComicSansMS-Bold" font-weight="bold" font-size="30.0" fill="#E7A432" transform="matrix(1.00, 0.00, -0.00, -1.00, 231.5, 720.0)">i</text><text xml:space="preserve" font-family="ComicSansMS-Bold" font-weight="bold" font-size="30.0" fill="#E7A432" transform="matrix(1.00, 0.00, -0.00, -1.00, 239.9, 720.0)">o</text><text xml:space="preserve" font-family="ComicSansMS-Bold" font-weight="bold" font-size="30.0" fill="#E7A432" transform="matrix(1.00, 0.00, -0.00, -1.00, 255.7, 720.0)">n</text><text xml:space="preserve" font-family="ComicSansMS-Bold" font-weight="bold" font-size="30.0" fill="#E7A432" transform="matrix(1.00, 0.00, -0.00, -1.00, 271.4, 720.0)"> </text><text xml:space="preserve" font-family="ComicSansMS-Bold" font-weight="bold" font-size="30.0" fill="#E7A432" transform="matrix(1.00, 0.00, -0.00, -1.00, 284.4, 720.0)">C</text><text xml:space="preserve" font-family="ComicSansMS-Bold" font-weight="bold" font-size="30.0" fill="#E7A432" transform="matrix(1.00, 0.00, -0.00, -1.00, 302.9, 720.0)">y</text><text xml:space="preserve" font-family="ComicSansMS-Bold" font-weight="bold" font-size="30.0" fill="#E7A432" transform="matrix(1.00, 0.00, -0.00, -1.00, 319.5, 720.0)">c</text><text xml:space="preserve" font-family="ComicSansMS-Bold" font-weight="bold" font-size="30.0" fill="#E7A432" transform="matrix(1.00, 0.00, -0.00, -1.00, 334.9, 720.0)">l</text><text xml:space="preserve" font-family="ComicSansMS-Bold" font-weight="bold" font-size="30.0" fill="#E7A432" transform="matrix(1.00, 0.00, -0.00, -1.00, 343.1, 720.0)">e</text><text xml:space="preserve" font-family="ComicSansMS-Bold" font-weight="bold" font-size="30.0" fill="#E7A432" transform="matrix(1.00, 0.00, -0.00, -1.00, 708.2, 720.4)">1</text><text xml:space="preserve" font-family="ComicSansMS-Bold" font-weight="bold" font-size="30.0" fill="#E7A432" transform="matrix(1.00, 0.00, -0.00, -1.00, 726.5, 720.4)">.</text><text xml:space="preserve" font-family="ComicSansMS-Bold" font-weight="bold" font-size="30.0" fill="#E7A432" transform="matrix(1.00, 0.00, -0.00, -1.00, 749.0, 720.0)">F</text><text xml:space="preserve" font-family="ComicSansMS-Bold" font-weight="bold" font-size="30.0" fill="#E7A432" transform="matrix(1.00, 0.00, -0.00, -1.00, 767.2, 720.0)">e</text><text xml:space="preserve" font-family="ComicSansMS-Bold" font-weight="bold" font-size="30.0" fill="#E7A432" transform="matrix(1.00, 0.00, -0.00, -1.00, 784.0, 720.0)">a</text><text xml:space="preserve" font-family="ComicSansMS-Bold" font-weight="bold" font-size="30.0" fill="#E7A432" transform="matrix(1.00, 0.00, -0.00, -1.00, 800.6, 720.0)">t</text><text xml:space="preserve" font-family="ComicSansMS-Bold" font-weight="bold" font-size="30.0" fill="#E7A432" transform="matrix(1.00, 0.00, -0.00, -1.00, 814.8, 720.0)">u</text><text xml:space="preserve" font-family="ComicSansMS-Bold" font-weight="bold" font-size="30.0" fill="#E7A432" transform="matrix(1.00, 0.00, -0.00, -1.00, 830.4, 720.0)">r</text><text xml:space="preserve" font-family="ComicSansMS-Bold" font-weight="bold" font-size="30.0" fill="#E7A432" transform="matrix(1.00, 0.00, -0.00, -1.00, 844.8, 720.0)">e</text><text xml:space="preserve" font-family="ComicSansMS-Bold" font-weight="bold" font-size="30.0" fill="#E7A432" transform="matrix(1.00, 0.00, -0.00, -1.00, 861.6, 720.0)"> </text><text xml:space="preserve" font-family="ComicSansMS-Bold" font-weight="bold" font-size="30.0" fill="#E7A432" transform="matrix(1.00, 0.00, -0.00, -1.00, 874.6, 720.0)">P</text><text xml:space="preserve" font-family="ComicSansMS-Bold" font-weight="bold" font-size="30.0" fill="#E7A432" transform="matrix(1.00, 0.00, -0.00, -1.00, 890.6, 720.0)">l</text><text xml:space="preserve" font-family="ComicSansMS-Bold" font-weight="bold" font-size="30.0" fill="#E7A432" transform="matrix(1.00, 0.00, -0.00, -1.00, 898.8, 720.0)">a</text><text xml:space="preserve" font-family="ComicSansMS-Bold" font-weight="bold" font-size="30.0" fill="#E7A432" transform="matrix(1.00, 0.00, -0.00, -1.00, 915.4, 720.0)">n</text><text xml:space="preserve" font-family="ComicSansMS-Bold" font-weight="bold" font-size="30.0" fill="#E7A432" transform="matrix(1.00, 0.00, -0.00, -1.00, 931.1, 720.0)">n</text><text xml:space="preserve" font-family="ComicSansMS-Bold" font-weight="bold" font-size="30.0" fill="#E7A432" transform="matrix(1.00, 0.00, -0.00, -1.00, 946.9, 720.0)">i</text><text xml:space="preserve" font-family="ComicSansMS-Bold" font-weight="bold" font-size="30.0" fill="#E7A432" transform="matrix(1.00, 0.00, -0.00, -1.00, 955.3, 720.0)">n</text><text xml:space="preserve" font-family="ComicSansMS-Bold" font-weight="bold" font-size="30.0" fill="#E7A432" transform="matrix(1.00, 0.00, -0.00, -1.00, 971.0, 720.0)">g</text><text xml:space="preserve" font-family="ComicSansMS-Bold" font-weight="bold" font-size="30.0" fill="#E7A432" transform="matrix(1.00, 0.00, -0.00, -1.00, 986.9, 720.0)"> </text><text xml:space="preserve" font-family="ComicSansMS-Bold" font-weight="bold" font-size="30.0" fill="#E7A432" transform="matrix(1.00, 0.00, -0.00, -1.00, 708.0, 678.0)">2</text><text xml:space="preserve" font-family="ComicSansMS-Bold" font-weight="bold" font-size="30.0" fill="#E7A432" transform="matrix(1.00, 0.00, -0.00, -1.00, 726.3, 678.0)">.</text><text xml:space="preserve" font-family="ComicSansMS-Bold" font-weight="bold" font-size="30.0" fill="#E7A432" transform="matrix(1.00, 0.00, -0.00, -1.00, 739.3, 678.0)"> </text><text xml:space="preserve" font-family="ComicSansMS-Bold" font-weight="bold" font-size="30.0" fill="#E7A432" transform="matrix(1.00, 0.00, -0.00, -1.00, 752.3, 678.0)">F</text><text xml:space="preserve" font-family="ComicSansMS-Bold" font-weight="bold" font-size="30.0" fill="#E7A432" transform="matrix(1.00, 0.00, -0.00, -1.00, 770.5, 678.0)">e</text><text xml:space="preserve" font-family="ComicSansMS-Bold" font-weight="bold" font-size="30.0" fill="#E7A432" transform="matrix(1.00, 0.00, -0.00, -1.00, 787.3, 678.0)">a</text><text xml:space="preserve" font-family="ComicSansMS-Bold" font-weight="bold" font-size="30.0" fill="#E7A432" transform="matrix(1.00, 0.00, -0.00, -1.00, 804.0, 678.0)">t</text><text xml:space="preserve" font-family="ComicSansMS-Bold" font-weight="bold" font-size="30.0" fill="#E7A432" transform="matrix(1.00, 0.00, -0.00, -1.00, 818.1, 678.0)">u</text><text xml:space="preserve" font-family="ComicSansMS-Bold" font-weight="bold" font-size="30.0" fill="#E7A432" transform="matrix(1.00, 0.00, -0.00, -1.00, 833.7, 678.0)">r</text><text xml:space="preserve" font-family="ComicSansMS-Bold" font-weight="bold" font-size="30.0" fill="#E7A432" transform="matrix(1.00, 0.00, -0.00, -1.00, 848.1, 678.0)">e</text><text xml:space="preserve" font-family="ComicSansMS-Bold" font-weight="bold" font-size="30.0" fill="#E7A432" transform="matrix(1.00, 0.00, -0.00, -1.00, 864.9, 678.0)"> </text><text xml:space="preserve" font-family="ComicSansMS-Bold" font-weight="bold" font-size="30.0" fill="#E7A432" transform="matrix(1.00, 0.00, -0.00, -1.00, 877.9, 678.0)">K</text><text xml:space="preserve" font-family="ComicSansMS-Bold" font-weight="bold" font-size="30.0" fill="#E7A432" transform="matrix(1.00, 0.00, -0.00, -1.00, 896.2, 678.0)">i</text><text xml:space="preserve" font-family="ComicSansMS-Bold" font-weight="bold" font-size="30.0" fill="#E7A432" transform="matrix(1.00, 0.00, -0.00, -1.00, 904.6, 678.0)">c</text><text xml:space="preserve" font-family="ComicSansMS-Bold" font-weight="bold" font-size="30.0" fill="#E7A432" transform="matrix(1.00, 0.00, -0.00, -1.00, 920.0, 678.0)">k</text><text xml:space="preserve" font-family="ComicSansMS-Bold" font-weight="bold" font-size="30.0" fill="#E7A432" transform="matrix(1.00, 0.00, -0.00, -1.00, 936.2, 678.0)">o</text><text xml:space="preserve" font-family="ComicSansMS-Bold" font-weight="bold" font-size="30.0" fill="#E7A432" transform="matrix(1.00, 0.00, -0.00, -1.00, 952.0, 678.0)">f</text><text xml:space="preserve" font-family="ComicSansMS-Bold" font-weight="bold" font-size="30.0" fill="#E7A432" transform="matrix(1.00, 0.00, -0.00, -1.00, 967.3, 678.0)">f</text><text xml:space="preserve" font-family="ComicSansMS-Bold" font-weight="bold" font-size="30.0" fill="#E7A432" transform="matrix(1.00, 0.00, -0.00, -1.00, 982.5, 678.0)"> </text><text xml:space="preserve" font-family="ComicSansMS-Bold" font-weight="bold" font-size="30.0" fill="#E7A432" transform="matrix(1.00, 0.00, -0.00, -1.00, 708.0, 636.0)">3</text><text xml:space="preserve" font-family="ComicSansMS-Bold" font-weight="bold" font-size="30.0" fill="#E7A432" transform="matrix(1.00, 0.00, -0.00, -1.00, 726.3, 636.0)">.</text><text xml:space="preserve" font-family="ComicSansMS-Bold" font-weight="bold" font-size="30.0" fill="#E7A432" transform="matrix(1.00, 0.00, -0.00, -1.00, 739.3, 636.0)"> </text><text xml:space="preserve" font-family="ComicSansMS-Bold" font-weight="bold" font-size="30.0" fill="#E7A432" transform="matrix(1.00, 0.00, -0.00, -1.00, 752.3, 636.0)">D</text><text xml:space="preserve" font-family="ComicSansMS-Bold" font-weight="bold" font-size="30.0" fill="#E7A432" transform="matrix(1.00, 0.00, -0.00, -1.00, 773.9, 636.0)">e</text><text xml:space="preserve" font-family="ComicSansMS-Bold" font-weight="bold" font-size="30.0" fill="#E7A432" transform="matrix(1.00, 0.00, -0.00, -1.00, 790.7, 636.0)">v</text><text xml:space="preserve" font-family="ComicSansMS-Bold" font-weight="bold" font-size="30.0" fill="#E7A432" transform="matrix(1.00, 0.00, -0.00, -1.00, 805.3, 636.0)"> </text><text xml:space="preserve" font-family="ComicSansMS-Bold" font-weight="bold" font-size="30.0" fill="#E7A432" transform="matrix(1.00, 0.00, -0.00, -1.00, 818.3, 636.0)">B</text><text xml:space="preserve" font-family="ComicSansMS-Bold" font-weight="bold" font-size="30.0" fill="#E7A432" transform="matrix(1.00, 0.00, -0.00, -1.00, 837.2, 636.0)">o</text><text xml:space="preserve" font-family="ComicSansMS-Bold" font-weight="bold" font-size="30.0" fill="#E7A432" transform="matrix(1.00, 0.00, -0.00, -1.00, 853.0, 636.0)">x</text><text xml:space="preserve" font-family="ComicSansMS-Bold" font-weight="bold" font-size="30.0" fill="#E7A432" transform="matrix(1.00, 0.00, -0.00, -1.00, 870.7, 636.0)"> </text><text xml:space="preserve" font-family="ComicSansMS-Bold" font-weight="bold" font-size="30.0" fill="#E7A432" transform="matrix(1.00, 0.00, -0.00, -1.00, 883.7, 636.0)">T</text><text xml:space="preserve" font-family="ComicSansMS-Bold" font-weight="bold" font-size="30.0" fill="#E7A432" transform="matrix(1.00, 0.00, -0.00, -1.00, 904.6, 636.0)">e</text><text xml:space="preserve" font-family="ComicSansMS-Bold" font-weight="bold" font-size="30.0" fill="#E7A432" transform="matrix(1.00, 0.00, -0.00, -1.00, 921.3, 636.0)">s</text><text xml:space="preserve" font-family="ComicSansMS-Bold" font-weight="bold" font-size="30.0" fill="#E7A432" transform="matrix(1.00, 0.00, -0.00, -1.00, 935.9, 636.0)">t</text><text xml:space="preserve" font-family="ComicSansMS-Bold" font-weight="bold" font-size="30.0" fill="#E7A432" transform="matrix(1.00, 0.00, -0.00, -1.00, 950.1, 636.0)">i</text><text xml:space="preserve" font-family="ComicSansMS-Bold" font-weight="bold" font-size="30.0" fill="#E7A432" transform="matrix(1.00, 0.00, -0.00, -1.00, 958.5, 636.0)">n</text><text xml:space="preserve" font-family="ComicSansMS-Bold" font-weight="bold" font-size="30.0" fill="#E7A432" transform="matrix(1.00, 0.00, -0.00, -1.00, 974.2, 636.0)">g</text><text xml:space="preserve" font-family="ComicSansMS-Bold" font-weight="bold" font-size="30.0" fill="#E7A432" transform="matrix(1.00, 0.00, -0.00, -1.00, 990.2, 636.0)"> </text><text xml:space="preserve" font-family="ComicSansMS-Bold" font-weight="bold" font-size="30.0" fill="#E7A432" transform="matrix(1.00, 0.00, -0.00, -1.00, 708.0, 594.0)">4</text><text xml:space="preserve" font-family="ComicSansMS-Bold" font-weight="bold" font-size="30.0" fill="#E7A432" transform="matrix(1.00, 0.00, -0.00, -1.00, 726.3, 594.0)">.</text><text xml:space="preserve" font-family="ComicSansMS-Bold" font-weight="bold" font-size="30.0" fill="#E7A432" transform="matrix(1.00, 0.00, -0.00, -1.00, 739.3, 594.0)"> </text><text xml:space="preserve" font-family="ComicSansMS-Bold" font-weight="bold" font-size="30.0" fill="#E7A432" transform="matrix(1.00, 0.00, -0.00, -1.00, 752.3, 594.0)">A</text><text xml:space="preserve" font-family="ComicSansMS-Bold" font-weight="bold" font-size="30.0" fill="#E7A432" transform="matrix(1.00, 0.00, -0.00, -1.00, 774.3, 594.0)">u</text><text xml:space="preserve" font-family="ComicSansMS-Bold" font-weight="bold" font-size="30.0" fill="#E7A432" transform="matrix(1.00, 0.00, -0.00, -1.00, 789.9, 594.0)">t</text><text xml:space="preserve" font-family="ComicSansMS-Bold" font-weight="bold" font-size="30.0" fill="#E7A432" transform="matrix(1.00, 0.00, -0.00, -1.00, 804.0, 594.0)">o</text><text xml:space="preserve" font-family="ComicSansMS-Bold" font-weight="bold" font-size="30.0" fill="#E7A432" transform="matrix(1.00, 0.00, -0.00, -1.00, 819.8, 594.0)">m</text><text xml:space="preserve" font-family="ComicSansMS-Bold" font-weight="bold" font-size="30.0" fill="#E7A432" transform="matrix(1.00, 0.00, -0.00, -1.00, 843.1, 594.0)">a</text><text xml:space="preserve" font-family="ComicSansMS-Bold" font-weight="bold" font-size="30.0" fill="#E7A432" transform="matrix(1.00, 0.00, -0.00, -1.00, 859.7, 594.0)">t</text><text xml:space="preserve" font-family="ComicSansMS-Bold" font-weight="bold" font-size="30.0" fill="#E7A432" transform="matrix(1.00, 0.00, -0.00, -1.00, 873.9, 594.0)">i</text><text xml:space="preserve" font-family="ComicSansMS-Bold" font-weight="bold" font-size="30.0" fill="#E7A432" transform="matrix(1.00, 0.00, -0.00, -1.00, 882.3, 594.0)">o</text><text xml:space="preserve" font-family="ComicSansMS-Bold" font-weight="bold" font-size="30.0" fill="#E7A432" transform="matrix(1.00, 0.00, -0.00, -1.00, 898.1, 594.0)">n</text><text xml:space="preserve" font-family="ComicSansMS-Bold" font-weight="bold" font-size="21.0" fill="#DCDDE0" transform="matrix(1.00, 0.00, -0.00, -1.00, 484.0, 544.0)">Q</text><text xml:space="preserve" font-family="ComicSansMS-Bold" font-weight="bold" font-size="21.0" fill="#DCDDE0" transform="matrix(1.00, 0.00, -0.00, -1.00, 502.4, 544.0)">A</text><text xml:space="preserve" font-family="ComicSansMS-Bold" font-weight="bold" font-size="21.0" fill="#DCDDE0" transform="matrix(1.00, 0.00, -0.00, -1.00, 517.8, 544.0)"> </text><text xml:space="preserve" font-family="ComicSansMS-Bold" font-weight="bold" font-size="21.0" fill="#DCDDE0" transform="matrix(1.00, 0.00, -0.00, -1.00, 526.9, 544.0)">b</text><text xml:space="preserve" font-family="ComicSansMS-Bold" font-weight="bold" font-size="21.0" fill="#DCDDE0" transform="matrix(1.00, 0.00, -0.00, -1.00, 539.3, 544.0)">e</text><text xml:space="preserve" font-family="ComicSansMS-Bold" font-weight="bold" font-size="21.0" fill="#DCDDE0" transform="matrix(1.00, 0.00, -0.00, -1.00, 551.1, 544.0)">g</text><text xml:space="preserve" font-family="ComicSansMS-Bold" font-weight="bold" font-size="21.0" fill="#DCDDE0" transform="matrix(1.00, 0.00, -0.00, -1.00, 562.2, 544.0)">i</text><text xml:space="preserve" font-family="ComicSansMS-Bold" font-weight="bold" font-size="21.0" fill="#DCDDE0" transform="matrix(1.00, 0.00, -0.00, -1.00, 568.1, 544.0)">n</text><text xml:space="preserve" font-family="ComicSansMS-Bold" font-weight="bold" font-size="21.0" fill="#DCDDE0" transform="matrix(1.00, 0.00, -0.00, -1.00, 579.1, 544.0)">s</text><text xml:space="preserve" font-family="ComicSansMS-Bold" font-weight="bold" font-size="21.0" fill="#DCDDE0" transform="matrix(1.00, 0.00, -0.00, -1.00, 589.3, 544.0)"> </text><text xml:space="preserve" font-family="ComicSansMS-Bold" font-weight="bold" font-size="21.0" fill="#DCDDE0" transform="matrix(1.00, 0.00, -0.00, -1.00, 598.4, 544.0)">a</text><text xml:space="preserve" font-family="ComicSansMS-Bold" font-weight="bold" font-size="21.0" fill="#DCDDE0" transform="matrix(1.00, 0.00, -0.00, -1.00, 610.1, 544.0)">u</text><text xml:space="preserve" font-family="ComicSansMS-Bold" font-weight="bold" font-size="21.0" fill="#DCDDE0" transform="matrix(1.00, 0.00, -0.00, -1.00, 621.0, 544.0)">t</text><text xml:space="preserve" font-family="ComicSansMS-Bold" font-weight="bold" font-size="21.0" fill="#DCDDE0" transform="matrix(1.00, 0.00, -0.00, -1.00, 630.9, 544.0)">o</text><text xml:space="preserve" font-family="ComicSansMS-Bold" font-weight="bold" font-size="21.0" fill="#DCDDE0" transform="matrix(1.00, 0.00, -0.00, -1.00, 642.0, 544.0)">m</text><text xml:space="preserve" font-family="ComicSansMS-Bold" font-weight="bold" font-size="21.0" fill="#DCDDE0" transform="matrix(1.00, 0.00, -0.00, -1.00, 658.3, 544.0)">a</text><text xml:space="preserve" font-family="ComicSansMS-Bold" font-weight="bold" font-size="21.0" fill="#DCDDE0" transform="matrix(1.00, 0.00, -0.00, -1.00, 669.9, 544.0)">t</text><text xml:space="preserve" font-family="ComicSansMS-Bold" font-weight="bold" font-size="21.0" fill="#DCDDE0" transform="matrix(1.00, 0.00, -0.00, -1.00, 679.8, 544.0)">i</text><text xml:space="preserve" font-family="ComicSansMS-Bold" font-weight="bold" font-size="21.0" fill="#DCDDE0" transform="matrix(1.00, 0.00, -0.00, -1.00, 685.7, 544.0)">n</text><text xml:space="preserve" font-family="ComicSansMS-Bold" font-weight="bold" font-size="21.0" fill="#DCDDE0" transform="matrix(1.00, 0.00, -0.00, -1.00, 696.7, 544.0)">g</text><text xml:space="preserve" font-family="ComicSansMS-Bold" font-weight="bold" font-size="21.0" fill="#DCDDE0" transform="matrix(1.00, 0.00, -0.00, -1.00, 707.9, 544.0)"> </text><text xml:space="preserve" font-family="ComicSansMS-Bold" font-weight="bold" font-size="21.0" fill="#DCDDE0" transform="matrix(1.00, 0.00, -0.00, -1.00, 717.0, 544.0)">t</text><text xml:space="preserve" font-family="ComicSansMS-Bold" font-weight="bold" font-size="21.0" fill="#DCDDE0" transform="matrix(1.00, 0.00, -0.00, -1.00, 726.9, 544.0)">h</text><text xml:space="preserve" font-family="ComicSansMS-Bold" font-weight="bold" font-size="21.0" fill="#DCDDE0" transform="matrix(1.00, 0.00, -0.00, -1.00, 739.0, 544.0)">e</text><text xml:space="preserve" font-family="ComicSansMS-Bold" font-weight="bold" font-size="21.0" fill="#DCDDE0" transform="matrix(1.00, 0.00, -0.00, -1.00, 750.7, 544.0)"> </text><text xml:space="preserve" font-family="ComicSansMS-Bold" font-weight="bold" font-size="21.0" fill="#DCDDE0" transform="matrix(1.00, 0.00, -0.00, -1.00, 759.8, 544.0)">a</text><text xml:space="preserve" font-family="ComicSansMS-Bold" font-weight="bold" font-size="21.0" fill="#DCDDE0" transform="matrix(1.00, 0.00, -0.00, -1.00, 771.5, 544.0)">c</text><text xml:space="preserve" font-family="ComicSansMS-Bold" font-weight="bold" font-size="21.0" fill="#DCDDE0" transform="matrix(1.00, 0.00, -0.00, -1.00, 782.3, 544.0)">c</text><text xml:space="preserve" font-family="ComicSansMS-Bold" font-weight="bold" font-size="21.0" fill="#DCDDE0" transform="matrix(1.00, 0.00, -0.00, -1.00, 793.1, 544.0)">e</text><text xml:space="preserve" font-family="ComicSansMS-Bold" font-weight="bold" font-size="21.0" fill="#DCDDE0" transform="matrix(1.00, 0.00, -0.00, -1.00, 804.8, 544.0)">p</text><text xml:space="preserve" font-family="ComicSansMS-Bold" font-weight="bold" font-size="21.0" fill="#DCDDE0" transform="matrix(1.00, 0.00, -0.00, -1.00, 816.0, 544.0)">t</text><text xml:space="preserve" font-family="ComicSansMS-Bold" font-weight="bold" font-size="21.0" fill="#DCDDE0" transform="matrix(1.00, 0.00, -0.00, -1.00, 825.9, 544.0)">a</text><text xml:space="preserve" font-family="ComicSansMS-Bold" font-weight="bold" font-size="21.0" fill="#DCDDE0" transform="matrix(1.00, 0.00, -0.00, -1.00, 837.6, 544.0)">n</text><text xml:space="preserve" font-family="ComicSansMS-Bold" font-weight="bold" font-size="21.0" fill="#DCDDE0" transform="matrix(1.00, 0.00, -0.00, -1.00, 848.6, 544.0)">c</text><text xml:space="preserve" font-family="ComicSansMS-Bold" font-weight="bold" font-size="21.0" fill="#DCDDE0" transform="matrix(1.00, 0.00, -0.00, -1.00, 859.4, 544.0)">e</text><text xml:space="preserve" font-family="ComicSansMS-Bold" font-weight="bold" font-size="21.0" fill="#DCDDE0" transform="matrix(1.00, 0.00, -0.00, -1.00, 871.1, 544.0)"> </text><text xml:space="preserve" font-family="ComicSansMS-Bold" font-weight="bold" font-size="21.0" fill="#DCDDE0" transform="matrix(1.00, 0.00, -0.00, -1.00, 880.2, 544.0)">t</text><text xml:space="preserve" font-family="ComicSansMS-Bold" font-weight="bold" font-size="21.0" fill="#DCDDE0" transform="matrix(1.00, 0.00, -0.00, -1.00, 890.1, 544.0)">e</text><text xml:space="preserve" font-family="ComicSansMS-Bold" font-weight="bold" font-size="21.0" fill="#DCDDE0" transform="matrix(1.00, 0.00, -0.00, -1.00, 901.8, 544.0)">s</text><text xml:space="preserve" font-family="ComicSansMS-Bold" font-weight="bold" font-size="21.0" fill="#DCDDE0" transform="matrix(1.00, 0.00, -0.00, -1.00, 912.1, 544.0)">t</text><text xml:space="preserve" font-family="ComicSansMS-Bold" font-weight="bold" font-size="21.0" fill="#DCDDE0" transform="matrix(1.00, 0.00, -0.00, -1.00, 922.0, 544.0)">s</text><text xml:space="preserve" font-family="ComicSansMS-Bold" font-weight="bold" font-size="21.0" fill="#DCDDE0" transform="matrix(1.00, 0.00, -0.00, -1.00, 932.2, 544.0)"> </text><text xml:space="preserve" font-family="ComicSansMS-Bold" font-weight="bold" font-size="21.0" fill="#DCDDE0" transform="matrix(1.00, 0.00, -0.00, -1.00, 941.3, 544.0)">!</text></g></svg>