<?xml version="1.0" encoding="UTF-8" standalone="no"?><svg xmlns="http://www.w3.org/2000/svg" xmlns:xlink="http://www.w3.org/1999/xlink" clip-rule="evenodd" stroke-miterlimit="4.00" viewBox="0 0 1024 768"><desc>SVG generated by Keynote</desc><defs></defs><g transform="matrix(1.00, 0.00, -0.00, -1.00, 0.0, 768.0)"><path d="M 0.0 768.0 L 1024.0 768.0 L 1024.0 0.0 L 0.0 0.0 Z M 0.0 768.0 " fill="#000000"></path><g><clipPath id="clip-3608"><path d="M 936.7 12.0 L 936.7 82.8 L 1007.4 82.8 L 1007.4 12.0 Z M 936.7 12.0 "></path></clipPath><g clip-path="url(#clip-3608)"><image xlink:href="../../AAA0FCF1-536D-412F-8916-0370750779E4/assets/63AF18C5C1A3CFA871C6F4F764CDE2DE.png" width="71.00" height="71.00" transform="matrix(0.00, 1.00, 0.99, -0.00, 937.0, 12.0)" opacity="0.13"></image></g></g><text xml:space="preserve" font-family="Helvetica-Light" font-size="18.0" fill="#FEFFFF" transform="matrix(1.00, 0.00, -0.00, -1.00, 506.0, 17.0)">7</text><text xml:space="preserve" font-family="ComicSansMS-Bold" font-weight="bold" font-size="30.0" fill="#E7A432" transform="matrix(1.00, 0.00, -0.00, -1.00, 46.0, 609.0)">M</text><text xml:space="preserve" font-family="ComicSansMS-Bold" font-weight="bold" font-size="30.0" fill="#E7A432" transform="matrix(1.00, 0.00, -0.00, -1.00, 72.5, 609.0)">a</text><text xml:space="preserve" font-family="ComicSansMS-Bold" font-weight="bold" font-size="30.0" fill="#E7A432" transform="matrix(1.00, 0.00, -0.00, -1.00, 89.1, 609.0)">j</text><text xml:space="preserve" font-family="ComicSansMS-Bold" font-weight="bold" font-size="30.0" fill="#E7A432" transform="matrix(1.00, 0.00, -0.00, -1.00, 101.2, 609.0)">o</text><text xml:space="preserve" font-family="ComicSansMS-Bold" font-weight="bold" font-size="30.0" fill="#E7A432" transform="matrix(1.00, 0.00, -0.00, -1.00, 117.0, 609.0)">r</text><text xml:space="preserve" font-family="ComicSansMS-Bold" font-weight="bold" font-size="30.0" fill="#E7A432" transform="matrix(1.00, 0.00, -0.00, -1.00, 131.5, 609.0)"> </text><text xml:space="preserve" font-family="ComicSansMS-Bold" font-weight="bold" font-size="30.0" fill="#E7A432" transform="matrix(1.00, 0.00, -0.00, -1.00, 144.4, 609.0)">B</text><text xml:space="preserve" font-family="ComicSansMS-Bold" font-weight="bold" font-size="30.0" fill="#E7A432" transform="matrix(1.00, 0.00, -0.00, -1.00, 163.4, 609.0)">l</text><text xml:space="preserve" font-family="ComicSansMS-Bold" font-weight="bold" font-size="30.0" fill="#E7A432" transform="matrix(1.00, 0.00, -0.00, -1.00, 171.6, 609.0)">o</text><text xml:space="preserve" font-family="ComicSansMS-Bold" font-weight="bold" font-size="30.0" fill="#E7A432" transform="matrix(1.00, 0.00, -0.00, -1.00, 187.4, 609.0)">c</text><text xml:space="preserve" font-family="ComicSansMS-Bold" font-weight="bold" font-size="30.0" fill="#E7A432" transform="matrix(1.00, 0.00, -0.00, -1.00, 202.8, 609.0)">k</text><text xml:space="preserve" font-family="ComicSansMS-Bold" font-weight="bold" font-size="30.0" fill="#E7A432" transform="matrix(1.00, 0.00, -0.00, -1.00, 219.0, 609.0)">e</text><text xml:space="preserve" font-family="ComicSansMS-Bold" font-weight="bold" font-size="30.0" fill="#E7A432" transform="matrix(1.00, 0.00, -0.00, -1.00, 235.7, 609.0)">r</text><text xml:space="preserve" font-family="ComicSansMS-Bold" font-weight="bold" font-size="30.0" fill="#E7A432" transform="matrix(1.00, 0.00, -0.00, -1.00, 250.2, 609.0)">s</text><text xml:space="preserve" font-family="ComicSansMS-Bold" font-weight="bold" font-size="30.0" fill="#E7A432" transform="matrix(1.00, 0.00, -0.00, -1.00, 264.8, 609.0)"> </text><text xml:space="preserve" font-family="ComicSansMS-Bold" font-weight="bold" font-size="30.0" fill="#DCDDE0" transform="matrix(1.00, 0.00, -0.00, -1.00, 46.4, 567.3)">1</text><text xml:space="preserve" font-family="ComicSansMS-Bold" font-weight="bold" font-size="30.0" fill="#DCDDE0" transform="matrix(1.00, 0.00, -0.00, -1.00, 64.8, 567.3)">.</text><text xml:space="preserve" font-family="ComicSansMS-Bold" font-weight="bold" font-size="30.0" fill="#DCDDE0" transform="matrix(1.00, 0.00, -0.00, -1.00, 87.0, 567.0)">a</text><text xml:space="preserve" font-family="ComicSansMS-Bold" font-weight="bold" font-size="30.0" fill="#DCDDE0" transform="matrix(1.00, 0.00, -0.00, -1.00, 103.7, 567.0)">u</text><text xml:space="preserve" font-family="ComicSansMS-Bold" font-weight="bold" font-size="30.0" fill="#DCDDE0" transform="matrix(1.00, 0.00, -0.00, -1.00, 119.3, 567.0)">t</text><text xml:space="preserve" font-family="ComicSansMS-Bold" font-weight="bold" font-size="30.0" fill="#DCDDE0" transform="matrix(1.00, 0.00, -0.00, -1.00, 133.4, 567.0)">o</text><text xml:space="preserve" font-family="ComicSansMS-Bold" font-weight="bold" font-size="30.0" fill="#DCDDE0" transform="matrix(1.00, 0.00, -0.00, -1.00, 149.2, 567.0)">m</text><text xml:space="preserve" font-family="ComicSansMS-Bold" font-weight="bold" font-size="30.0" fill="#DCDDE0" transform="matrix(1.00, 0.00, -0.00, -1.00, 172.5, 567.0)">a</text><text xml:space="preserve" font-family="ComicSansMS-Bold" font-weight="bold" font-size="30.0" fill="#DCDDE0" transform="matrix(1.00, 0.00, -0.00, -1.00, 189.1, 567.0)">t</text><text xml:space="preserve" font-family="ComicSansMS-Bold" font-weight="bold" font-size="30.0" fill="#DCDDE0" transform="matrix(1.00, 0.00, -0.00, -1.00, 203.3, 567.0)">e</text><text xml:space="preserve" font-family="ComicSansMS-Bold" font-weight="bold" font-size="30.0" fill="#DCDDE0" transform="matrix(1.00, 0.00, -0.00, -1.00, 220.1, 567.0)">d</text><text xml:space="preserve" font-family="ComicSansMS-Bold" font-weight="bold" font-size="30.0" fill="#DCDDE0" transform="matrix(1.00, 0.00, -0.00, -1.00, 237.7, 567.0)"> </text><text xml:space="preserve" font-family="ComicSansMS-Bold" font-weight="bold" font-size="30.0" fill="#DCDDE0" transform="matrix(1.00, 0.00, -0.00, -1.00, 250.7, 567.0)">t</text><text xml:space="preserve" font-family="ComicSansMS-Bold" font-weight="bold" font-size="30.0" fill="#DCDDE0" transform="matrix(1.00, 0.00, -0.00, -1.00, 264.8, 567.0)">e</text><text xml:space="preserve" font-family="ComicSansMS-Bold" font-weight="bold" font-size="30.0" fill="#DCDDE0" transform="matrix(1.00, 0.00, -0.00, -1.00, 281.6, 567.0)">s</text><text xml:space="preserve" font-family="ComicSansMS-Bold" font-weight="bold" font-size="30.0" fill="#DCDDE0" transform="matrix(1.00, 0.00, -0.00, -1.00, 296.2, 567.0)">t</text><text xml:space="preserve" font-family="ComicSansMS-Bold" font-weight="bold" font-size="30.0" fill="#DCDDE0" transform="matrix(1.00, 0.00, -0.00, -1.00, 310.3, 567.0)">s</text><text xml:space="preserve" font-family="ComicSansMS-Bold" font-weight="bold" font-size="30.0" fill="#DCDDE0" transform="matrix(1.00, 0.00, -0.00, -1.00, 324.9, 567.0)"> </text><text xml:space="preserve" font-family="ComicSansMS-Bold" font-weight="bold" font-size="30.0" fill="#DCDDE0" transform="matrix(1.00, 0.00, -0.00, -1.00, 337.9, 567.0)">a</text><text xml:space="preserve" font-family="ComicSansMS-Bold" font-weight="bold" font-size="30.0" fill="#DCDDE0" transform="matrix(1.00, 0.00, -0.00, -1.00, 354.6, 567.0)">r</text><text xml:space="preserve" font-family="ComicSansMS-Bold" font-weight="bold" font-size="30.0" fill="#DCDDE0" transform="matrix(1.00, 0.00, -0.00, -1.00, 369.0, 567.0)">e</text><text xml:space="preserve" font-family="ComicSansMS-Bold" font-weight="bold" font-size="30.0" fill="#DCDDE0" transform="matrix(1.00, 0.00, -0.00, -1.00, 385.8, 567.0)"> </text><text xml:space="preserve" font-family="ComicSansMS-Bold" font-weight="bold" font-size="30.0" fill="#A6AAA8" transform="matrix(1.00, 0.00, -0.00, -1.00, 398.8, 567.0)">u</text><text xml:space="preserve" font-family="ComicSansMS-Bold" font-weight="bold" font-size="30.0" fill="#A6AAA8" transform="matrix(1.00, 0.00, -0.00, -1.00, 414.4, 567.0)">n</text><text xml:space="preserve" font-family="ComicSansMS-Bold" font-weight="bold" font-size="30.0" fill="#A6AAA8" transform="matrix(1.00, 0.00, -0.00, -1.00, 430.1, 567.0)">s</text><text xml:space="preserve" font-family="ComicSansMS-Bold" font-weight="bold" font-size="30.0" fill="#A6AAA8" transform="matrix(1.00, 0.00, -0.00, -1.00, 444.7, 567.0)">t</text><text xml:space="preserve" font-family="ComicSansMS-Bold" font-weight="bold" font-size="30.0" fill="#A6AAA8" transform="matrix(1.00, 0.00, -0.00, -1.00, 458.9, 567.0)">a</text><text xml:space="preserve" font-family="ComicSansMS-Bold" font-weight="bold" font-size="30.0" fill="#A6AAA8" transform="matrix(1.00, 0.00, -0.00, -1.00, 475.5, 567.0)">b</text><text xml:space="preserve" font-family="ComicSansMS-Bold" font-weight="bold" font-size="30.0" fill="#A6AAA8" transform="matrix(1.00, 0.00, -0.00, -1.00, 493.3, 567.0)">l</text><text xml:space="preserve" font-family="ComicSansMS-Bold" font-weight="bold" font-size="30.0" fill="#A6AAA8" transform="matrix(1.00, 0.00, -0.00, -1.00, 501.6, 567.0)">e</text><text xml:space="preserve" font-family="ComicSansMS-Bold" font-weight="bold" font-size="30.0" fill="#DCDDE0" transform="matrix(1.00, 0.00, -0.00, -1.00, 518.3, 567.0)">,</text><text xml:space="preserve" font-family="ComicSansMS-Bold" font-weight="bold" font-size="30.0" fill="#DCDDE0" transform="matrix(1.00, 0.00, -0.00, -1.00, 531.3, 567.0)"> </text><text xml:space="preserve" font-family="ComicSansMS-Bold" font-weight="bold" font-size="30.0" fill="#DCDDE0" transform="matrix(1.00, 0.00, -0.00, -1.00, 544.3, 567.0)"> </text><text xml:space="preserve" font-family="ComicSansMS-Bold" font-weight="bold" font-size="30.0" fill="#DCDDE0" transform="matrix(1.00, 0.00, -0.00, -1.00, 46.4, 525.3)">2</text><text xml:space="preserve" font-family="ComicSansMS-Bold" font-weight="bold" font-size="30.0" fill="#DCDDE0" transform="matrix(1.00, 0.00, -0.00, -1.00, 64.8, 525.3)">.</text><text xml:space="preserve" font-family="ComicSansMS-Bold" font-weight="bold" font-size="30.0" fill="#DCDDE0" transform="matrix(1.00, 0.00, -0.00, -1.00, 87.0, 525.0)">n</text><text xml:space="preserve" font-family="ComicSansMS-Bold" font-weight="bold" font-size="30.0" fill="#DCDDE0" transform="matrix(1.00, 0.00, -0.00, -1.00, 102.7, 525.0)">o</text><text xml:space="preserve" font-family="ComicSansMS-Bold" font-weight="bold" font-size="30.0" fill="#DCDDE0" transform="matrix(1.00, 0.00, -0.00, -1.00, 118.5, 525.0)"> </text><text xml:space="preserve" font-family="ComicSansMS-Bold" font-weight="bold" font-size="30.0" fill="#A6AAA8" transform="matrix(1.00, 0.00, -0.00, -1.00, 131.5, 525.0)">t</text><text xml:space="preserve" font-family="ComicSansMS-Bold" font-weight="bold" font-size="30.0" fill="#A6AAA8" transform="matrix(1.00, 0.00, -0.00, -1.00, 145.6, 525.0)">e</text><text xml:space="preserve" font-family="ComicSansMS-Bold" font-weight="bold" font-size="30.0" fill="#A6AAA8" transform="matrix(1.00, 0.00, -0.00, -1.00, 162.4, 525.0)">s</text><text xml:space="preserve" font-family="ComicSansMS-Bold" font-weight="bold" font-size="30.0" fill="#A6AAA8" transform="matrix(1.00, 0.00, -0.00, -1.00, 177.0, 525.0)">t</text><text xml:space="preserve" font-family="ComicSansMS-Bold" font-weight="bold" font-size="30.0" fill="#A6AAA8" transform="matrix(1.00, 0.00, -0.00, -1.00, 191.2, 525.0)"> </text><text xml:space="preserve" font-family="ComicSansMS-Bold" font-weight="bold" font-size="30.0" fill="#A6AAA8" transform="matrix(1.00, 0.00, -0.00, -1.00, 204.1, 525.0)">d</text><text xml:space="preserve" font-family="ComicSansMS-Bold" font-weight="bold" font-size="30.0" fill="#A6AAA8" transform="matrix(1.00, 0.00, -0.00, -1.00, 221.8, 525.0)">a</text><text xml:space="preserve" font-family="ComicSansMS-Bold" font-weight="bold" font-size="30.0" fill="#A6AAA8" transform="matrix(1.00, 0.00, -0.00, -1.00, 238.4, 525.0)">t</text><text xml:space="preserve" font-family="ComicSansMS-Bold" font-weight="bold" font-size="30.0" fill="#A6AAA8" transform="matrix(1.00, 0.00, -0.00, -1.00, 252.6, 525.0)">a</text><text xml:space="preserve" font-family="ComicSansMS-Bold" font-weight="bold" font-size="30.0" fill="#A6AAA8" transform="matrix(1.00, 0.00, -0.00, -1.00, 269.2, 525.0)"> </text><text xml:space="preserve" font-family="ComicSansMS-Bold" font-weight="bold" font-size="30.0" fill="#A6AAA8" transform="matrix(1.00, 0.00, -0.00, -1.00, 282.2, 525.0)">s</text><text xml:space="preserve" font-family="ComicSansMS-Bold" font-weight="bold" font-size="30.0" fill="#A6AAA8" transform="matrix(1.00, 0.00, -0.00, -1.00, 296.8, 525.0)">e</text><text xml:space="preserve" font-family="ComicSansMS-Bold" font-weight="bold" font-size="30.0" fill="#A6AAA8" transform="matrix(1.00, 0.00, -0.00, -1.00, 313.6, 525.0)">r</text><text xml:space="preserve" font-family="ComicSansMS-Bold" font-weight="bold" font-size="30.0" fill="#A6AAA8" transform="matrix(1.00, 0.00, -0.00, -1.00, 328.0, 525.0)">v</text><text xml:space="preserve" font-family="ComicSansMS-Bold" font-weight="bold" font-size="30.0" fill="#A6AAA8" transform="matrix(1.00, 0.00, -0.00, -1.00, 342.6, 525.0)">e</text><text xml:space="preserve" font-family="ComicSansMS-Bold" font-weight="bold" font-size="30.0" fill="#A6AAA8" transform="matrix(1.00, 0.00, -0.00, -1.00, 359.4, 525.0)">r</text><text xml:space="preserve" font-family="ComicSansMS-Bold" font-weight="bold" font-size="30.0" fill="#DCDDE0" transform="matrix(1.00, 0.00, -0.00, -1.00, 373.8, 525.0)"> </text><text xml:space="preserve" font-family="ComicSansMS-Bold" font-weight="bold" font-size="30.0" fill="#DCDDE0" transform="matrix(1.00, 0.00, -0.00, -1.00, 386.8, 525.0)"> </text><text xml:space="preserve" font-family="ComicSansMS-Bold" font-weight="bold" font-size="30.0" fill="#DCDDE0" transform="matrix(1.00, 0.00, -0.00, -1.00, 46.4, 483.3)">3</text><text xml:space="preserve" font-family="ComicSansMS-Bold" font-weight="bold" font-size="30.0" fill="#DCDDE0" transform="matrix(1.00, 0.00, -0.00, -1.00, 64.8, 483.3)">.</text><text xml:space="preserve" font-family="ComicSansMS-Bold" font-weight="bold" font-size="30.0" fill="#A6AAA8" transform="matrix(1.00, 0.00, -0.00, -1.00, 87.0, 483.0)">s</text><text xml:space="preserve" font-family="ComicSansMS-Bold" font-weight="bold" font-size="30.0" fill="#A6AAA8" transform="matrix(1.00, 0.00, -0.00, -1.00, 101.6, 483.0)">h</text><text xml:space="preserve" font-family="ComicSansMS-Bold" font-weight="bold" font-size="30.0" fill="#A6AAA8" transform="matrix(1.00, 0.00, -0.00, -1.00, 118.9, 483.0)">a</text><text xml:space="preserve" font-family="ComicSansMS-Bold" font-weight="bold" font-size="30.0" fill="#A6AAA8" transform="matrix(1.00, 0.00, -0.00, -1.00, 135.6, 483.0)">r</text><text xml:space="preserve" font-family="ComicSansMS-Bold" font-weight="bold" font-size="30.0" fill="#A6AAA8" transform="matrix(1.00, 0.00, -0.00, -1.00, 150.0, 483.0)">e</text><text xml:space="preserve" font-family="ComicSansMS-Bold" font-weight="bold" font-size="30.0" fill="#A6AAA8" transform="matrix(1.00, 0.00, -0.00, -1.00, 166.8, 483.0)">d</text><text xml:space="preserve" font-family="ComicSansMS-Bold" font-weight="bold" font-size="30.0" fill="#A6AAA8" transform="matrix(1.00, 0.00, -0.00, -1.00, 184.4, 483.0)"> </text><text xml:space="preserve" font-family="ComicSansMS-Bold" font-weight="bold" font-size="30.0" fill="#A6AAA8" transform="matrix(1.00, 0.00, -0.00, -1.00, 197.4, 483.0)">c</text><text xml:space="preserve" font-family="ComicSansMS-Bold" font-weight="bold" font-size="30.0" fill="#A6AAA8" transform="matrix(1.00, 0.00, -0.00, -1.00, 212.8, 483.0)">o</text><text xml:space="preserve" font-family="ComicSansMS-Bold" font-weight="bold" font-size="30.0" fill="#A6AAA8" transform="matrix(1.00, 0.00, -0.00, -1.00, 228.6, 483.0)">d</text><text xml:space="preserve" font-family="ComicSansMS-Bold" font-weight="bold" font-size="30.0" fill="#A6AAA8" transform="matrix(1.00, 0.00, -0.00, -1.00, 246.3, 483.0)">e</text><text xml:space="preserve" font-family="ComicSansMS-Bold" font-weight="bold" font-size="30.0" fill="#A6AAA8" transform="matrix(1.00, 0.00, -0.00, -1.00, 263.0, 483.0)">b</text><text xml:space="preserve" font-family="ComicSansMS-Bold" font-weight="bold" font-size="30.0" fill="#A6AAA8" transform="matrix(1.00, 0.00, -0.00, -1.00, 280.8, 483.0)">a</text><text xml:space="preserve" font-family="ComicSansMS-Bold" font-weight="bold" font-size="30.0" fill="#A6AAA8" transform="matrix(1.00, 0.00, -0.00, -1.00, 297.5, 483.0)">s</text><text xml:space="preserve" font-family="ComicSansMS-Bold" font-weight="bold" font-size="30.0" fill="#A6AAA8" transform="matrix(1.00, 0.00, -0.00, -1.00, 312.1, 483.0)">e</text><text xml:space="preserve" font-family="ComicSansMS-Bold" font-weight="bold" font-size="30.0" fill="#DCDDE0" transform="matrix(1.00, 0.00, -0.00, -1.00, 328.8, 483.0)"> </text><text xml:space="preserve" font-family="ComicSansMS-Bold" font-weight="bold" font-size="30.0" fill="#DCDDE0" transform="matrix(1.00, 0.00, -0.00, -1.00, 341.8, 483.0)">b</text><text xml:space="preserve" font-family="ComicSansMS-Bold" font-weight="bold" font-size="30.0" fill="#DCDDE0" transform="matrix(1.00, 0.00, -0.00, -1.00, 359.7, 483.0)">e</text><text xml:space="preserve" font-family="ComicSansMS-Bold" font-weight="bold" font-size="30.0" fill="#DCDDE0" transform="matrix(1.00, 0.00, -0.00, -1.00, 376.4, 483.0)">t</text><text xml:space="preserve" font-family="ComicSansMS-Bold" font-weight="bold" font-size="30.0" fill="#DCDDE0" transform="matrix(1.00, 0.00, -0.00, -1.00, 390.6, 483.0)">w</text><text xml:space="preserve" font-family="ComicSansMS-Bold" font-weight="bold" font-size="30.0" fill="#DCDDE0" transform="matrix(1.00, 0.00, -0.00, -1.00, 411.1, 483.0)">e</text><text xml:space="preserve" font-family="ComicSansMS-Bold" font-weight="bold" font-size="30.0" fill="#DCDDE0" transform="matrix(1.00, 0.00, -0.00, -1.00, 427.9, 483.0)">e</text><text xml:space="preserve" font-family="ComicSansMS-Bold" font-weight="bold" font-size="30.0" fill="#DCDDE0" transform="matrix(1.00, 0.00, -0.00, -1.00, 444.7, 483.0)">n</text><text xml:space="preserve" font-family="ComicSansMS-Bold" font-weight="bold" font-size="30.0" fill="#DCDDE0" transform="matrix(1.00, 0.00, -0.00, -1.00, 460.4, 483.0)"> </text><text xml:space="preserve" font-family="ComicSansMS-Bold" font-weight="bold" font-size="30.0" fill="#DCDDE0" transform="matrix(1.00, 0.00, -0.00, -1.00, 473.4, 483.0)">B</text><text xml:space="preserve" font-family="ComicSansMS-Bold" font-weight="bold" font-size="30.0" fill="#DCDDE0" transform="matrix(1.00, 0.00, -0.00, -1.00, 492.4, 483.0)">i</text><text xml:space="preserve" font-family="ComicSansMS-Bold" font-weight="bold" font-size="30.0" fill="#DCDDE0" transform="matrix(1.00, 0.00, -0.00, -1.00, 500.8, 483.0)">g</text><text xml:space="preserve" font-family="ComicSansMS-Bold" font-weight="bold" font-size="30.0" fill="#DCDDE0" transform="matrix(1.00, 0.00, -0.00, -1.00, 516.7, 483.0)">W</text><text xml:space="preserve" font-family="ComicSansMS-Bold" font-weight="bold" font-size="30.0" fill="#DCDDE0" transform="matrix(1.00, 0.00, -0.00, -1.00, 547.9, 483.0)">e</text><text xml:space="preserve" font-family="ComicSansMS-Bold" font-weight="bold" font-size="30.0" fill="#DCDDE0" transform="matrix(1.00, 0.00, -0.00, -1.00, 564.7, 483.0)">b</text><text xml:space="preserve" font-family="ComicSansMS-Bold" font-weight="bold" font-size="30.0" fill="#DCDDE0" transform="matrix(1.00, 0.00, -0.00, -1.00, 582.5, 483.0)"> </text><text xml:space="preserve" font-family="ComicSansMS-Bold" font-weight="bold" font-size="30.0" fill="#DCDDE0" transform="matrix(1.00, 0.00, -0.00, -1.00, 595.5, 483.0)">a</text><text xml:space="preserve" font-family="ComicSansMS-Bold" font-weight="bold" font-size="30.0" fill="#DCDDE0" transform="matrix(1.00, 0.00, -0.00, -1.00, 612.1, 483.0)">n</text><text xml:space="preserve" font-family="ComicSansMS-Bold" font-weight="bold" font-size="30.0" fill="#DCDDE0" transform="matrix(1.00, 0.00, -0.00, -1.00, 627.9, 483.0)">d</text><text xml:space="preserve" font-family="ComicSansMS-Bold" font-weight="bold" font-size="30.0" fill="#DCDDE0" transform="matrix(1.00, 0.00, -0.00, -1.00, 645.5, 483.0)"> </text><text xml:space="preserve" font-family="ComicSansMS-Bold" font-weight="bold" font-size="30.0" fill="#DCDDE0" transform="matrix(1.00, 0.00, -0.00, -1.00, 658.5, 483.0)">m</text><text xml:space="preserve" font-family="ComicSansMS-Bold" font-weight="bold" font-size="30.0" fill="#DCDDE0" transform="matrix(1.00, 0.00, -0.00, -1.00, 681.8, 483.0)">o</text><text xml:space="preserve" font-family="ComicSansMS-Bold" font-weight="bold" font-size="30.0" fill="#DCDDE0" transform="matrix(1.00, 0.00, -0.00, -1.00, 697.6, 483.0)">b</text><text xml:space="preserve" font-family="ComicSansMS-Bold" font-weight="bold" font-size="30.0" fill="#DCDDE0" transform="matrix(1.00, 0.00, -0.00, -1.00, 715.4, 483.0)">i</text><text xml:space="preserve" font-family="ComicSansMS-Bold" font-weight="bold" font-size="30.0" fill="#DCDDE0" transform="matrix(1.00, 0.00, -0.00, -1.00, 723.8, 483.0)">l</text><text xml:space="preserve" font-family="ComicSansMS-Bold" font-weight="bold" font-size="30.0" fill="#DCDDE0" transform="matrix(1.00, 0.00, -0.00, -1.00, 732.0, 483.0)">e</text><text xml:space="preserve" font-family="ComicSansMS-Bold" font-weight="bold" font-size="30.0" fill="#DCDDE0" transform="matrix(1.00, 0.00, -0.00, -1.00, 748.8, 483.0)"> </text><text xml:space="preserve" font-family="ComicSansMS-Bold" font-weight="bold" font-size="30.0" fill="#DCDDE0" transform="matrix(1.00, 0.00, -0.00, -1.00, 761.8, 483.0)">s</text><text xml:space="preserve" font-family="ComicSansMS-Bold" font-weight="bold" font-size="30.0" fill="#DCDDE0" transform="matrix(1.00, 0.00, -0.00, -1.00, 776.4, 483.0)">p</text><text xml:space="preserve" font-family="ComicSansMS-Bold" font-weight="bold" font-size="30.0" fill="#DCDDE0" transform="matrix(1.00, 0.00, -0.00, -1.00, 792.4, 483.0)">e</text><text xml:space="preserve" font-family="ComicSansMS-Bold" font-weight="bold" font-size="30.0" fill="#DCDDE0" transform="matrix(1.00, 0.00, -0.00, -1.00, 809.2, 483.0)">c</text><text xml:space="preserve" font-family="ComicSansMS-Bold" font-weight="bold" font-size="30.0" fill="#DCDDE0" transform="matrix(1.00, 0.00, -0.00, -1.00, 824.6, 483.0)">s</text><text xml:space="preserve" font-family="ComicSansMS-Bold" font-weight="bold" font-size="30.0" fill="#DCDDE0" transform="matrix(1.00, 0.00, -0.00, -1.00, 839.2, 483.0)"> </text><text xml:space="preserve" font-family="ComicSansMS-Bold" font-weight="bold" font-size="30.0" fill="#A6AAA8" transform="matrix(1.00, 0.00, -0.00, -1.00, 46.4, 441.3)">4</text><text xml:space="preserve" font-family="ComicSansMS-Bold" font-weight="bold" font-size="30.0" fill="#A6AAA8" transform="matrix(1.00, 0.00, -0.00, -1.00, 64.8, 441.3)">.</text><text xml:space="preserve" font-family="ComicSansMS-Bold" font-weight="bold" font-size="30.0" fill="#A6AAA8" transform="matrix(1.00, 0.00, -0.00, -1.00, 87.0, 441.0)">D</text><text xml:space="preserve" font-family="ComicSansMS-Bold" font-weight="bold" font-size="30.0" fill="#A6AAA8" transform="matrix(1.00, 0.00, -0.00, -1.00, 108.6, 441.0)">e</text><text xml:space="preserve" font-family="ComicSansMS-Bold" font-weight="bold" font-size="30.0" fill="#A6AAA8" transform="matrix(1.00, 0.00, -0.00, -1.00, 125.4, 441.0)">v</text><text xml:space="preserve" font-family="ComicSansMS-Bold" font-weight="bold" font-size="30.0" fill="#A6AAA8" transform="matrix(1.00, 0.00, -0.00, -1.00, 140.0, 441.0)"> </text><text xml:space="preserve" font-family="ComicSansMS-Bold" font-weight="bold" font-size="30.0" fill="#A6AAA8" transform="matrix(1.00, 0.00, -0.00, -1.00, 153.0, 441.0)">b</text><text xml:space="preserve" font-family="ComicSansMS-Bold" font-weight="bold" font-size="30.0" fill="#A6AAA8" transform="matrix(1.00, 0.00, -0.00, -1.00, 170.8, 441.0)">o</text><text xml:space="preserve" font-family="ComicSansMS-Bold" font-weight="bold" font-size="30.0" fill="#A6AAA8" transform="matrix(1.00, 0.00, -0.00, -1.00, 186.6, 441.0)">x</text><text xml:space="preserve" font-family="ComicSansMS-Bold" font-weight="bold" font-size="30.0" fill="#A6AAA8" transform="matrix(1.00, 0.00, -0.00, -1.00, 204.3, 441.0)"> </text><text xml:space="preserve" font-family="ComicSansMS-Bold" font-weight="bold" font-size="30.0" fill="#A6AAA8" transform="matrix(1.00, 0.00, -0.00, -1.00, 217.3, 441.0)">t</text><text xml:space="preserve" font-family="ComicSansMS-Bold" font-weight="bold" font-size="30.0" fill="#A6AAA8" transform="matrix(1.00, 0.00, -0.00, -1.00, 231.5, 441.0)">e</text><text xml:space="preserve" font-family="ComicSansMS-Bold" font-weight="bold" font-size="30.0" fill="#A6AAA8" transform="matrix(1.00, 0.00, -0.00, -1.00, 248.3, 441.0)">s</text><text xml:space="preserve" font-family="ComicSansMS-Bold" font-weight="bold" font-size="30.0" fill="#A6AAA8" transform="matrix(1.00, 0.00, -0.00, -1.00, 262.8, 441.0)">t</text><text xml:space="preserve" font-family="ComicSansMS-Bold" font-weight="bold" font-size="30.0" fill="#A6AAA8" transform="matrix(1.00, 0.00, -0.00, -1.00, 277.0, 441.0)">i</text><text xml:space="preserve" font-family="ComicSansMS-Bold" font-weight="bold" font-size="30.0" fill="#A6AAA8" transform="matrix(1.00, 0.00, -0.00, -1.00, 285.4, 441.0)">n</text><text xml:space="preserve" font-family="ComicSansMS-Bold" font-weight="bold" font-size="30.0" fill="#A6AAA8" transform="matrix(1.00, 0.00, -0.00, -1.00, 301.2, 441.0)">g</text><text xml:space="preserve" font-family="ComicSansMS-Bold" font-weight="bold" font-size="30.0" fill="#A6AAA8" transform="matrix(1.00, 0.00, -0.00, -1.00, 317.1, 441.0)"> </text><text xml:space="preserve" font-family="ComicSansMS-Bold" font-weight="bold" font-size="30.0" fill="#A6AAA8" transform="matrix(1.00, 0.00, -0.00, -1.00, 46.4, 399.3)">5</text><text xml:space="preserve" font-family="ComicSansMS-Bold" font-weight="bold" font-size="30.0" fill="#A6AAA8" transform="matrix(1.00, 0.00, -0.00, -1.00, 64.8, 399.3)">.</text><text xml:space="preserve" font-family="ComicSansMS-Bold" font-weight="bold" font-size="30.0" fill="#A6AAA8" transform="matrix(1.00, 0.00, -0.00, -1.00, 87.0, 399.0)">A</text><text xml:space="preserve" font-family="ComicSansMS-Bold" font-weight="bold" font-size="30.0" fill="#A6AAA8" transform="matrix(1.00, 0.00, -0.00, -1.00, 109.0, 399.0)">u</text><text xml:space="preserve" font-family="ComicSansMS-Bold" font-weight="bold" font-size="30.0" fill="#A6AAA8" transform="matrix(1.00, 0.00, -0.00, -1.00, 124.6, 399.0)">t</text><text xml:space="preserve" font-family="ComicSansMS-Bold" font-weight="bold" font-size="30.0" fill="#A6AAA8" transform="matrix(1.00, 0.00, -0.00, -1.00, 138.7, 399.0)">o</text><text xml:space="preserve" font-family="ComicSansMS-Bold" font-weight="bold" font-size="30.0" fill="#A6AAA8" transform="matrix(1.00, 0.00, -0.00, -1.00, 154.5, 399.0)"> </text><text xml:space="preserve" font-family="ComicSansMS-Bold" font-weight="bold" font-size="30.0" fill="#A6AAA8" transform="matrix(1.00, 0.00, -0.00, -1.00, 167.5, 399.0)">d</text><text xml:space="preserve" font-family="ComicSansMS-Bold" font-weight="bold" font-size="30.0" fill="#A6AAA8" transform="matrix(1.00, 0.00, -0.00, -1.00, 185.1, 399.0)">e</text><text xml:space="preserve" font-family="ComicSansMS-Bold" font-weight="bold" font-size="30.0" fill="#A6AAA8" transform="matrix(1.00, 0.00, -0.00, -1.00, 201.9, 399.0)">p</text><text xml:space="preserve" font-family="ComicSansMS-Bold" font-weight="bold" font-size="30.0" fill="#A6AAA8" transform="matrix(1.00, 0.00, -0.00, -1.00, 217.9, 399.0)">l</text><text xml:space="preserve" font-family="ComicSansMS-Bold" font-weight="bold" font-size="30.0" fill="#A6AAA8" transform="matrix(1.00, 0.00, -0.00, -1.00, 226.1, 399.0)">o</text><text xml:space="preserve" font-family="ComicSansMS-Bold" font-weight="bold" font-size="30.0" fill="#A6AAA8" transform="matrix(1.00, 0.00, -0.00, -1.00, 241.9, 399.0)">y</text><text xml:space="preserve" font-family="ComicSansMS-Bold" font-weight="bold" font-size="30.0" fill="#A6AAA8" transform="matrix(1.00, 0.00, -0.00, -1.00, 258.5, 399.0)"> </text><text xml:space="preserve" font-family="ComicSansMS-Bold" font-weight="bold" font-size="30.0" fill="#A6AAA8" transform="matrix(1.00, 0.00, -0.00, -1.00, 271.5, 399.0)">s</text><text xml:space="preserve" font-family="ComicSansMS-Bold" font-weight="bold" font-size="30.0" fill="#A6AAA8" transform="matrix(1.00, 0.00, -0.00, -1.00, 286.1, 399.0)">c</text><text xml:space="preserve" font-family="ComicSansMS-Bold" font-weight="bold" font-size="30.0" fill="#A6AAA8" transform="matrix(1.00, 0.00, -0.00, -1.00, 301.5, 399.0)">r</text><text xml:space="preserve" font-family="ComicSansMS-Bold" font-weight="bold" font-size="30.0" fill="#A6AAA8" transform="matrix(1.00, 0.00, -0.00, -1.00, 315.9, 399.0)">i</text><text xml:space="preserve" font-family="ComicSansMS-Bold" font-weight="bold" font-size="30.0" fill="#A6AAA8" transform="matrix(1.00, 0.00, -0.00, -1.00, 324.3, 399.0)">p</text><text xml:space="preserve" font-family="ComicSansMS-Bold" font-weight="bold" font-size="30.0" fill="#A6AAA8" transform="matrix(1.00, 0.00, -0.00, -1.00, 340.3, 399.0)">t</text><text xml:space="preserve" font-family="ComicSansMS-Bold" font-weight="bold" font-size="30.0" fill="#A6AAA8" transform="matrix(1.00, 0.00, -0.00, -1.00, 354.5, 399.0)">s</text><text xml:space="preserve" font-family="ComicSansMS-Bold" font-weight="bold" font-size="30.0" fill="#A6AAA8" transform="matrix(1.00, 0.00, -0.00, -1.00, 369.1, 399.0)"> </text><text xml:space="preserve" font-family="ComicSansMS-Bold" font-weight="bold" font-size="30.0" fill="#DCDDE0" transform="matrix(1.00, 0.00, -0.00, -1.00, 46.4, 357.3)">6</text><text xml:space="preserve" font-family="ComicSansMS-Bold" font-weight="bold" font-size="30.0" fill="#DCDDE0" transform="matrix(1.00, 0.00, -0.00, -1.00, 64.8, 357.3)">.</text><text xml:space="preserve" font-family="ComicSansMS-Bold" font-weight="bold" font-size="30.0" fill="#A6AAA8" transform="matrix(1.00, 0.00, -0.00, -1.00, 87.0, 357.0)">F</text><text xml:space="preserve" font-family="ComicSansMS-Bold" font-weight="bold" font-size="30.0" fill="#A6AAA8" transform="matrix(1.00, 0.00, -0.00, -1.00, 105.2, 357.0)">e</text><text xml:space="preserve" font-family="ComicSansMS-Bold" font-weight="bold" font-size="30.0" fill="#A6AAA8" transform="matrix(1.00, 0.00, -0.00, -1.00, 122.0, 357.0)">a</text><text xml:space="preserve" font-family="ComicSansMS-Bold" font-weight="bold" font-size="30.0" fill="#A6AAA8" transform="matrix(1.00, 0.00, -0.00, -1.00, 138.6, 357.0)">t</text><text xml:space="preserve" font-family="ComicSansMS-Bold" font-weight="bold" font-size="30.0" fill="#A6AAA8" transform="matrix(1.00, 0.00, -0.00, -1.00, 152.8, 357.0)">u</text><text xml:space="preserve" font-family="ComicSansMS-Bold" font-weight="bold" font-size="30.0" fill="#A6AAA8" transform="matrix(1.00, 0.00, -0.00, -1.00, 168.4, 357.0)">r</text><text xml:space="preserve" font-family="ComicSansMS-Bold" font-weight="bold" font-size="30.0" fill="#A6AAA8" transform="matrix(1.00, 0.00, -0.00, -1.00, 182.8, 357.0)">e</text><text xml:space="preserve" font-family="ComicSansMS-Bold" font-weight="bold" font-size="30.0" fill="#A6AAA8" transform="matrix(1.00, 0.00, -0.00, -1.00, 199.6, 357.0)"> </text><text xml:space="preserve" font-family="ComicSansMS-Bold" font-weight="bold" font-size="30.0" fill="#A6AAA8" transform="matrix(1.00, 0.00, -0.00, -1.00, 212.6, 357.0)">f</text><text xml:space="preserve" font-family="ComicSansMS-Bold" font-weight="bold" font-size="30.0" fill="#A6AAA8" transform="matrix(1.00, 0.00, -0.00, -1.00, 227.8, 357.0)">i</text><text xml:space="preserve" font-family="ComicSansMS-Bold" font-weight="bold" font-size="30.0" fill="#A6AAA8" transform="matrix(1.00, 0.00, -0.00, -1.00, 236.3, 357.0)">l</text><text xml:space="preserve" font-family="ComicSansMS-Bold" font-weight="bold" font-size="30.0" fill="#A6AAA8" transform="matrix(1.00, 0.00, -0.00, -1.00, 244.5, 357.0)">e</text><text xml:space="preserve" font-family="ComicSansMS-Bold" font-weight="bold" font-size="30.0" fill="#A6AAA8" transform="matrix(1.00, 0.00, -0.00, -1.00, 261.2, 357.0)">s</text><text xml:space="preserve" font-family="ComicSansMS-Bold" font-weight="bold" font-size="30.0" fill="#DCDDE0" transform="matrix(1.00, 0.00, -0.00, -1.00, 275.8, 357.0)"> </text><text xml:space="preserve" font-family="ComicSansMS-Bold" font-weight="bold" font-size="30.0" fill="#DCDDE0" transform="matrix(1.00, 0.00, -0.00, -1.00, 288.8, 357.0)">g</text><text xml:space="preserve" font-family="ComicSansMS-Bold" font-weight="bold" font-size="30.0" fill="#DCDDE0" transform="matrix(1.00, 0.00, -0.00, -1.00, 304.7, 357.0)">r</text><text xml:space="preserve" font-family="ComicSansMS-Bold" font-weight="bold" font-size="30.0" fill="#DCDDE0" transform="matrix(1.00, 0.00, -0.00, -1.00, 319.2, 357.0)">o</text><text xml:space="preserve" font-family="ComicSansMS-Bold" font-weight="bold" font-size="30.0" fill="#DCDDE0" transform="matrix(1.00, 0.00, -0.00, -1.00, 334.9, 357.0)">o</text><text xml:space="preserve" font-family="ComicSansMS-Bold" font-weight="bold" font-size="30.0" fill="#DCDDE0" transform="matrix(1.00, 0.00, -0.00, -1.00, 350.7, 357.0)">m</text><text xml:space="preserve" font-family="ComicSansMS-Bold" font-weight="bold" font-size="30.0" fill="#DCDDE0" transform="matrix(1.00, 0.00, -0.00, -1.00, 374.0, 357.0)">i</text><text xml:space="preserve" font-family="ComicSansMS-Bold" font-weight="bold" font-size="30.0" fill="#DCDDE0" transform="matrix(1.00, 0.00, -0.00, -1.00, 382.4, 357.0)">n</text><text xml:space="preserve" font-family="ComicSansMS-Bold" font-weight="bold" font-size="30.0" fill="#DCDDE0" transform="matrix(1.00, 0.00, -0.00, -1.00, 398.1, 357.0)">g</text><text xml:space="preserve" font-family="ComicSansMS-Bold" font-weight="bold" font-size="30.0" fill="#DCDDE0" transform="matrix(1.00, 0.00, -0.00, -1.00, 414.1, 357.0)"> </text><text xml:space="preserve" font-family="ComicSansMS-Bold" font-weight="bold" font-size="30.0" fill="#DCDDE0" transform="matrix(1.00, 0.00, -0.00, -1.00, 46.4, 315.3)">7</text><text xml:space="preserve" font-family="ComicSansMS-Bold" font-weight="bold" font-size="30.0" fill="#DCDDE0" transform="matrix(1.00, 0.00, -0.00, -1.00, 64.8, 315.3)">.</text><text xml:space="preserve" font-family="ComicSansMS-Bold" font-weight="bold" font-size="30.0" fill="#DCDDE0" transform="matrix(1.00, 0.00, -0.00, -1.00, 87.0, 315.0)">C</text><text xml:space="preserve" font-family="ComicSansMS-Bold" font-weight="bold" font-size="30.0" fill="#DCDDE0" transform="matrix(1.00, 0.00, -0.00, -1.00, 105.6, 315.0)">o</text><text xml:space="preserve" font-family="ComicSansMS-Bold" font-weight="bold" font-size="30.0" fill="#DCDDE0" transform="matrix(1.00, 0.00, -0.00, -1.00, 121.3, 315.0)">n</text><text xml:space="preserve" font-family="ComicSansMS-Bold" font-weight="bold" font-size="30.0" fill="#DCDDE0" transform="matrix(1.00, 0.00, -0.00, -1.00, 137.0, 315.0)">v</text><text xml:space="preserve" font-family="ComicSansMS-Bold" font-weight="bold" font-size="30.0" fill="#DCDDE0" transform="matrix(1.00, 0.00, -0.00, -1.00, 151.6, 315.0)">e</text><text xml:space="preserve" font-family="ComicSansMS-Bold" font-weight="bold" font-size="30.0" fill="#DCDDE0" transform="matrix(1.00, 0.00, -0.00, -1.00, 168.4, 315.0)">r</text><text xml:space="preserve" font-family="ComicSansMS-Bold" font-weight="bold" font-size="30.0" fill="#DCDDE0" transform="matrix(1.00, 0.00, -0.00, -1.00, 182.8, 315.0)">t</text><text xml:space="preserve" font-family="ComicSansMS-Bold" font-weight="bold" font-size="30.0" fill="#DCDDE0" transform="matrix(1.00, 0.00, -0.00, -1.00, 197.0, 315.0)"> </text><text xml:space="preserve" font-family="ComicSansMS-Bold" font-weight="bold" font-size="30.0" fill="#DCDDE0" transform="matrix(1.00, 0.00, -0.00, -1.00, 210.0, 315.0)">a</text><text xml:space="preserve" font-family="ComicSansMS-Bold" font-weight="bold" font-size="30.0" fill="#DCDDE0" transform="matrix(1.00, 0.00, -0.00, -1.00, 226.6, 315.0)">c</text><text xml:space="preserve" font-family="ComicSansMS-Bold" font-weight="bold" font-size="30.0" fill="#DCDDE0" transform="matrix(1.00, 0.00, -0.00, -1.00, 242.0, 315.0)">c</text><text xml:space="preserve" font-family="ComicSansMS-Bold" font-weight="bold" font-size="30.0" fill="#DCDDE0" transform="matrix(1.00, 0.00, -0.00, -1.00, 257.4, 315.0)">e</text><text xml:space="preserve" font-family="ComicSansMS-Bold" font-weight="bold" font-size="30.0" fill="#DCDDE0" transform="matrix(1.00, 0.00, -0.00, -1.00, 274.2, 315.0)">p</text><text xml:space="preserve" font-family="ComicSansMS-Bold" font-weight="bold" font-size="30.0" fill="#DCDDE0" transform="matrix(1.00, 0.00, -0.00, -1.00, 290.2, 315.0)">t</text><text xml:space="preserve" font-family="ComicSansMS-Bold" font-weight="bold" font-size="30.0" fill="#DCDDE0" transform="matrix(1.00, 0.00, -0.00, -1.00, 304.4, 315.0)">a</text><text xml:space="preserve" font-family="ComicSansMS-Bold" font-weight="bold" font-size="30.0" fill="#DCDDE0" transform="matrix(1.00, 0.00, -0.00, -1.00, 321.1, 315.0)">n</text><text xml:space="preserve" font-family="ComicSansMS-Bold" font-weight="bold" font-size="30.0" fill="#DCDDE0" transform="matrix(1.00, 0.00, -0.00, -1.00, 336.8, 315.0)">c</text><text xml:space="preserve" font-family="ComicSansMS-Bold" font-weight="bold" font-size="30.0" fill="#DCDDE0" transform="matrix(1.00, 0.00, -0.00, -1.00, 352.2, 315.0)">e</text><text xml:space="preserve" font-family="ComicSansMS-Bold" font-weight="bold" font-size="30.0" fill="#DCDDE0" transform="matrix(1.00, 0.00, -0.00, -1.00, 368.9, 315.0)"> </text><text xml:space="preserve" font-family="ComicSansMS-Bold" font-weight="bold" font-size="30.0" fill="#DCDDE0" transform="matrix(1.00, 0.00, -0.00, -1.00, 381.9, 315.0)">t</text><text xml:space="preserve" font-family="ComicSansMS-Bold" font-weight="bold" font-size="30.0" fill="#DCDDE0" transform="matrix(1.00, 0.00, -0.00, -1.00, 396.1, 315.0)">e</text><text xml:space="preserve" font-family="ComicSansMS-Bold" font-weight="bold" font-size="30.0" fill="#DCDDE0" transform="matrix(1.00, 0.00, -0.00, -1.00, 412.9, 315.0)">s</text><text xml:space="preserve" font-family="ComicSansMS-Bold" font-weight="bold" font-size="30.0" fill="#DCDDE0" transform="matrix(1.00, 0.00, -0.00, -1.00, 427.5, 315.0)">t</text><text xml:space="preserve" font-family="ComicSansMS-Bold" font-weight="bold" font-size="30.0" fill="#DCDDE0" transform="matrix(1.00, 0.00, -0.00, -1.00, 441.6, 315.0)">s</text><text xml:space="preserve" font-family="ComicSansMS-Bold" font-weight="bold" font-size="30.0" fill="#DCDDE0" transform="matrix(1.00, 0.00, -0.00, -1.00, 456.2, 315.0)"> </text><text xml:space="preserve" font-family="ComicSansMS-Bold" font-weight="bold" font-size="30.0" fill="#DCDDE0" transform="matrix(1.00, 0.00, -0.00, -1.00, 469.2, 315.0)">t</text><text xml:space="preserve" font-family="ComicSansMS-Bold" font-weight="bold" font-size="30.0" fill="#DCDDE0" transform="matrix(1.00, 0.00, -0.00, -1.00, 483.3, 315.0)">o</text><text xml:space="preserve" font-family="ComicSansMS-Bold" font-weight="bold" font-size="30.0" fill="#DCDDE0" transform="matrix(1.00, 0.00, -0.00, -1.00, 499.1, 315.0)"> </text><text xml:space="preserve" font-family="ComicSansMS-Bold" font-weight="bold" font-size="30.0" fill="#DCDDE0" transform="matrix(1.00, 0.00, -0.00, -1.00, 512.1, 315.0)">f</text><text xml:space="preserve" font-family="ComicSansMS-Bold" font-weight="bold" font-size="30.0" fill="#DCDDE0" transform="matrix(1.00, 0.00, -0.00, -1.00, 527.4, 315.0)">e</text><text xml:space="preserve" font-family="ComicSansMS-Bold" font-weight="bold" font-size="30.0" fill="#DCDDE0" transform="matrix(1.00, 0.00, -0.00, -1.00, 544.1, 315.0)">a</text><text xml:space="preserve" font-family="ComicSansMS-Bold" font-weight="bold" font-size="30.0" fill="#DCDDE0" transform="matrix(1.00, 0.00, -0.00, -1.00, 560.8, 315.0)">t</text><text xml:space="preserve" font-family="ComicSansMS-Bold" font-weight="bold" font-size="30.0" fill="#DCDDE0" transform="matrix(1.00, 0.00, -0.00, -1.00, 574.9, 315.0)">u</text><text xml:space="preserve" font-family="ComicSansMS-Bold" font-weight="bold" font-size="30.0" fill="#DCDDE0" transform="matrix(1.00, 0.00, -0.00, -1.00, 590.5, 315.0)">r</text><text xml:space="preserve" font-family="ComicSansMS-Bold" font-weight="bold" font-size="30.0" fill="#DCDDE0" transform="matrix(1.00, 0.00, -0.00, -1.00, 605.0, 315.0)">e</text><text xml:space="preserve" font-family="ComicSansMS-Bold" font-weight="bold" font-size="30.0" fill="#DCDDE0" transform="matrix(1.00, 0.00, -0.00, -1.00, 621.7, 315.0)"> </text><text xml:space="preserve" font-family="ComicSansMS-Bold" font-weight="bold" font-size="30.0" fill="#DCDDE0" transform="matrix(1.00, 0.00, -0.00, -1.00, 634.7, 315.0)">f</text><text xml:space="preserve" font-family="ComicSansMS-Bold" font-weight="bold" font-size="30.0" fill="#DCDDE0" transform="matrix(1.00, 0.00, -0.00, -1.00, 650.0, 315.0)">i</text><text xml:space="preserve" font-family="ComicSansMS-Bold" font-weight="bold" font-size="30.0" fill="#DCDDE0" transform="matrix(1.00, 0.00, -0.00, -1.00, 658.4, 315.0)">l</text><text xml:space="preserve" font-family="ComicSansMS-Bold" font-weight="bold" font-size="30.0" fill="#DCDDE0" transform="matrix(1.00, 0.00, -0.00, -1.00, 666.6, 315.0)">e</text><text xml:space="preserve" font-family="ComicSansMS-Bold" font-weight="bold" font-size="30.0" fill="#DCDDE0" transform="matrix(1.00, 0.00, -0.00, -1.00, 683.4, 315.0)"> </text><text xml:space="preserve" font-family="ComicSansMS-Bold" font-weight="bold" font-size="30.0" fill="#DCDDE0" transform="matrix(1.00, 0.00, -0.00, -1.00, 696.4, 315.0)">d</text><text xml:space="preserve" font-family="ComicSansMS-Bold" font-weight="bold" font-size="30.0" fill="#DCDDE0" transform="matrix(1.00, 0.00, -0.00, -1.00, 714.0, 315.0)">u</text><text xml:space="preserve" font-family="ComicSansMS-Bold" font-weight="bold" font-size="30.0" fill="#DCDDE0" transform="matrix(1.00, 0.00, -0.00, -1.00, 729.6, 315.0)">r</text><text xml:space="preserve" font-family="ComicSansMS-Bold" font-weight="bold" font-size="30.0" fill="#DCDDE0" transform="matrix(1.00, 0.00, -0.00, -1.00, 744.1, 315.0)">i</text><text xml:space="preserve" font-family="ComicSansMS-Bold" font-weight="bold" font-size="30.0" fill="#DCDDE0" transform="matrix(1.00, 0.00, -0.00, -1.00, 752.5, 315.0)">n</text><text xml:space="preserve" font-family="ComicSansMS-Bold" font-weight="bold" font-size="30.0" fill="#DCDDE0" transform="matrix(1.00, 0.00, -0.00, -1.00, 768.2, 315.0)">g</text><text xml:space="preserve" font-family="ComicSansMS-Bold" font-weight="bold" font-size="30.0" fill="#DCDDE0" transform="matrix(1.00, 0.00, -0.00, -1.00, 784.1, 315.0)"> </text><text xml:space="preserve" font-family="ComicSansMS-Bold" font-weight="bold" font-size="30.0" fill="#A6AAA8" transform="matrix(1.00, 0.00, -0.00, -1.00, 797.1, 315.0)">s</text><text xml:space="preserve" font-family="ComicSansMS-Bold" font-weight="bold" font-size="30.0" fill="#A6AAA8" transform="matrix(1.00, 0.00, -0.00, -1.00, 811.7, 315.0)">p</text><text xml:space="preserve" font-family="ComicSansMS-Bold" font-weight="bold" font-size="30.0" fill="#A6AAA8" transform="matrix(1.00, 0.00, -0.00, -1.00, 827.7, 315.0)">r</text><text xml:space="preserve" font-family="ComicSansMS-Bold" font-weight="bold" font-size="30.0" fill="#A6AAA8" transform="matrix(1.00, 0.00, -0.00, -1.00, 842.2, 315.0)">i</text><text xml:space="preserve" font-family="ComicSansMS-Bold" font-weight="bold" font-size="30.0" fill="#A6AAA8" transform="matrix(1.00, 0.00, -0.00, -1.00, 850.6, 315.0)">n</text><text xml:space="preserve" font-family="ComicSansMS-Bold" font-weight="bold" font-size="30.0" fill="#A6AAA8" transform="matrix(1.00, 0.00, -0.00, -1.00, 866.3, 315.0)">g</text><text xml:space="preserve" font-family="ComicSansMS-Bold" font-weight="bold" font-size="30.0" fill="#A6AAA8" transform="matrix(1.00, 0.00, -0.00, -1.00, 882.2, 315.0)"> </text><text xml:space="preserve" font-family="ComicSansMS-Bold" font-weight="bold" font-size="30.0" fill="#A6AAA8" transform="matrix(1.00, 0.00, -0.00, -1.00, 895.2, 315.0)">p</text><text xml:space="preserve" font-family="ComicSansMS-Bold" font-weight="bold" font-size="30.0" fill="#A6AAA8" transform="matrix(1.00, 0.00, -0.00, -1.00, 911.3, 315.0)">l</text><text xml:space="preserve" font-family="ComicSansMS-Bold" font-weight="bold" font-size="30.0" fill="#A6AAA8" transform="matrix(1.00, 0.00, -0.00, -1.00, 919.5, 315.0)">a</text><text xml:space="preserve" font-family="ComicSansMS-Bold" font-weight="bold" font-size="30.0" fill="#A6AAA8" transform="matrix(1.00, 0.00, -0.00, -1.00, 936.2, 315.0)">n</text><text xml:space="preserve" font-family="ComicSansMS-Bold" font-weight="bold" font-size="30.0" fill="#A6AAA8" transform="matrix(1.00, 0.00, -0.00, -1.00, 951.9, 315.0)">n</text><text xml:space="preserve" font-family="ComicSansMS-Bold" font-weight="bold" font-size="30.0" fill="#A6AAA8" transform="matrix(1.00, 0.00, -0.00, -1.00, 967.6, 315.0)">i</text><text xml:space="preserve" font-family="ComicSansMS-Bold" font-weight="bold" font-size="30.0" fill="#A6AAA8" transform="matrix(1.00, 0.00, -0.00, -1.00, 976.0, 315.0)">n</text><text xml:space="preserve" font-family="ComicSansMS-Bold" font-weight="bold" font-size="30.0" fill="#A6AAA8" transform="matrix(1.00, 0.00, -0.00, -1.00, 991.8, 315.0)">g</text><text xml:space="preserve" font-family="ComicSansMS-Bold" font-weight="bold" font-size="30.0" fill="#A6AAA8" transform="matrix(1.00, 0.00, -0.00, -1.00, 1007.7, 315.0)">.</text><text xml:space="preserve" font-family="ComicSansMS-Bold" font-weight="bold" font-size="30.0" fill="#E7A432" transform="matrix(1.00, 0.00, -0.00, -1.00, 34.0, 720.0)">C</text><text xml:space="preserve" font-family="ComicSansMS-Bold" font-weight="bold" font-size="30.0" fill="#E7A432" transform="matrix(1.00, 0.00, -0.00, -1.00, 52.6, 720.0)">l</text><text xml:space="preserve" font-family="ComicSansMS-Bold" font-weight="bold" font-size="30.0" fill="#E7A432" transform="matrix(1.00, 0.00, -0.00, -1.00, 60.8, 720.0)">e</text><text xml:space="preserve" font-family="ComicSansMS-Bold" font-weight="bold" font-size="30.0" fill="#E7A432" transform="matrix(1.00, 0.00, -0.00, -1.00, 77.5, 720.0)">a</text><text xml:space="preserve" font-family="ComicSansMS-Bold" font-weight="bold" font-size="30.0" fill="#E7A432" transform="matrix(1.00, 0.00, -0.00, -1.00, 94.2, 720.0)">r</text><text xml:space="preserve" font-family="ComicSansMS-Bold" font-weight="bold" font-size="30.0" fill="#E7A432" transform="matrix(1.00, 0.00, -0.00, -1.00, 108.6, 720.0)">i</text><text xml:space="preserve" font-family="ComicSansMS-Bold" font-weight="bold" font-size="30.0" fill="#E7A432" transform="matrix(1.00, 0.00, -0.00, -1.00, 117.0, 720.0)">n</text><text xml:space="preserve" font-family="ComicSansMS-Bold" font-weight="bold" font-size="30.0" fill="#E7A432" transform="matrix(1.00, 0.00, -0.00, -1.00, 132.8, 720.0)">g</text><text xml:space="preserve" font-family="ComicSansMS-Bold" font-weight="bold" font-size="30.0" fill="#E7A432" transform="matrix(1.00, 0.00, -0.00, -1.00, 148.7, 720.0)"> </text><text xml:space="preserve" font-family="ComicSansMS-Bold" font-weight="bold" font-size="30.0" fill="#E7A432" transform="matrix(1.00, 0.00, -0.00, -1.00, 161.7, 720.0)">B</text><text xml:space="preserve" font-family="ComicSansMS-Bold" font-weight="bold" font-size="30.0" fill="#E7A432" transform="matrix(1.00, 0.00, -0.00, -1.00, 180.6, 720.0)">l</text><text xml:space="preserve" font-family="ComicSansMS-Bold" font-weight="bold" font-size="30.0" fill="#E7A432" transform="matrix(1.00, 0.00, -0.00, -1.00, 188.8, 720.0)">o</text><text xml:space="preserve" font-family="ComicSansMS-Bold" font-weight="bold" font-size="30.0" fill="#E7A432" transform="matrix(1.00, 0.00, -0.00, -1.00, 204.6, 720.0)">c</text><text xml:space="preserve" font-family="ComicSansMS-Bold" font-weight="bold" font-size="30.0" fill="#E7A432" transform="matrix(1.00, 0.00, -0.00, -1.00, 220.0, 720.0)">k</text><text xml:space="preserve" font-family="ComicSansMS-Bold" font-weight="bold" font-size="30.0" fill="#E7A432" transform="matrix(1.00, 0.00, -0.00, -1.00, 236.2, 720.0)">e</text><text xml:space="preserve" font-family="ComicSansMS-Bold" font-weight="bold" font-size="30.0" fill="#E7A432" transform="matrix(1.00, 0.00, -0.00, -1.00, 253.0, 720.0)">r</text><text xml:space="preserve" font-family="ComicSansMS-Bold" font-weight="bold" font-size="30.0" fill="#E7A432" transform="matrix(1.00, 0.00, -0.00, -1.00, 267.4, 720.0)">s</text></g></svg>