<?xml version="1.0" encoding="UTF-8" standalone="no"?><svg xmlns="http://www.w3.org/2000/svg" xmlns:xlink="http://www.w3.org/1999/xlink" clip-rule="evenodd" stroke-miterlimit="4.00" viewBox="0 0 1024 768"><desc>SVG generated by Keynote</desc><defs></defs><g transform="matrix(1.00, 0.00, -0.00, -1.00, 0.0, 768.0)"><path d="M 0.0 768.0 L 1024.0 768.0 L 1024.0 0.0 L 0.0 0.0 Z M 0.0 768.0 " fill="#000000"></path><g><clipPath id="clip-3603"><path d="M 936.7 12.0 L 936.7 82.8 L 1007.4 82.8 L 1007.4 12.0 Z M 936.7 12.0 "></path></clipPath><g clip-path="url(#clip-3603)"><image xlink:href="../../AAA0FCF1-536D-412F-8916-0370750779E4/assets/63AF18C5C1A3CFA871C6F4F764CDE2DE.png" width="71.00" height="71.00" transform="matrix(0.00, 1.00, 0.99, -0.00, 937.0, 12.0)" opacity="0.13"></image></g></g><text xml:space="preserve" font-family="Helvetica-Light" font-size="18.0" fill="#FEFFFF" transform="matrix(1.00, 0.00, -0.00, -1.00, 506.0, 17.0)">6</text><path d="M 100.0 639.0 L 924.0 639.0 L 924.0 379.0 L 100.0 379.0 Z M 100.0 639.0 " fill="#000000"></path><g><clipPath id="clip-3604"><path d="M 76.1 355.1 L 947.9 355.1 L 947.9 639.0 L 76.1 639.0 Z M 76.1 355.1 "></path></clipPath><g clip-path="url(#clip-3604)"><text xml:space="preserve" font-family="ComicSansMS" font-size="80.0" fill="#E7A432" transform="matrix(1.00, 0.00, -0.00, -1.00, 221.0, 517.0)">T</text><text xml:space="preserve" font-family="ComicSansMS" font-size="80.0" fill="#E7A432" transform="matrix(1.00, 0.00, -0.00, -1.00, 275.4, 517.0)">r</text><text xml:space="preserve" font-family="ComicSansMS" font-size="80.0" fill="#E7A432" transform="matrix(1.00, 0.00, -0.00, -1.00, 313.8, 517.0)">a</text><text xml:space="preserve" font-family="ComicSansMS" font-size="80.0" fill="#E7A432" transform="matrix(1.00, 0.00, -0.00, -1.00, 354.8, 517.0)">n</text><text xml:space="preserve" font-family="ComicSansMS" font-size="80.0" fill="#E7A432" transform="matrix(1.00, 0.00, -0.00, -1.00, 396.7, 517.0)">s</text><text xml:space="preserve" font-family="ComicSansMS" font-size="80.0" fill="#E7A432" transform="matrix(1.00, 0.00, -0.00, -1.00, 435.6, 517.0)">f</text><text xml:space="preserve" font-family="ComicSansMS" font-size="80.0" fill="#E7A432" transform="matrix(1.00, 0.00, -0.00, -1.00, 476.3, 517.0)">o</text><text xml:space="preserve" font-family="ComicSansMS" font-size="80.0" fill="#E7A432" transform="matrix(1.00, 0.00, -0.00, -1.00, 518.4, 517.0)">r</text><text xml:space="preserve" font-family="ComicSansMS" font-size="80.0" fill="#E7A432" transform="matrix(1.00, 0.00, -0.00, -1.00, 556.9, 517.0)">m</text><text xml:space="preserve" font-family="ComicSansMS" font-size="80.0" fill="#E7A432" transform="matrix(1.00, 0.00, -0.00, -1.00, 619.0, 517.0)">a</text><text xml:space="preserve" font-family="ComicSansMS" font-size="80.0" fill="#E7A432" transform="matrix(1.00, 0.00, -0.00, -1.00, 659.9, 517.0)">t</text><text xml:space="preserve" font-family="ComicSansMS" font-size="80.0" fill="#E7A432" transform="matrix(1.00, 0.00, -0.00, -1.00, 697.7, 517.0)">i</text><text xml:space="preserve" font-family="ComicSansMS" font-size="80.0" fill="#E7A432" transform="matrix(1.00, 0.00, -0.00, -1.00, 720.1, 517.0)">o</text><text xml:space="preserve" font-family="ComicSansMS" font-size="80.0" fill="#E7A432" transform="matrix(1.00, 0.00, -0.00, -1.00, 762.2, 517.0)">n</text><text xml:space="preserve" font-family="ComicSansMS" font-size="80.0" fill="#E7A432" transform="matrix(1.00, 0.00, -0.00, -1.00, 804.1, 517.0)"> </text><text xml:space="preserve" font-family="ComicSansMS" font-size="80.0" fill="#E7A432" transform="matrix(1.00, 0.00, -0.00, -1.00, 349.0, 406.0)">R</text><text xml:space="preserve" font-family="ComicSansMS" font-size="80.0" fill="#E7A432" transform="matrix(1.00, 0.00, -0.00, -1.00, 399.3, 406.0)">o</text><text xml:space="preserve" font-family="ComicSansMS" font-size="80.0" fill="#E7A432" transform="matrix(1.00, 0.00, -0.00, -1.00, 441.3, 406.0)">a</text><text xml:space="preserve" font-family="ComicSansMS" font-size="80.0" fill="#E7A432" transform="matrix(1.00, 0.00, -0.00, -1.00, 482.2, 406.0)">d</text><text xml:space="preserve" font-family="ComicSansMS" font-size="80.0" fill="#E7A432" transform="matrix(1.00, 0.00, -0.00, -1.00, 529.2, 406.0)">m</text><text xml:space="preserve" font-family="ComicSansMS" font-size="80.0" fill="#E7A432" transform="matrix(1.00, 0.00, -0.00, -1.00, 591.3, 406.0)">a</text><text xml:space="preserve" font-family="ComicSansMS" font-size="80.0" fill="#E7A432" transform="matrix(1.00, 0.00, -0.00, -1.00, 632.2, 406.0)">p</text></g></g><text xml:space="preserve" font-family="ComicSansMS" font-size="32.0" fill="#FEFFFF" transform="matrix(1.00, 0.00, -0.00, -1.00, 425.0, 333.0)">N</text><text xml:space="preserve" font-family="ComicSansMS" font-size="32.0" fill="#FEFFFF" transform="matrix(1.00, 0.00, -0.00, -1.00, 450.5, 333.0)">e</text><text xml:space="preserve" font-family="ComicSansMS" font-size="32.0" fill="#FEFFFF" transform="matrix(1.00, 0.00, -0.00, -1.00, 468.0, 333.0)">x</text><text xml:space="preserve" font-family="ComicSansMS" font-size="32.0" fill="#FEFFFF" transform="matrix(1.00, 0.00, -0.00, -1.00, 486.9, 333.0)">t</text><text xml:space="preserve" font-family="ComicSansMS" font-size="32.0" fill="#FEFFFF" transform="matrix(1.00, 0.00, -0.00, -1.00, 502.0, 333.0)"> </text><text xml:space="preserve" font-family="ComicSansMS" font-size="32.0" fill="#FEFFFF" transform="matrix(1.00, 0.00, -0.00, -1.00, 511.5, 333.0)">S</text><text xml:space="preserve" font-family="ComicSansMS" font-size="32.0" fill="#FEFFFF" transform="matrix(1.00, 0.00, -0.00, -1.00, 533.8, 333.0)">t</text><text xml:space="preserve" font-family="ComicSansMS" font-size="32.0" fill="#FEFFFF" transform="matrix(1.00, 0.00, -0.00, -1.00, 548.8, 333.0)">e</text><text xml:space="preserve" font-family="ComicSansMS" font-size="32.0" fill="#FEFFFF" transform="matrix(1.00, 0.00, -0.00, -1.00, 566.4, 333.0)">p</text><text xml:space="preserve" font-family="ComicSansMS" font-size="32.0" fill="#FEFFFF" transform="matrix(1.00, 0.00, -0.00, -1.00, 583.5, 333.0)">s</text></g></svg>