<?xml version="1.0" encoding="UTF-8" standalone="no"?><svg xmlns="http://www.w3.org/2000/svg" xmlns:xlink="http://www.w3.org/1999/xlink" clip-rule="evenodd" stroke-miterlimit="4.00" viewBox="0 0 506 374"><desc>SVG generated by Keynote</desc><defs></defs><g transform="matrix(1.00, 0.00, -0.00, -1.00, 0.0, 374.0)"><g><clipPath id="clip-3613"><path d="M 97.6 334.8 L 199.6 334.8 L 199.6 366.8 L 97.6 366.8 Z M 97.6 334.8 "></path></clipPath><g clip-path="url(#clip-3613)"><path d="M 98.6 365.8 L 198.6 365.8 L 198.6 335.8 L 98.6 335.8 Z M 98.6 365.8 " fill="#DCDDE0"></path></g></g><g><clipPath id="clip-3614"><path d="M 97.1 356.9 L 200.1 356.9 L 200.1 373.9 L 97.1 373.9 Z M 97.1 356.9 "></path></clipPath><g clip-path="url(#clip-3614)"><path d="M 184.0 360.5 C 203.5 363.2 203.5 367.6 184.0 370.4 C 164.5 373.1 132.8 373.1 113.3 370.4 C 93.7 367.6 93.7 363.2 113.3 360.5 C 132.8 357.7 164.5 357.7 184.0 360.5 Z M 184.0 360.5 " fill="#DCDDE0"></path><path d="M 85.4 12.0 C 104.9 9.2 104.9 4.8 85.4 2.1 C 65.8 -0.7 34.2 -0.7 14.6 2.1 C -4.9 4.8 -4.9 9.2 14.6 12.0 C 34.2 14.7 65.8 14.7 85.4 12.0 Z M 85.4 12.0 " fill="none" stroke="#52575F" stroke-width="1.00" transform="matrix(1.00, 0.00, 0.00, -1.00, 98.6, 372.4)"></path></g></g><g><clipPath id="clip-3615"><path d="M 97.6 329.0 L 199.6 329.0 L 199.6 345.0 L 97.6 345.0 Z M 97.6 329.0 "></path></clipPath><g clip-path="url(#clip-3615)"><path d="M 184.0 332.0 C 203.5 334.8 203.5 339.2 184.0 342.0 C 164.5 344.7 132.8 344.7 113.3 342.0 C 93.7 339.2 93.7 334.8 113.3 332.0 C 132.8 329.3 164.5 329.3 184.0 332.0 Z M 184.0 332.0 " fill="#DCDDE0"></path></g></g><g><clipPath id="clip-3616"><path d="M 115.1 330.1 L 166.1 330.1 L 166.1 364.3 L 115.1 364.3 Z M 115.1 330.1 "></path></clipPath><g clip-path="url(#clip-3616)"><text xml:space="preserve" font-family="ComicSansMS-Bold" font-weight="bold" font-size="16.0" fill="#52575F" transform="matrix(1.00, 0.00, -0.00, -1.00, 121.0, 340.0)">@</text><text xml:space="preserve" font-family="ComicSansMS-Bold" font-weight="bold" font-size="16.0" fill="#52575F" transform="matrix(1.00, 0.00, -0.00, -1.00, 135.9, 340.0)">w</text><text xml:space="preserve" font-family="ComicSansMS-Bold" font-weight="bold" font-size="16.0" fill="#52575F" transform="matrix(1.00, 0.00, -0.00, -1.00, 146.9, 340.0)">i</text><text xml:space="preserve" font-family="ComicSansMS-Bold" font-weight="bold" font-size="16.0" fill="#52575F" transform="matrix(1.00, 0.00, -0.00, -1.00, 151.3, 340.0)">p</text></g></g><g><clipPath id="clip-3617"><path d="M 23.2 6.6 L 125.2 6.6 L 125.2 38.6 L 23.2 38.6 Z M 23.2 6.6 "></path></clipPath><g clip-path="url(#clip-3617)"><path d="M 24.2 37.6 L 124.2 37.6 L 124.2 7.6 L 24.2 7.6 Z M 24.2 37.6 " fill="#DCDDE0"></path></g></g><g><clipPath id="clip-3618"><path d="M 22.7 28.7 L 125.7 28.7 L 125.7 45.7 L 22.7 45.7 Z M 22.7 28.7 "></path></clipPath><g clip-path="url(#clip-3618)"><path d="M 109.5 32.3 C 129.1 35.0 129.1 39.5 109.5 42.2 C 90.0 44.9 58.4 44.9 38.8 42.2 C 19.3 39.5 19.3 35.0 38.8 32.3 C 58.4 29.5 90.0 29.5 109.5 32.3 Z M 109.5 32.3 " fill="#DCDDE0"></path><path d="M 85.4 12.0 C 104.9 9.2 104.9 4.8 85.4 2.1 C 65.8 -0.7 34.2 -0.7 14.6 2.1 C -4.9 4.8 -4.9 9.2 14.6 12.0 C 34.2 14.7 65.8 14.7 85.4 12.0 Z M 85.4 12.0 " fill="none" stroke="#52575F" stroke-width="1.00" transform="matrix(1.00, 0.00, 0.00, -1.00, 24.2, 44.2)"></path></g></g><g><clipPath id="clip-3619"><path d="M 23.2 0.8 L 125.2 0.8 L 125.2 16.8 L 23.2 16.8 Z M 23.2 0.8 "></path></clipPath><g clip-path="url(#clip-3619)"><path d="M 109.5 3.9 C 129.1 6.6 129.1 11.0 109.5 13.8 C 90.0 16.5 58.4 16.5 38.8 13.8 C 19.3 11.0 19.3 6.6 38.8 3.9 C 58.4 1.1 90.0 1.1 109.5 3.9 Z M 109.5 3.9 " fill="#DCDDE0"></path></g></g><g><clipPath id="clip-3620"><path d="M 21.4 4.0 L 127.0 4.0 L 127.0 38.1 L 21.4 38.1 Z M 21.4 4.0 "></path></clipPath><g clip-path="url(#clip-3620)"><text xml:space="preserve" font-family="ComicSansMS-Bold" font-weight="bold" font-size="16.0" fill="#52575F" transform="matrix(1.00, 0.00, -0.00, -1.00, 27.0, 14.0)">@</text><text xml:space="preserve" font-family="ComicSansMS-Bold" font-weight="bold" font-size="16.0" fill="#52575F" transform="matrix(1.00, 0.00, -0.00, -1.00, 41.9, 14.0)">r</text><text xml:space="preserve" font-family="ComicSansMS-Bold" font-weight="bold" font-size="16.0" fill="#52575F" transform="matrix(1.00, 0.00, -0.00, -1.00, 49.6, 14.0)">e</text><text xml:space="preserve" font-family="ComicSansMS-Bold" font-weight="bold" font-size="16.0" fill="#52575F" transform="matrix(1.00, 0.00, -0.00, -1.00, 58.5, 14.0)">g</text><text xml:space="preserve" font-family="ComicSansMS-Bold" font-weight="bold" font-size="16.0" fill="#52575F" transform="matrix(1.00, 0.00, -0.00, -1.00, 67.0, 14.0)">r</text><text xml:space="preserve" font-family="ComicSansMS-Bold" font-weight="bold" font-size="16.0" fill="#52575F" transform="matrix(1.00, 0.00, -0.00, -1.00, 74.7, 14.0)">e</text><text xml:space="preserve" font-family="ComicSansMS-Bold" font-weight="bold" font-size="16.0" fill="#52575F" transform="matrix(1.00, 0.00, -0.00, -1.00, 83.7, 14.0)">s</text><text xml:space="preserve" font-family="ComicSansMS-Bold" font-weight="bold" font-size="16.0" fill="#52575F" transform="matrix(1.00, 0.00, -0.00, -1.00, 91.5, 14.0)">s</text><text xml:space="preserve" font-family="ComicSansMS-Bold" font-weight="bold" font-size="16.0" fill="#52575F" transform="matrix(1.00, 0.00, -0.00, -1.00, 99.3, 14.0)">i</text><text xml:space="preserve" font-family="ComicSansMS-Bold" font-weight="bold" font-size="16.0" fill="#52575F" transform="matrix(1.00, 0.00, -0.00, -1.00, 103.7, 14.0)">o</text><text xml:space="preserve" font-family="ComicSansMS-Bold" font-weight="bold" font-size="16.0" fill="#52575F" transform="matrix(1.00, 0.00, -0.00, -1.00, 112.2, 14.0)">n</text></g></g><g><clipPath id="clip-3621"><path d="M 202.1 6.6 L 304.1 6.6 L 304.1 38.6 L 202.1 38.6 Z M 202.1 6.6 "></path></clipPath><g clip-path="url(#clip-3621)"><path d="M 203.1 37.6 L 303.1 37.6 L 303.1 7.6 L 203.1 7.6 Z M 203.1 37.6 " fill="#DCDDE0"></path></g></g><g><clipPath id="clip-3622"><path d="M 201.6 28.7 L 304.6 28.7 L 304.6 45.7 L 201.6 45.7 Z M 201.6 28.7 "></path></clipPath><g clip-path="url(#clip-3622)"><path d="M 288.4 32.3 C 308.0 35.0 308.0 39.5 288.4 42.2 C 268.9 44.9 237.2 44.9 217.7 42.2 C 198.2 39.5 198.2 35.0 217.7 32.3 C 237.2 29.5 268.9 29.5 288.4 32.3 Z M 288.4 32.3 " fill="#DCDDE0"></path><path d="M 85.4 12.0 C 104.9 9.2 104.9 4.8 85.4 2.1 C 65.8 -0.7 34.2 -0.7 14.6 2.1 C -4.9 4.8 -4.9 9.2 14.6 12.0 C 34.2 14.7 65.8 14.7 85.4 12.0 Z M 85.4 12.0 " fill="none" stroke="#52575F" stroke-width="1.00" transform="matrix(1.00, 0.00, 0.00, -1.00, 203.1, 44.2)"></path></g></g><g><clipPath id="clip-3623"><path d="M 202.1 0.8 L 304.1 0.8 L 304.1 16.8 L 202.1 16.8 Z M 202.1 0.8 "></path></clipPath><g clip-path="url(#clip-3623)"><path d="M 288.4 3.9 C 308.0 6.6 308.0 11.0 288.4 13.8 C 268.9 16.5 237.2 16.5 217.7 13.8 C 198.2 11.0 198.2 6.6 217.7 3.9 C 237.2 1.1 268.9 1.1 288.4 3.9 Z M 288.4 3.9 " fill="#DCDDE0"></path></g></g><g><clipPath id="clip-3624"><path d="M 219.5 2.0 L 305.2 2.0 L 305.2 36.1 L 219.5 36.1 Z M 219.5 2.0 "></path></clipPath><g clip-path="url(#clip-3624)"><text xml:space="preserve" font-family="ComicSansMS-Bold" font-weight="bold" font-size="16.0" fill="#52575F" transform="matrix(1.00, 0.00, -0.00, -1.00, 225.0, 12.0)">t</text><text xml:space="preserve" font-family="ComicSansMS-Bold" font-weight="bold" font-size="16.0" fill="#52575F" transform="matrix(1.00, 0.00, -0.00, -1.00, 232.5, 12.0)">e</text><text xml:space="preserve" font-family="ComicSansMS-Bold" font-weight="bold" font-size="16.0" fill="#52575F" transform="matrix(1.00, 0.00, -0.00, -1.00, 241.5, 12.0)">s</text><text xml:space="preserve" font-family="ComicSansMS-Bold" font-weight="bold" font-size="16.0" fill="#52575F" transform="matrix(1.00, 0.00, -0.00, -1.00, 249.3, 12.0)">t</text><text xml:space="preserve" font-family="ComicSansMS-Bold" font-weight="bold" font-size="16.0" fill="#52575F" transform="matrix(1.00, 0.00, -0.00, -1.00, 256.8, 12.0)"> </text><text xml:space="preserve" font-family="ComicSansMS-Bold" font-weight="bold" font-size="16.0" fill="#52575F" transform="matrix(1.00, 0.00, -0.00, -1.00, 263.7, 12.0)">d</text><text xml:space="preserve" font-family="ComicSansMS-Bold" font-weight="bold" font-size="16.0" fill="#52575F" transform="matrix(1.00, 0.00, -0.00, -1.00, 273.2, 12.0)">a</text><text xml:space="preserve" font-family="ComicSansMS-Bold" font-weight="bold" font-size="16.0" fill="#52575F" transform="matrix(1.00, 0.00, -0.00, -1.00, 282.0, 12.0)">t</text><text xml:space="preserve" font-family="ComicSansMS-Bold" font-weight="bold" font-size="16.0" fill="#52575F" transform="matrix(1.00, 0.00, -0.00, -1.00, 289.6, 12.0)">a</text></g></g><g><clipPath id="clip-3625"><path d="M -1.3 145.4 L 997.8 145.4 L 997.8 271.3 L -1.3 271.3 Z M -1.3 145.4 "></path></clipPath><g clip-path="url(#clip-3625)"><text xml:space="preserve" font-family="ComicSansMS-Bold" font-weight="bold" font-size="20.0" fill="#A6AAA8" transform="matrix(1.00, 0.00, -0.00, -1.00, 5.6, 242.2)">1</text><text xml:space="preserve" font-family="ComicSansMS-Bold" font-weight="bold" font-size="20.0" fill="#A6AAA8" transform="matrix(1.00, 0.00, -0.00, -1.00, 17.8, 242.2)">.</text><text xml:space="preserve" font-family="ComicSansMS-Bold" font-weight="bold" font-size="20.0" fill="#A6AAA8" transform="matrix(1.00, 0.00, -0.00, -1.00, 47.0, 242.0)">p</text><text xml:space="preserve" font-family="ComicSansMS-Bold" font-weight="bold" font-size="20.0" fill="#A6AAA8" transform="matrix(1.00, 0.00, -0.00, -1.00, 57.7, 242.0)">i</text><text xml:space="preserve" font-family="ComicSansMS-Bold" font-weight="bold" font-size="20.0" fill="#A6AAA8" transform="matrix(1.00, 0.00, -0.00, -1.00, 63.3, 242.0)">c</text><text xml:space="preserve" font-family="ComicSansMS-Bold" font-weight="bold" font-size="20.0" fill="#A6AAA8" transform="matrix(1.00, 0.00, -0.00, -1.00, 73.6, 242.0)">k</text><text xml:space="preserve" font-family="ComicSansMS-Bold" font-weight="bold" font-size="20.0" fill="#A6AAA8" transform="matrix(1.00, 0.00, -0.00, -1.00, 84.4, 242.0)"> </text><text xml:space="preserve" font-family="ComicSansMS-Bold" font-weight="bold" font-size="20.0" fill="#A6AAA8" transform="matrix(1.00, 0.00, -0.00, -1.00, 93.0, 242.0)">a</text><text xml:space="preserve" font-family="ComicSansMS-Bold" font-weight="bold" font-size="20.0" fill="#A6AAA8" transform="matrix(1.00, 0.00, -0.00, -1.00, 104.1, 242.0)"> </text><text xml:space="preserve" font-family="ComicSansMS-Bold" font-weight="bold" font-size="20.0" fill="#A6AAA8" transform="matrix(1.00, 0.00, -0.00, -1.00, 112.8, 242.0)">t</text><text xml:space="preserve" font-family="ComicSansMS-Bold" font-weight="bold" font-size="20.0" fill="#A6AAA8" transform="matrix(1.00, 0.00, -0.00, -1.00, 122.2, 242.0)">e</text><text xml:space="preserve" font-family="ComicSansMS-Bold" font-weight="bold" font-size="20.0" fill="#A6AAA8" transform="matrix(1.00, 0.00, -0.00, -1.00, 133.4, 242.0)">s</text><text xml:space="preserve" font-family="ComicSansMS-Bold" font-weight="bold" font-size="20.0" fill="#A6AAA8" transform="matrix(1.00, 0.00, -0.00, -1.00, 143.1, 242.0)">t</text><text xml:space="preserve" font-family="ComicSansMS-Bold" font-weight="bold" font-size="20.0" fill="#A6AAA8" transform="matrix(1.00, 0.00, -0.00, -1.00, 152.6, 242.0)"> </text><text xml:space="preserve" font-family="ComicSansMS-Bold" font-weight="bold" font-size="20.0" fill="#A6AAA8" transform="matrix(1.00, 0.00, -0.00, -1.00, 161.2, 242.0)">a</text><text xml:space="preserve" font-family="ComicSansMS-Bold" font-weight="bold" font-size="20.0" fill="#A6AAA8" transform="matrix(1.00, 0.00, -0.00, -1.00, 172.3, 242.0)">n</text><text xml:space="preserve" font-family="ComicSansMS-Bold" font-weight="bold" font-size="20.0" fill="#A6AAA8" transform="matrix(1.00, 0.00, -0.00, -1.00, 182.8, 242.0)">d</text><text xml:space="preserve" font-family="ComicSansMS-Bold" font-weight="bold" font-size="20.0" fill="#A6AAA8" transform="matrix(1.00, 0.00, -0.00, -1.00, 194.6, 242.0)"> </text><text xml:space="preserve" font-family="ComicSansMS-Bold" font-weight="bold" font-size="20.0" fill="#A6AAA8" transform="matrix(1.00, 0.00, -0.00, -1.00, 203.2, 242.0)">m</text><text xml:space="preserve" font-family="ComicSansMS-Bold" font-weight="bold" font-size="20.0" fill="#A6AAA8" transform="matrix(1.00, 0.00, -0.00, -1.00, 218.8, 242.0)">a</text><text xml:space="preserve" font-family="ComicSansMS-Bold" font-weight="bold" font-size="20.0" fill="#A6AAA8" transform="matrix(1.00, 0.00, -0.00, -1.00, 229.9, 242.0)">k</text><text xml:space="preserve" font-family="ComicSansMS-Bold" font-weight="bold" font-size="20.0" fill="#A6AAA8" transform="matrix(1.00, 0.00, -0.00, -1.00, 240.7, 242.0)">e</text><text xml:space="preserve" font-family="ComicSansMS-Bold" font-weight="bold" font-size="20.0" fill="#A6AAA8" transform="matrix(1.00, 0.00, -0.00, -1.00, 251.9, 242.0)"> </text><text xml:space="preserve" font-family="ComicSansMS-Bold" font-weight="bold" font-size="20.0" fill="#A6AAA8" transform="matrix(1.00, 0.00, -0.00, -1.00, 260.5, 242.0)">i</text><text xml:space="preserve" font-family="ComicSansMS-Bold" font-weight="bold" font-size="20.0" fill="#A6AAA8" transform="matrix(1.00, 0.00, -0.00, -1.00, 266.1, 242.0)">t</text><text xml:space="preserve" font-family="ComicSansMS-Bold" font-weight="bold" font-size="20.0" fill="#A6AAA8" transform="matrix(1.00, 0.00, -0.00, -1.00, 275.6, 242.0)"> </text><text xml:space="preserve" font-family="ComicSansMS-Bold" font-weight="bold" font-size="20.0" fill="#A6AAA8" transform="matrix(1.00, 0.00, -0.00, -1.00, 284.2, 242.0)">p</text><text xml:space="preserve" font-family="ComicSansMS-Bold" font-weight="bold" font-size="20.0" fill="#A6AAA8" transform="matrix(1.00, 0.00, -0.00, -1.00, 294.9, 242.0)">a</text><text xml:space="preserve" font-family="ComicSansMS-Bold" font-weight="bold" font-size="20.0" fill="#A6AAA8" transform="matrix(1.00, 0.00, -0.00, -1.00, 306.0, 242.0)">s</text><text xml:space="preserve" font-family="ComicSansMS-Bold" font-weight="bold" font-size="20.0" fill="#A6AAA8" transform="matrix(1.00, 0.00, -0.00, -1.00, 315.8, 242.0)">s</text><text xml:space="preserve" font-family="ComicSansMS-Bold" font-weight="bold" font-size="20.0" fill="#A6AAA8" transform="matrix(1.00, 0.00, -0.00, -1.00, 325.5, 242.0)"> </text><text xml:space="preserve" font-family="ComicSansMS-Bold" font-weight="bold" font-size="20.0" fill="#A6AAA8" transform="matrix(1.00, 0.00, -0.00, -1.00, 334.2, 242.0)">o</text><text xml:space="preserve" font-family="ComicSansMS-Bold" font-weight="bold" font-size="20.0" fill="#A6AAA8" transform="matrix(1.00, 0.00, -0.00, -1.00, 344.7, 242.0)">n</text><text xml:space="preserve" font-family="ComicSansMS-Bold" font-weight="bold" font-size="20.0" fill="#A6AAA8" transform="matrix(1.00, 0.00, -0.00, -1.00, 355.2, 242.0)"> </text><text xml:space="preserve" font-family="ComicSansMS-Bold" font-weight="bold" font-size="20.0" fill="#A6AAA8" transform="matrix(1.00, 0.00, -0.00, -1.00, 363.8, 242.0)">l</text><text xml:space="preserve" font-family="ComicSansMS-Bold" font-weight="bold" font-size="20.0" fill="#A6AAA8" transform="matrix(1.00, 0.00, -0.00, -1.00, 369.3, 242.0)">o</text><text xml:space="preserve" font-family="ComicSansMS-Bold" font-weight="bold" font-size="20.0" fill="#A6AAA8" transform="matrix(1.00, 0.00, -0.00, -1.00, 379.8, 242.0)">c</text><text xml:space="preserve" font-family="ComicSansMS-Bold" font-weight="bold" font-size="20.0" fill="#A6AAA8" transform="matrix(1.00, 0.00, -0.00, -1.00, 390.1, 242.0)">a</text><text xml:space="preserve" font-family="ComicSansMS-Bold" font-weight="bold" font-size="20.0" fill="#A6AAA8" transform="matrix(1.00, 0.00, -0.00, -1.00, 401.2, 242.0)">l</text><text xml:space="preserve" font-family="ComicSansMS-Bold" font-weight="bold" font-size="20.0" fill="#A6AAA8" transform="matrix(1.00, 0.00, -0.00, -1.00, 406.7, 242.0)"> </text><text xml:space="preserve" font-family="ComicSansMS-Bold" font-weight="bold" font-size="20.0" fill="#A6AAA8" transform="matrix(1.00, 0.00, -0.00, -1.00, 415.3, 242.0)">m</text><text xml:space="preserve" font-family="ComicSansMS-Bold" font-weight="bold" font-size="20.0" fill="#A6AAA8" transform="matrix(1.00, 0.00, -0.00, -1.00, 430.9, 242.0)">a</text><text xml:space="preserve" font-family="ComicSansMS-Bold" font-weight="bold" font-size="20.0" fill="#A6AAA8" transform="matrix(1.00, 0.00, -0.00, -1.00, 442.0, 242.0)">c</text><text xml:space="preserve" font-family="ComicSansMS-Bold" font-weight="bold" font-size="20.0" fill="#A6AAA8" transform="matrix(1.00, 0.00, -0.00, -1.00, 452.2, 242.0)">h</text><text xml:space="preserve" font-family="ComicSansMS-Bold" font-weight="bold" font-size="20.0" fill="#A6AAA8" transform="matrix(1.00, 0.00, -0.00, -1.00, 463.8, 242.0)">i</text><text xml:space="preserve" font-family="ComicSansMS-Bold" font-weight="bold" font-size="20.0" fill="#A6AAA8" transform="matrix(1.00, 0.00, -0.00, -1.00, 469.4, 242.0)">n</text><text xml:space="preserve" font-family="ComicSansMS-Bold" font-weight="bold" font-size="20.0" fill="#A6AAA8" transform="matrix(1.00, 0.00, -0.00, -1.00, 479.9, 242.0)">e</text><text xml:space="preserve" font-family="ComicSansMS-Bold" font-weight="bold" font-size="20.0" fill="#A6AAA8" transform="matrix(1.00, 0.00, -0.00, -1.00, 491.0, 242.0)"> </text><text xml:space="preserve" font-family="ComicSansMS-Bold" font-weight="bold" font-size="20.0" fill="#A6AAA8" transform="matrix(1.00, 0.00, -0.00, -1.00, 5.6, 214.2)">2</text><text xml:space="preserve" font-family="ComicSansMS-Bold" font-weight="bold" font-size="20.0" fill="#A6AAA8" transform="matrix(1.00, 0.00, -0.00, -1.00, 17.8, 214.2)">.</text><text xml:space="preserve" font-family="ComicSansMS-Bold" font-weight="bold" font-size="20.0" fill="#A6AAA8" transform="matrix(1.00, 0.00, -0.00, -1.00, 47.0, 214.0)">r</text><text xml:space="preserve" font-family="ComicSansMS-Bold" font-weight="bold" font-size="20.0" fill="#A6AAA8" transform="matrix(1.00, 0.00, -0.00, -1.00, 56.6, 214.0)">e</text><text xml:space="preserve" font-family="ComicSansMS-Bold" font-weight="bold" font-size="20.0" fill="#A6AAA8" transform="matrix(1.00, 0.00, -0.00, -1.00, 67.8, 214.0)">c</text><text xml:space="preserve" font-family="ComicSansMS-Bold" font-weight="bold" font-size="20.0" fill="#A6AAA8" transform="matrix(1.00, 0.00, -0.00, -1.00, 78.1, 214.0)">o</text><text xml:space="preserve" font-family="ComicSansMS-Bold" font-weight="bold" font-size="20.0" fill="#A6AAA8" transform="matrix(1.00, 0.00, -0.00, -1.00, 88.6, 214.0)">r</text><text xml:space="preserve" font-family="ComicSansMS-Bold" font-weight="bold" font-size="20.0" fill="#A6AAA8" transform="matrix(1.00, 0.00, -0.00, -1.00, 98.2, 214.0)">d</text><text xml:space="preserve" font-family="ComicSansMS-Bold" font-weight="bold" font-size="20.0" fill="#A6AAA8" transform="matrix(1.00, 0.00, -0.00, -1.00, 110.0, 214.0)"> </text><text xml:space="preserve" font-family="ComicSansMS-Bold" font-weight="bold" font-size="20.0" fill="#A6AAA8" transform="matrix(1.00, 0.00, -0.00, -1.00, 118.6, 214.0)">i</text><text xml:space="preserve" font-family="ComicSansMS-Bold" font-weight="bold" font-size="20.0" fill="#A6AAA8" transform="matrix(1.00, 0.00, -0.00, -1.00, 124.2, 214.0)">n</text><text xml:space="preserve" font-family="ComicSansMS-Bold" font-weight="bold" font-size="20.0" fill="#A6AAA8" transform="matrix(1.00, 0.00, -0.00, -1.00, 134.7, 214.0)">t</text><text xml:space="preserve" font-family="ComicSansMS-Bold" font-weight="bold" font-size="20.0" fill="#A6AAA8" transform="matrix(1.00, 0.00, -0.00, -1.00, 144.1, 214.0)">e</text><text xml:space="preserve" font-family="ComicSansMS-Bold" font-weight="bold" font-size="20.0" fill="#A6AAA8" transform="matrix(1.00, 0.00, -0.00, -1.00, 155.3, 214.0)">r</text><text xml:space="preserve" font-family="ComicSansMS-Bold" font-weight="bold" font-size="20.0" fill="#A6AAA8" transform="matrix(1.00, 0.00, -0.00, -1.00, 165.0, 214.0)">a</text><text xml:space="preserve" font-family="ComicSansMS-Bold" font-weight="bold" font-size="20.0" fill="#A6AAA8" transform="matrix(1.00, 0.00, -0.00, -1.00, 176.1, 214.0)">c</text><text xml:space="preserve" font-family="ComicSansMS-Bold" font-weight="bold" font-size="20.0" fill="#A6AAA8" transform="matrix(1.00, 0.00, -0.00, -1.00, 186.3, 214.0)">t</text><text xml:space="preserve" font-family="ComicSansMS-Bold" font-weight="bold" font-size="20.0" fill="#A6AAA8" transform="matrix(1.00, 0.00, -0.00, -1.00, 195.8, 214.0)">i</text><text xml:space="preserve" font-family="ComicSansMS-Bold" font-weight="bold" font-size="20.0" fill="#A6AAA8" transform="matrix(1.00, 0.00, -0.00, -1.00, 201.4, 214.0)">o</text><text xml:space="preserve" font-family="ComicSansMS-Bold" font-weight="bold" font-size="20.0" fill="#A6AAA8" transform="matrix(1.00, 0.00, -0.00, -1.00, 211.9, 214.0)">n</text><text xml:space="preserve" font-family="ComicSansMS-Bold" font-weight="bold" font-size="20.0" fill="#A6AAA8" transform="matrix(1.00, 0.00, -0.00, -1.00, 222.4, 214.0)">s</text><text xml:space="preserve" font-family="ComicSansMS-Bold" font-weight="bold" font-size="20.0" fill="#A6AAA8" transform="matrix(1.00, 0.00, -0.00, -1.00, 232.1, 214.0)"> </text><text xml:space="preserve" font-family="ComicSansMS-Bold" font-weight="bold" font-size="20.0" fill="#A6AAA8" transform="matrix(1.00, 0.00, -0.00, -1.00, 240.8, 214.0)">w</text><text xml:space="preserve" font-family="ComicSansMS-Bold" font-weight="bold" font-size="20.0" fill="#A6AAA8" transform="matrix(1.00, 0.00, -0.00, -1.00, 254.4, 214.0)">i</text><text xml:space="preserve" font-family="ComicSansMS-Bold" font-weight="bold" font-size="20.0" fill="#A6AAA8" transform="matrix(1.00, 0.00, -0.00, -1.00, 260.1, 214.0)">t</text><text xml:space="preserve" font-family="ComicSansMS-Bold" font-weight="bold" font-size="20.0" fill="#A6AAA8" transform="matrix(1.00, 0.00, -0.00, -1.00, 269.5, 214.0)">h</text><text xml:space="preserve" font-family="ComicSansMS-Bold" font-weight="bold" font-size="20.0" fill="#A6AAA8" transform="matrix(1.00, 0.00, -0.00, -1.00, 281.0, 214.0)"> </text><text xml:space="preserve" font-family="ComicSansMS-Bold" font-weight="bold" font-size="20.0" fill="#A6AAA8" transform="matrix(1.00, 0.00, -0.00, -1.00, 289.7, 214.0)">f</text><text xml:space="preserve" font-family="ComicSansMS-Bold" font-weight="bold" font-size="20.0" fill="#A6AAA8" transform="matrix(1.00, 0.00, -0.00, -1.00, 299.9, 214.0)">i</text><text xml:space="preserve" font-family="ComicSansMS-Bold" font-weight="bold" font-size="20.0" fill="#A6AAA8" transform="matrix(1.00, 0.00, -0.00, -1.00, 305.5, 214.0)">d</text><text xml:space="preserve" font-family="ComicSansMS-Bold" font-weight="bold" font-size="20.0" fill="#A6AAA8" transform="matrix(1.00, 0.00, -0.00, -1.00, 317.2, 214.0)">d</text><text xml:space="preserve" font-family="ComicSansMS-Bold" font-weight="bold" font-size="20.0" fill="#A6AAA8" transform="matrix(1.00, 0.00, -0.00, -1.00, 329.0, 214.0)">l</text><text xml:space="preserve" font-family="ComicSansMS-Bold" font-weight="bold" font-size="20.0" fill="#A6AAA8" transform="matrix(1.00, 0.00, -0.00, -1.00, 334.5, 214.0)">e</text><text xml:space="preserve" font-family="ComicSansMS-Bold" font-weight="bold" font-size="20.0" fill="#A6AAA8" transform="matrix(1.00, 0.00, -0.00, -1.00, 345.7, 214.0)">r</text><text xml:space="preserve" font-family="ComicSansMS-Bold" font-weight="bold" font-size="20.0" fill="#A6AAA8" transform="matrix(1.00, 0.00, -0.00, -1.00, 355.3, 214.0)"> </text><text xml:space="preserve" font-family="ComicSansMS-Bold" font-weight="bold" font-size="20.0" fill="#A6AAA8" transform="matrix(1.00, 0.00, -0.00, -1.00, 5.6, 186.2)">3</text><text xml:space="preserve" font-family="ComicSansMS-Bold" font-weight="bold" font-size="20.0" fill="#A6AAA8" transform="matrix(1.00, 0.00, -0.00, -1.00, 17.8, 186.2)">.</text><text xml:space="preserve" font-family="ComicSansMS-Bold" font-weight="bold" font-size="20.0" fill="#A6AAA8" transform="matrix(1.00, 0.00, -0.00, -1.00, 47.0, 186.0)">c</text><text xml:space="preserve" font-family="ComicSansMS-Bold" font-weight="bold" font-size="20.0" fill="#A6AAA8" transform="matrix(1.00, 0.00, -0.00, -1.00, 57.3, 186.0)">h</text><text xml:space="preserve" font-family="ComicSansMS-Bold" font-weight="bold" font-size="20.0" fill="#A6AAA8" transform="matrix(1.00, 0.00, -0.00, -1.00, 68.8, 186.0)">e</text><text xml:space="preserve" font-family="ComicSansMS-Bold" font-weight="bold" font-size="20.0" fill="#A6AAA8" transform="matrix(1.00, 0.00, -0.00, -1.00, 80.0, 186.0)">c</text><text xml:space="preserve" font-family="ComicSansMS-Bold" font-weight="bold" font-size="20.0" fill="#A6AAA8" transform="matrix(1.00, 0.00, -0.00, -1.00, 90.3, 186.0)">k</text><text xml:space="preserve" font-family="ComicSansMS-Bold" font-weight="bold" font-size="20.0" fill="#A6AAA8" transform="matrix(1.00, 0.00, -0.00, -1.00, 101.1, 186.0)">i</text><text xml:space="preserve" font-family="ComicSansMS-Bold" font-weight="bold" font-size="20.0" fill="#A6AAA8" transform="matrix(1.00, 0.00, -0.00, -1.00, 106.7, 186.0)">n</text><text xml:space="preserve" font-family="ComicSansMS-Bold" font-weight="bold" font-size="20.0" fill="#A6AAA8" transform="matrix(1.00, 0.00, -0.00, -1.00, 117.2, 186.0)"> </text><text xml:space="preserve" font-family="ComicSansMS-Bold" font-weight="bold" font-size="20.0" fill="#A6AAA8" transform="matrix(1.00, 0.00, -0.00, -1.00, 125.8, 186.0)">f</text><text xml:space="preserve" font-family="ComicSansMS-Bold" font-weight="bold" font-size="20.0" fill="#A6AAA8" transform="matrix(1.00, 0.00, -0.00, -1.00, 136.0, 186.0)">i</text><text xml:space="preserve" font-family="ComicSansMS-Bold" font-weight="bold" font-size="20.0" fill="#A6AAA8" transform="matrix(1.00, 0.00, -0.00, -1.00, 141.6, 186.0)">d</text><text xml:space="preserve" font-family="ComicSansMS-Bold" font-weight="bold" font-size="20.0" fill="#A6AAA8" transform="matrix(1.00, 0.00, -0.00, -1.00, 153.4, 186.0)">d</text><text xml:space="preserve" font-family="ComicSansMS-Bold" font-weight="bold" font-size="20.0" fill="#A6AAA8" transform="matrix(1.00, 0.00, -0.00, -1.00, 165.1, 186.0)">l</text><text xml:space="preserve" font-family="ComicSansMS-Bold" font-weight="bold" font-size="20.0" fill="#A6AAA8" transform="matrix(1.00, 0.00, -0.00, -1.00, 170.6, 186.0)">e</text><text xml:space="preserve" font-family="ComicSansMS-Bold" font-weight="bold" font-size="20.0" fill="#A6AAA8" transform="matrix(1.00, 0.00, -0.00, -1.00, 181.8, 186.0)">r</text><text xml:space="preserve" font-family="ComicSansMS-Bold" font-weight="bold" font-size="20.0" fill="#A6AAA8" transform="matrix(1.00, 0.00, -0.00, -1.00, 191.4, 186.0)"> </text><text xml:space="preserve" font-family="ComicSansMS-Bold" font-weight="bold" font-size="20.0" fill="#A6AAA8" transform="matrix(1.00, 0.00, -0.00, -1.00, 200.1, 186.0)">m</text><text xml:space="preserve" font-family="ComicSansMS-Bold" font-weight="bold" font-size="20.0" fill="#A6AAA8" transform="matrix(1.00, 0.00, -0.00, -1.00, 215.6, 186.0)">a</text><text xml:space="preserve" font-family="ComicSansMS-Bold" font-weight="bold" font-size="20.0" fill="#A6AAA8" transform="matrix(1.00, 0.00, -0.00, -1.00, 226.7, 186.0)">p</text><text xml:space="preserve" font-family="ComicSansMS-Bold" font-weight="bold" font-size="20.0" fill="#A6AAA8" transform="matrix(1.00, 0.00, -0.00, -1.00, 237.4, 186.0)">p</text><text xml:space="preserve" font-family="ComicSansMS-Bold" font-weight="bold" font-size="20.0" fill="#A6AAA8" transform="matrix(1.00, 0.00, -0.00, -1.00, 248.1, 186.0)">i</text><text xml:space="preserve" font-family="ComicSansMS-Bold" font-weight="bold" font-size="20.0" fill="#A6AAA8" transform="matrix(1.00, 0.00, -0.00, -1.00, 253.7, 186.0)">n</text><text xml:space="preserve" font-family="ComicSansMS-Bold" font-weight="bold" font-size="20.0" fill="#A6AAA8" transform="matrix(1.00, 0.00, -0.00, -1.00, 264.2, 186.0)">g</text><text xml:space="preserve" font-family="ComicSansMS-Bold" font-weight="bold" font-size="20.0" fill="#A6AAA8" transform="matrix(1.00, 0.00, -0.00, -1.00, 274.8, 186.0)"> </text><text xml:space="preserve" font-family="ComicSansMS-Bold" font-weight="bold" font-size="20.0" fill="#A6AAA8" transform="matrix(1.00, 0.00, -0.00, -1.00, 283.4, 186.0)">a</text><text xml:space="preserve" font-family="ComicSansMS-Bold" font-weight="bold" font-size="20.0" fill="#A6AAA8" transform="matrix(1.00, 0.00, -0.00, -1.00, 294.5, 186.0)">n</text><text xml:space="preserve" font-family="ComicSansMS-Bold" font-weight="bold" font-size="20.0" fill="#A6AAA8" transform="matrix(1.00, 0.00, -0.00, -1.00, 305.0, 186.0)">d</text><text xml:space="preserve" font-family="ComicSansMS-Bold" font-weight="bold" font-size="20.0" fill="#A6AAA8" transform="matrix(1.00, 0.00, -0.00, -1.00, 316.8, 186.0)"> </text><text xml:space="preserve" font-family="ComicSansMS-Bold" font-weight="bold" font-size="20.0" fill="#A6AAA8" transform="matrix(1.00, 0.00, -0.00, -1.00, 325.4, 186.0)">c</text><text xml:space="preserve" font-family="ComicSansMS-Bold" font-weight="bold" font-size="20.0" fill="#A6AAA8" transform="matrix(1.00, 0.00, -0.00, -1.00, 335.7, 186.0)">o</text><text xml:space="preserve" font-family="ComicSansMS-Bold" font-weight="bold" font-size="20.0" fill="#A6AAA8" transform="matrix(1.00, 0.00, -0.00, -1.00, 346.2, 186.0)">d</text><text xml:space="preserve" font-family="ComicSansMS-Bold" font-weight="bold" font-size="20.0" fill="#A6AAA8" transform="matrix(1.00, 0.00, -0.00, -1.00, 358.0, 186.0)">e</text><text xml:space="preserve" font-family="ComicSansMS-Bold" font-weight="bold" font-size="20.0" fill="#A6AAA8" transform="matrix(1.00, 0.00, -0.00, -1.00, 369.2, 186.0)"> </text><text xml:space="preserve" font-family="ComicSansMS-Bold" font-weight="bold" font-size="20.0" fill="#A6AAA8" transform="matrix(1.00, 0.00, -0.00, -1.00, 5.6, 158.2)">4</text><text xml:space="preserve" font-family="ComicSansMS-Bold" font-weight="bold" font-size="20.0" fill="#A6AAA8" transform="matrix(1.00, 0.00, -0.00, -1.00, 17.8, 158.2)">.</text><text xml:space="preserve" font-family="ComicSansMS-Bold" font-weight="bold" font-size="20.0" fill="#A6AAA8" transform="matrix(1.00, 0.00, -0.00, -1.00, 47.0, 158.0)">R</text><text xml:space="preserve" font-family="ComicSansMS-Bold" font-weight="bold" font-size="20.0" fill="#A6AAA8" transform="matrix(1.00, 0.00, -0.00, -1.00, 59.8, 158.0)">e</text><text xml:space="preserve" font-family="ComicSansMS-Bold" font-weight="bold" font-size="20.0" fill="#A6AAA8" transform="matrix(1.00, 0.00, -0.00, -1.00, 71.0, 158.0)">p</text><text xml:space="preserve" font-family="ComicSansMS-Bold" font-weight="bold" font-size="20.0" fill="#A6AAA8" transform="matrix(1.00, 0.00, -0.00, -1.00, 81.7, 158.0)">e</text><text xml:space="preserve" font-family="ComicSansMS-Bold" font-weight="bold" font-size="20.0" fill="#A6AAA8" transform="matrix(1.00, 0.00, -0.00, -1.00, 92.9, 158.0)">a</text><text xml:space="preserve" font-family="ComicSansMS-Bold" font-weight="bold" font-size="20.0" fill="#A6AAA8" transform="matrix(1.00, 0.00, -0.00, -1.00, 104.0, 158.0)">t</text><text xml:space="preserve" font-family="ComicSansMS-Bold" font-weight="bold" font-size="20.0" fill="#A6AAA8" transform="matrix(1.00, 0.00, -0.00, -1.00, 113.4, 158.0)"> </text><text xml:space="preserve" font-family="ComicSansMS-Bold" font-weight="bold" font-size="20.0" fill="#A6AAA8" transform="matrix(1.00, 0.00, -0.00, -1.00, 122.1, 158.0)">s</text><text xml:space="preserve" font-family="ComicSansMS-Bold" font-weight="bold" font-size="20.0" fill="#A6AAA8" transform="matrix(1.00, 0.00, -0.00, -1.00, 131.8, 158.0)">t</text><text xml:space="preserve" font-family="ComicSansMS-Bold" font-weight="bold" font-size="20.0" fill="#A6AAA8" transform="matrix(1.00, 0.00, -0.00, -1.00, 141.2, 158.0)">e</text><text xml:space="preserve" font-family="ComicSansMS-Bold" font-weight="bold" font-size="20.0" fill="#A6AAA8" transform="matrix(1.00, 0.00, -0.00, -1.00, 152.4, 158.0)">p</text><text xml:space="preserve" font-family="ComicSansMS-Bold" font-weight="bold" font-size="20.0" fill="#A6AAA8" transform="matrix(1.00, 0.00, -0.00, -1.00, 163.1, 158.0)"> </text><text xml:space="preserve" font-family="ComicSansMS-Bold" font-weight="bold" font-size="20.0" fill="#A6AAA8" transform="matrix(1.00, 0.00, -0.00, -1.00, 171.8, 158.0)">1</text></g></g><g><clipPath id="clip-3626"><path d="M 141.0 257.8 L 141.0 325.5 L 156.2 325.5 L 156.2 257.8 Z M 141.0 257.8 "></path></clipPath><g clip-path="url(#clip-3626)"><path d="M 11.7 0.0 L 13.2 0.0 L 65.7 0.0 " fill="none" stroke="#E7A432" stroke-width="3.00" transform="matrix(0.00, 1.00, 1.00, 0.00, 148.6, 258.8)"></path><path d="M 142.0 272.0 L 148.6 258.8 L 155.2 272.0 Z M 142.0 272.0 " fill="#E7A432"></path></g></g><g><clipPath id="clip-3627"><path d="M 245.5 51.2 L 245.5 141.4 L 260.7 141.4 L 260.7 51.2 Z M 245.5 51.2 "></path></clipPath><g clip-path="url(#clip-3627)"><path d="M 11.7 0.0 L 13.2 0.0 L 88.2 0.0 " fill="none" stroke="#E7A432" stroke-width="3.00" transform="matrix(0.00, 1.00, 1.00, 0.00, 253.1, 52.2)"></path><path d="M 246.5 65.4 L 253.1 52.2 L 259.7 65.4 Z M 246.5 65.4 " fill="#E7A432"></path></g></g><g><clipPath id="clip-3628"><path d="M 70.8 137.9 L 255.1 137.9 L 255.1 142.9 L 70.8 142.9 Z M 70.8 137.9 "></path></clipPath><g clip-path="url(#clip-3628)"><path d="M 0.0 0.0 L 182.3 0.0 " fill="none" stroke="#E7A432" stroke-width="3.00" transform="matrix(1.00, 0.00, 0.00, -1.00, 71.8, 140.4)"></path></g></g><g><clipPath id="clip-3629"><path d="M 65.6 47.2 L 65.6 141.4 L 80.8 141.4 L 80.8 47.2 Z M 65.6 47.2 "></path></clipPath><g clip-path="url(#clip-3629)"><path d="M 11.7 0.0 L 13.2 0.0 L 92.2 0.0 " fill="none" stroke="#E7A432" stroke-width="3.00" transform="matrix(0.00, 1.00, 1.00, 0.00, 73.2, 48.2)"></path><path d="M 66.6 61.4 L 73.2 48.2 L 79.8 61.4 Z M 66.6 61.4 " fill="#E7A432"></path></g></g></g></svg>