<?xml version="1.0" encoding="iso-8859-1"?>
<!-- Generator: Adobe Illustrator 16.0.0, SVG Export Plug-In . SVG Version: 6.00 Build 0)  -->
<!DOCTYPE svg PUBLIC "-//W3C//DTD SVG 1.1//EN" "http://www.w3.org/Graphics/SVG/1.1/DTD/svg11.dtd">
<svg version="1.1" id="Capa_1" xmlns="http://www.w3.org/2000/svg" xmlns:xlink="http://www.w3.org/1999/xlink" x="0px" y="0px"
	 width="314.299px" height="314.299px" viewBox="0 0 314.299 314.299" style="enable-background:new 0 0 314.299 314.299;"
	 xml:space="preserve">
<g>
	<g>
		<path d="M189.031,1.44c-9.118,3.729-17.766,6.421-31.884,6.421c-14.116,0-22.763-2.692-31.884-6.421
			c-9.114-3.728-27.348-0.414-30.248,12.428c-2.902,12.847,7.04,30.251,7.04,30.251c1.018,13.893,9.779,36.076,10.001,47.561
			c4.407,0.466,16.909,1.616,24.063,0.735c6.729-0.833,15.514,0.109,21.32,0.735c2.369,0.259,4.433,0.44,5.323,0.471
			c1.202,0,3.827-0.264,6.603-0.539c5.629-0.564,12.65-1.263,16.896-0.833c3.525,0.357,10.154,0.704,16.016,0.885
			c-0.605-10.957,8.891-34.497,9.952-49.016c0,0,9.942-17.404,7.037-30.251C216.376,1.021,198.145-2.293,189.031,1.44z"/>
		<path d="M72.436,309.622c5.908,4.354,16.469,0.621,18.649,2.175c2.175,1.554,6.214,0.621,11.809-0.933
			c5.595-1.559,5.595-0.621,12.428,1.554c6.835,2.17,2.488-0.938,10.568-0.621c8.081,0.311,8.389,3.417,12.122,2.236
			c3.728-1.181,2.172-2.858,9.947-0.678c7.772,2.18,9.188-1.554,9.188-1.554s1.427,3.729,9.193,1.554
			c7.772-2.175,6.214-0.503,9.947,0.678c3.729,1.181,4.039-1.926,12.122-2.236c8.083-0.316,3.729,2.796,10.568,0.621
			c6.841-2.18,6.836-3.112,12.428-1.554c5.593,1.554,9.631,2.486,11.807,0.933c2.174-1.554,12.743,2.175,18.651-2.175
			c0,0-5.593-43.408-5.593-61.636c0-18.231-3.729-38.126-9.113-62.567c-5.23-23.705-17.439-77.262-23.089-86.935
			c-6.556-0.155-14.463-0.57-18.331-0.963c-3.713-0.357-10.724,0.326-15.835,0.839c-3.158,0.316-5.659,0.56-7.135,0.56
			c-1.188,0.171-3.263-0.212-5.885-0.497c-5.569-0.606-13.994-1.518-20.107-0.751c-8.039,1.005-21.518-0.311-25.675-0.767
			c-0.117,0.213-0.197,0.477-0.334,0.658c-5.388,7.042-18.23,63.396-23.618,87.847c-5.385,24.445-9.113,44.335-9.113,62.567
			C78.036,266.203,72.436,309.622,72.436,309.622z"/>
	</g>
</g>
<g>
</g>
<g>
</g>
<g>
</g>
<g>
</g>
<g>
</g>
<g>
</g>
<g>
</g>
<g>
</g>
<g>
</g>
<g>
</g>
<g>
</g>
<g>
</g>
<g>
</g>
<g>
</g>
<g>
</g>
</svg>
