<?xml version="1.0" encoding="UTF-8" standalone="no"?><svg xmlns="http://www.w3.org/2000/svg" xmlns:xlink="http://www.w3.org/1999/xlink" clip-rule="evenodd" stroke-miterlimit="4.00" viewBox="0 0 1024 768"><desc>SVG generated by Keynote</desc><defs></defs><g transform="matrix(1.00, 0.00, -0.00, -1.00, 0.0, 768.0)"><path d="M 0.0 768.0 L 1024.0 768.0 L 1024.0 0.0 L 0.0 0.0 Z M 0.0 768.0 " fill="#000000"></path><g><clipPath id="clip-1059"><path d="M 936.7 12.0 L 936.7 82.8 L 1007.4 82.8 L 1007.4 12.0 Z M 936.7 12.0 "></path></clipPath><g clip-path="url(#clip-1059)"><image xlink:href="../../AAA0FCF1-536D-412F-8916-0370750779E4/assets/63AF18C5C1A3CFA871C6F4F764CDE2DE.png" width="71.00" height="71.00" transform="matrix(0.00, 1.00, 0.99, -0.00, 937.0, 12.0)" opacity="0.13"></image></g></g><text xml:space="preserve" font-family="Helvetica-Light" font-size="18.0" fill="#FEFFFF" transform="matrix(1.00, 0.00, -0.00, -1.00, 506.0, 17.0)">4</text><g opacity="0.22"><g><clipPath id="clip-1060"><path d="M 20.0 0.0 L 1024.0 0.0 L 1024.0 701.0 L 20.0 701.0 Z M 20.0 0.0 "></path></clipPath><g clip-path="url(#clip-1060)"><image xlink:href="../../34007AC4-FB3D-4DA3-BD14-DDD112AFAC95/assets/13B37FCA33B178BAD142F8BCD707D7D8.png" width="789.00" height="539.00" transform="matrix(1.30, 0.00, -0.00, -1.30, 22.0, 700.0)"></image></g></g></g><g><clipPath id="clip-1061"><path d="M 415.4 167.3 L 471.6 167.3 L 471.6 298.6 L 415.4 298.6 Z M 415.4 167.3 "></path></clipPath><g clip-path="url(#clip-1061)"><image xlink:href="../../AAA0FCF1-536D-412F-8916-0370750779E4/assets/AD80A373F6EB368DEB91E803442526DE.png" width="56.00" height="132.00" transform="matrix(1.02, 0.00, -0.00, -1.00, 415.0, 299.0)"></image></g></g><g><clipPath id="clip-1062"><path d="M 425.9 146.6 L 466.4 146.6 L 466.4 180.8 L 425.9 180.8 Z M 425.9 146.6 "></path></clipPath><g clip-path="url(#clip-1062)"><text xml:space="preserve" font-family="ComicSansMS-Bold" font-weight="bold" font-size="16.0" fill="#E7A432" transform="matrix(1.00, 0.00, -0.00, -1.00, 432.0, 157.0)">D</text><text xml:space="preserve" font-family="ComicSansMS-Bold" font-weight="bold" font-size="16.0" fill="#E7A432" transform="matrix(1.00, 0.00, -0.00, -1.00, 443.5, 157.0)">e</text><text xml:space="preserve" font-family="ComicSansMS-Bold" font-weight="bold" font-size="16.0" fill="#E7A432" transform="matrix(1.00, 0.00, -0.00, -1.00, 452.5, 157.0)">v</text></g></g><g><clipPath id="clip-1063"><path d="M 761.6 170.8 L 866.7 170.8 L 866.7 302.4 L 761.6 302.4 Z M 761.6 170.8 "></path></clipPath><g clip-path="url(#clip-1063)"><image xlink:href="../../AAA0FCF1-536D-412F-8916-0370750779E4/assets/212C92B2BDB9807166B46B193ED1497C.png" width="105.00" height="132.00" transform="matrix(1.00, 0.00, -0.00, -0.99, 762.0, 302.0)"></image></g></g><g><clipPath id="clip-1064"><path d="M 797.6 142.7 L 835.5 142.7 L 835.5 176.9 L 797.6 176.9 Z M 797.6 142.7 "></path></clipPath><g clip-path="url(#clip-1064)"><text xml:space="preserve" font-family="ComicSansMS-Bold" font-weight="bold" font-size="16.0" fill="#E7A432" transform="matrix(1.00, 0.00, -0.00, -1.00, 803.0, 153.0)">Q</text><text xml:space="preserve" font-family="ComicSansMS-Bold" font-weight="bold" font-size="16.0" fill="#E7A432" transform="matrix(1.00, 0.00, -0.00, -1.00, 817.0, 153.0)">A</text></g></g><g><clipPath id="clip-1065"><path d="M 472.7 271.1 L 728.3 271.1 L 728.3 378.4 L 472.7 378.4 Z M 472.7 271.1 "></path></clipPath><g clip-path="url(#clip-1065)"><path d="M 519.5 376.9 C 515.9 376.9 513.0 374.1 513.0 370.5 L 513.0 344.3 C 513.0 344.1 513.1 343.8 513.2 343.5 L 474.2 272.4 L 521.2 337.9 L 720.3 337.9 C 723.9 337.9 726.8 340.8 726.8 344.3 L 726.8 370.5 C 726.8 374.1 723.9 376.9 720.3 376.9 L 519.5 376.9 Z M 519.5 376.9 " fill="#000000"></path><path d="M 6.4 0.0 C 2.9 0.0 0.0 2.9 0.0 6.4 L 0.0 32.6 C 0.0 32.9 0.1 33.1 0.2 33.4 L -38.8 104.5 L 8.2 39.1 L 207.3 39.1 C 210.9 39.1 213.8 36.2 213.8 32.6 L 213.8 6.4 C 213.8 2.9 210.9 0.0 207.3 0.0 L 6.4 0.0 Z M 6.4 0.0 " fill="none" stroke="#E7A432" stroke-width="1.00" transform="matrix(1.00, 0.00, 0.00, -1.00, 513.0, 376.9)"></path></g></g><g><clipPath id="clip-1066"><path d="M 513.0 337.9 L 726.8 337.9 L 726.8 376.9 L 513.0 376.9 Z M 513.0 337.9 "></path></clipPath><g clip-path="url(#clip-1066)"><text xml:space="preserve" font-family="Helvetica-Light" font-size="16.0" fill="#FEFFFF" transform="matrix(1.00, 0.00, -0.00, -1.00, 545.0, 352.0)">T</text><text xml:space="preserve" font-family="Helvetica-Light" font-size="16.0" fill="#FEFFFF" transform="matrix(1.00, 0.00, -0.00, -1.00, 553.9, 352.0)">h</text><text xml:space="preserve" font-family="Helvetica-Light" font-size="16.0" fill="#FEFFFF" transform="matrix(1.00, 0.00, -0.00, -1.00, 562.8, 352.0)">a</text><text xml:space="preserve" font-family="Helvetica-Light" font-size="16.0" fill="#FEFFFF" transform="matrix(1.00, 0.00, -0.00, -1.00, 571.7, 352.0)">t</text><text xml:space="preserve" font-family="Helvetica-Light" font-size="16.0" fill="#FEFFFF" transform="matrix(1.00, 0.00, -0.00, -1.00, 576.1, 352.0)">s</text><text xml:space="preserve" font-family="Helvetica-Light" font-size="16.0" fill="#FEFFFF" transform="matrix(1.00, 0.00, -0.00, -1.00, 584.1, 352.0)"> </text><text xml:space="preserve" font-family="Helvetica-Light" font-size="16.0" fill="#FEFFFF" transform="matrix(1.00, 0.00, -0.00, -1.00, 588.6, 352.0)">h</text><text xml:space="preserve" font-family="Helvetica-Light" font-size="16.0" fill="#FEFFFF" transform="matrix(1.00, 0.00, -0.00, -1.00, 597.5, 352.0)">o</text><text xml:space="preserve" font-family="Helvetica-Light" font-size="16.0" fill="#FEFFFF" transform="matrix(1.00, 0.00, -0.00, -1.00, 606.4, 352.0)">w</text><text xml:space="preserve" font-family="Helvetica-Light" font-size="16.0" fill="#FEFFFF" transform="matrix(1.00, 0.00, -0.00, -1.00, 617.9, 352.0)"> </text><text xml:space="preserve" font-family="Helvetica-Light" font-size="16.0" fill="#FEFFFF" transform="matrix(1.00, 0.00, -0.00, -1.00, 622.4, 352.0)">i</text><text xml:space="preserve" font-family="Helvetica-Light" font-size="16.0" fill="#FEFFFF" transform="matrix(1.00, 0.00, -0.00, -1.00, 625.9, 352.0)">t</text><text xml:space="preserve" font-family="Helvetica-Light" font-size="16.0" fill="#FEFFFF" transform="matrix(1.00, 0.00, -0.00, -1.00, 630.4, 352.0)"> </text><text xml:space="preserve" font-family="Helvetica-Light" font-size="16.0" fill="#FEFFFF" transform="matrix(1.00, 0.00, -0.00, -1.00, 634.8, 352.0)">w</text><text xml:space="preserve" font-family="Helvetica-Light" font-size="16.0" fill="#FEFFFF" transform="matrix(1.00, 0.00, -0.00, -1.00, 646.4, 352.0)">i</text><text xml:space="preserve" font-family="Helvetica-Light" font-size="16.0" fill="#FEFFFF" transform="matrix(1.00, 0.00, -0.00, -1.00, 649.9, 352.0)">l</text><text xml:space="preserve" font-family="Helvetica-Light" font-size="16.0" fill="#FEFFFF" transform="matrix(1.00, 0.00, -0.00, -1.00, 653.5, 352.0)">l</text><text xml:space="preserve" font-family="Helvetica-Light" font-size="16.0" fill="#FEFFFF" transform="matrix(1.00, 0.00, -0.00, -1.00, 657.0, 352.0)"> </text><text xml:space="preserve" font-family="Helvetica-Light" font-size="16.0" fill="#FEFFFF" transform="matrix(1.00, 0.00, -0.00, -1.00, 661.5, 352.0)">w</text><text xml:space="preserve" font-family="Helvetica-Light" font-size="16.0" fill="#FEFFFF" transform="matrix(1.00, 0.00, -0.00, -1.00, 673.0, 352.0)">o</text><text xml:space="preserve" font-family="Helvetica-Light" font-size="16.0" fill="#FEFFFF" transform="matrix(1.00, 0.00, -0.00, -1.00, 681.9, 352.0)">r</text><text xml:space="preserve" font-family="Helvetica-Light" font-size="16.0" fill="#FEFFFF" transform="matrix(1.00, 0.00, -0.00, -1.00, 687.3, 352.0)">k</text></g></g><g><clipPath id="clip-1067"><path d="M 536.4 257.2 L 761.4 257.2 L 761.4 323.3 L 536.4 323.3 Z M 536.4 257.2 "></path></clipPath><g clip-path="url(#clip-1067)"><path d="M 542.1 321.8 C 539.7 321.8 537.9 319.9 537.9 317.6 L 537.9 272.3 C 537.9 270.0 539.7 268.1 542.1 268.1 L 717.0 268.1 L 760.1 258.7 L 725.8 275.8 L 725.8 317.6 C 725.8 319.9 723.9 321.8 721.6 321.8 L 542.1 321.8 Z M 542.1 321.8 " fill="#000000"></path><path d="M 4.2 0.0 C 1.9 0.0 0.0 1.9 0.0 4.2 L 0.0 49.5 C 0.0 51.8 1.9 53.7 4.2 53.7 L 179.2 53.7 L 222.3 63.1 L 187.9 45.9 L 187.9 4.2 C 187.9 1.9 186.1 0.0 183.7 0.0 L 4.2 0.0 Z M 4.2 0.0 " fill="none" stroke="#E7A432" stroke-width="1.00" transform="matrix(1.00, 0.00, 0.00, -1.00, 537.9, 321.8)"></path></g></g><g><clipPath id="clip-1068"><path d="M 537.9 268.1 L 725.8 268.1 L 725.8 321.8 L 537.9 321.8 Z M 537.9 268.1 "></path></clipPath><g clip-path="url(#clip-1068)"><text xml:space="preserve" font-family="Helvetica-Light" font-size="16.0" fill="#FEFFFF" transform="matrix(1.00, 0.00, -0.00, -1.00, 550.0, 289.0)">O</text><text xml:space="preserve" font-family="Helvetica-Light" font-size="16.0" fill="#FEFFFF" transform="matrix(1.00, 0.00, -0.00, -1.00, 562.4, 289.0)">k</text><text xml:space="preserve" font-family="Helvetica-Light" font-size="16.0" fill="#FEFFFF" transform="matrix(1.00, 0.00, -0.00, -1.00, 570.4, 289.0)">a</text><text xml:space="preserve" font-family="Helvetica-Light" font-size="16.0" fill="#FEFFFF" transform="matrix(1.00, 0.00, -0.00, -1.00, 579.3, 289.0)">y</text><text xml:space="preserve" font-family="Helvetica-Light" font-size="16.0" fill="#FEFFFF" transform="matrix(1.00, 0.00, -0.00, -1.00, 585.9, 289.0)">,</text><text xml:space="preserve" font-family="Helvetica-Light" font-size="16.0" fill="#FEFFFF" transform="matrix(1.00, 0.00, -0.00, -1.00, 590.3, 289.0)"> </text><text xml:space="preserve" font-family="Helvetica-Light" font-size="16.0" fill="#FEFFFF" transform="matrix(1.00, 0.00, -0.00, -1.00, 594.8, 289.0)">s</text><text xml:space="preserve" font-family="Helvetica-Light" font-size="16.0" fill="#FEFFFF" transform="matrix(1.00, 0.00, -0.00, -1.00, 602.8, 289.0)">o</text><text xml:space="preserve" font-family="Helvetica-Light" font-size="16.0" fill="#FEFFFF" transform="matrix(1.00, 0.00, -0.00, -1.00, 611.7, 289.0)">u</text><text xml:space="preserve" font-family="Helvetica-Light" font-size="16.0" fill="#FEFFFF" transform="matrix(1.00, 0.00, -0.00, -1.00, 620.6, 289.0)">n</text><text xml:space="preserve" font-family="Helvetica-Light" font-size="16.0" fill="#FEFFFF" transform="matrix(1.00, 0.00, -0.00, -1.00, 629.5, 289.0)">d</text><text xml:space="preserve" font-family="Helvetica-Light" font-size="16.0" fill="#FEFFFF" transform="matrix(1.00, 0.00, -0.00, -1.00, 639.2, 289.0)">s</text><text xml:space="preserve" font-family="Helvetica-Light" font-size="16.0" fill="#FEFFFF" transform="matrix(1.00, 0.00, -0.00, -1.00, 647.2, 289.0)"> </text><text xml:space="preserve" font-family="Helvetica-Light" font-size="16.0" fill="#FEFFFF" transform="matrix(1.00, 0.00, -0.00, -1.00, 651.7, 289.0)">t</text><text xml:space="preserve" font-family="Helvetica-Light" font-size="16.0" fill="#FEFFFF" transform="matrix(1.00, 0.00, -0.00, -1.00, 656.1, 289.0)">e</text><text xml:space="preserve" font-family="Helvetica-Light" font-size="16.0" fill="#FEFFFF" transform="matrix(1.00, 0.00, -0.00, -1.00, 665.0, 289.0)">s</text><text xml:space="preserve" font-family="Helvetica-Light" font-size="16.0" fill="#FEFFFF" transform="matrix(1.00, 0.00, -0.00, -1.00, 673.0, 289.0)">t</text><text xml:space="preserve" font-family="Helvetica-Light" font-size="16.0" fill="#FEFFFF" transform="matrix(1.00, 0.00, -0.00, -1.00, 677.5, 289.0)">a</text><text xml:space="preserve" font-family="Helvetica-Light" font-size="16.0" fill="#FEFFFF" transform="matrix(1.00, 0.00, -0.00, -1.00, 686.4, 289.0)">b</text><text xml:space="preserve" font-family="Helvetica-Light" font-size="16.0" fill="#FEFFFF" transform="matrix(1.00, 0.00, -0.00, -1.00, 696.1, 289.0)">l</text><text xml:space="preserve" font-family="Helvetica-Light" font-size="16.0" fill="#FEFFFF" transform="matrix(1.00, 0.00, -0.00, -1.00, 699.7, 289.0)">e</text><text xml:space="preserve" font-family="Helvetica-Light" font-size="16.0" fill="#FEFFFF" transform="matrix(1.00, 0.00, -0.00, -1.00, 708.6, 289.0)">.</text></g></g><text xml:space="preserve" font-family="ComicSansMS-Bold" font-weight="bold" font-size="30.0" fill="#E7A432" transform="matrix(1.00, 0.00, -0.00, -1.00, 34.0, 720.0)">A</text><text xml:space="preserve" font-family="ComicSansMS-Bold" font-weight="bold" font-size="30.0" fill="#E7A432" transform="matrix(1.00, 0.00, -0.00, -1.00, 56.0, 720.0)">T</text><text xml:space="preserve" font-family="ComicSansMS-Bold" font-weight="bold" font-size="30.0" fill="#E7A432" transform="matrix(1.00, 0.00, -0.00, -1.00, 76.8, 720.0)">D</text><text xml:space="preserve" font-family="ComicSansMS-Bold" font-weight="bold" font-size="30.0" fill="#E7A432" transform="matrix(1.00, 0.00, -0.00, -1.00, 98.5, 720.0)">D</text><text xml:space="preserve" font-family="ComicSansMS-Bold" font-weight="bold" font-size="30.0" fill="#E7A432" transform="matrix(1.00, 0.00, -0.00, -1.00, 120.1, 720.0)"> </text><text xml:space="preserve" font-family="ComicSansMS-Bold" font-weight="bold" font-size="30.0" fill="#E7A432" transform="matrix(1.00, 0.00, -0.00, -1.00, 133.1, 720.0)">E</text><text xml:space="preserve" font-family="ComicSansMS-Bold" font-weight="bold" font-size="30.0" fill="#E7A432" transform="matrix(1.00, 0.00, -0.00, -1.00, 151.8, 720.0)">x</text><text xml:space="preserve" font-family="ComicSansMS-Bold" font-weight="bold" font-size="30.0" fill="#E7A432" transform="matrix(1.00, 0.00, -0.00, -1.00, 169.5, 720.0)">e</text><text xml:space="preserve" font-family="ComicSansMS-Bold" font-weight="bold" font-size="30.0" fill="#E7A432" transform="matrix(1.00, 0.00, -0.00, -1.00, 186.3, 720.0)">c</text><text xml:space="preserve" font-family="ComicSansMS-Bold" font-weight="bold" font-size="30.0" fill="#E7A432" transform="matrix(1.00, 0.00, -0.00, -1.00, 201.7, 720.0)">u</text><text xml:space="preserve" font-family="ComicSansMS-Bold" font-weight="bold" font-size="30.0" fill="#E7A432" transform="matrix(1.00, 0.00, -0.00, -1.00, 217.3, 720.0)">t</text><text xml:space="preserve" font-family="ComicSansMS-Bold" font-weight="bold" font-size="30.0" fill="#E7A432" transform="matrix(1.00, 0.00, -0.00, -1.00, 231.5, 720.0)">i</text><text xml:space="preserve" font-family="ComicSansMS-Bold" font-weight="bold" font-size="30.0" fill="#E7A432" transform="matrix(1.00, 0.00, -0.00, -1.00, 239.9, 720.0)">o</text><text xml:space="preserve" font-family="ComicSansMS-Bold" font-weight="bold" font-size="30.0" fill="#E7A432" transform="matrix(1.00, 0.00, -0.00, -1.00, 255.7, 720.0)">n</text><text xml:space="preserve" font-family="ComicSansMS-Bold" font-weight="bold" font-size="30.0" fill="#E7A432" transform="matrix(1.00, 0.00, -0.00, -1.00, 271.4, 720.0)"> </text><text xml:space="preserve" font-family="ComicSansMS-Bold" font-weight="bold" font-size="30.0" fill="#E7A432" transform="matrix(1.00, 0.00, -0.00, -1.00, 284.4, 720.0)">C</text><text xml:space="preserve" font-family="ComicSansMS-Bold" font-weight="bold" font-size="30.0" fill="#E7A432" transform="matrix(1.00, 0.00, -0.00, -1.00, 302.9, 720.0)">y</text><text xml:space="preserve" font-family="ComicSansMS-Bold" font-weight="bold" font-size="30.0" fill="#E7A432" transform="matrix(1.00, 0.00, -0.00, -1.00, 319.5, 720.0)">c</text><text xml:space="preserve" font-family="ComicSansMS-Bold" font-weight="bold" font-size="30.0" fill="#E7A432" transform="matrix(1.00, 0.00, -0.00, -1.00, 334.9, 720.0)">l</text><text xml:space="preserve" font-family="ComicSansMS-Bold" font-weight="bold" font-size="30.0" fill="#E7A432" transform="matrix(1.00, 0.00, -0.00, -1.00, 343.1, 720.0)">e</text><text xml:space="preserve" font-family="ComicSansMS-Bold" font-weight="bold" font-size="30.0" fill="#E7A432" transform="matrix(1.00, 0.00, -0.00, -1.00, 708.2, 720.4)">1</text><text xml:space="preserve" font-family="ComicSansMS-Bold" font-weight="bold" font-size="30.0" fill="#E7A432" transform="matrix(1.00, 0.00, -0.00, -1.00, 726.5, 720.4)">.</text><text xml:space="preserve" font-family="ComicSansMS-Bold" font-weight="bold" font-size="30.0" fill="#E7A432" transform="matrix(1.00, 0.00, -0.00, -1.00, 749.0, 720.0)">F</text><text xml:space="preserve" font-family="ComicSansMS-Bold" font-weight="bold" font-size="30.0" fill="#E7A432" transform="matrix(1.00, 0.00, -0.00, -1.00, 767.2, 720.0)">e</text><text xml:space="preserve" font-family="ComicSansMS-Bold" font-weight="bold" font-size="30.0" fill="#E7A432" transform="matrix(1.00, 0.00, -0.00, -1.00, 784.0, 720.0)">a</text><text xml:space="preserve" font-family="ComicSansMS-Bold" font-weight="bold" font-size="30.0" fill="#E7A432" transform="matrix(1.00, 0.00, -0.00, -1.00, 800.6, 720.0)">t</text><text xml:space="preserve" font-family="ComicSansMS-Bold" font-weight="bold" font-size="30.0" fill="#E7A432" transform="matrix(1.00, 0.00, -0.00, -1.00, 814.8, 720.0)">u</text><text xml:space="preserve" font-family="ComicSansMS-Bold" font-weight="bold" font-size="30.0" fill="#E7A432" transform="matrix(1.00, 0.00, -0.00, -1.00, 830.4, 720.0)">r</text><text xml:space="preserve" font-family="ComicSansMS-Bold" font-weight="bold" font-size="30.0" fill="#E7A432" transform="matrix(1.00, 0.00, -0.00, -1.00, 844.8, 720.0)">e</text><text xml:space="preserve" font-family="ComicSansMS-Bold" font-weight="bold" font-size="30.0" fill="#E7A432" transform="matrix(1.00, 0.00, -0.00, -1.00, 861.6, 720.0)"> </text><text xml:space="preserve" font-family="ComicSansMS-Bold" font-weight="bold" font-size="30.0" fill="#E7A432" transform="matrix(1.00, 0.00, -0.00, -1.00, 874.6, 720.0)">P</text><text xml:space="preserve" font-family="ComicSansMS-Bold" font-weight="bold" font-size="30.0" fill="#E7A432" transform="matrix(1.00, 0.00, -0.00, -1.00, 890.6, 720.0)">l</text><text xml:space="preserve" font-family="ComicSansMS-Bold" font-weight="bold" font-size="30.0" fill="#E7A432" transform="matrix(1.00, 0.00, -0.00, -1.00, 898.8, 720.0)">a</text><text xml:space="preserve" font-family="ComicSansMS-Bold" font-weight="bold" font-size="30.0" fill="#E7A432" transform="matrix(1.00, 0.00, -0.00, -1.00, 915.4, 720.0)">n</text><text xml:space="preserve" font-family="ComicSansMS-Bold" font-weight="bold" font-size="30.0" fill="#E7A432" transform="matrix(1.00, 0.00, -0.00, -1.00, 931.1, 720.0)">n</text><text xml:space="preserve" font-family="ComicSansMS-Bold" font-weight="bold" font-size="30.0" fill="#E7A432" transform="matrix(1.00, 0.00, -0.00, -1.00, 946.9, 720.0)">i</text><text xml:space="preserve" font-family="ComicSansMS-Bold" font-weight="bold" font-size="30.0" fill="#E7A432" transform="matrix(1.00, 0.00, -0.00, -1.00, 955.3, 720.0)">n</text><text xml:space="preserve" font-family="ComicSansMS-Bold" font-weight="bold" font-size="30.0" fill="#E7A432" transform="matrix(1.00, 0.00, -0.00, -1.00, 971.0, 720.0)">g</text><text xml:space="preserve" font-family="ComicSansMS-Bold" font-weight="bold" font-size="30.0" fill="#E7A432" transform="matrix(1.00, 0.00, -0.00, -1.00, 986.9, 720.0)"> </text><text xml:space="preserve" font-family="ComicSansMS-Bold" font-weight="bold" font-size="30.0" fill="#E7A432" transform="matrix(1.00, 0.00, -0.00, -1.00, 708.0, 678.0)">2</text><text xml:space="preserve" font-family="ComicSansMS-Bold" font-weight="bold" font-size="30.0" fill="#E7A432" transform="matrix(1.00, 0.00, -0.00, -1.00, 726.3, 678.0)">.</text><text xml:space="preserve" font-family="ComicSansMS-Bold" font-weight="bold" font-size="30.0" fill="#E7A432" transform="matrix(1.00, 0.00, -0.00, -1.00, 739.3, 678.0)"> </text><text xml:space="preserve" font-family="ComicSansMS-Bold" font-weight="bold" font-size="30.0" fill="#E7A432" transform="matrix(1.00, 0.00, -0.00, -1.00, 752.3, 678.0)">F</text><text xml:space="preserve" font-family="ComicSansMS-Bold" font-weight="bold" font-size="30.0" fill="#E7A432" transform="matrix(1.00, 0.00, -0.00, -1.00, 770.5, 678.0)">e</text><text xml:space="preserve" font-family="ComicSansMS-Bold" font-weight="bold" font-size="30.0" fill="#E7A432" transform="matrix(1.00, 0.00, -0.00, -1.00, 787.3, 678.0)">a</text><text xml:space="preserve" font-family="ComicSansMS-Bold" font-weight="bold" font-size="30.0" fill="#E7A432" transform="matrix(1.00, 0.00, -0.00, -1.00, 804.0, 678.0)">t</text><text xml:space="preserve" font-family="ComicSansMS-Bold" font-weight="bold" font-size="30.0" fill="#E7A432" transform="matrix(1.00, 0.00, -0.00, -1.00, 818.1, 678.0)">u</text><text xml:space="preserve" font-family="ComicSansMS-Bold" font-weight="bold" font-size="30.0" fill="#E7A432" transform="matrix(1.00, 0.00, -0.00, -1.00, 833.7, 678.0)">r</text><text xml:space="preserve" font-family="ComicSansMS-Bold" font-weight="bold" font-size="30.0" fill="#E7A432" transform="matrix(1.00, 0.00, -0.00, -1.00, 848.1, 678.0)">e</text><text xml:space="preserve" font-family="ComicSansMS-Bold" font-weight="bold" font-size="30.0" fill="#E7A432" transform="matrix(1.00, 0.00, -0.00, -1.00, 864.9, 678.0)"> </text><text xml:space="preserve" font-family="ComicSansMS-Bold" font-weight="bold" font-size="30.0" fill="#E7A432" transform="matrix(1.00, 0.00, -0.00, -1.00, 877.9, 678.0)">K</text><text xml:space="preserve" font-family="ComicSansMS-Bold" font-weight="bold" font-size="30.0" fill="#E7A432" transform="matrix(1.00, 0.00, -0.00, -1.00, 896.2, 678.0)">i</text><text xml:space="preserve" font-family="ComicSansMS-Bold" font-weight="bold" font-size="30.0" fill="#E7A432" transform="matrix(1.00, 0.00, -0.00, -1.00, 904.6, 678.0)">c</text><text xml:space="preserve" font-family="ComicSansMS-Bold" font-weight="bold" font-size="30.0" fill="#E7A432" transform="matrix(1.00, 0.00, -0.00, -1.00, 920.0, 678.0)">k</text><text xml:space="preserve" font-family="ComicSansMS-Bold" font-weight="bold" font-size="30.0" fill="#E7A432" transform="matrix(1.00, 0.00, -0.00, -1.00, 936.2, 678.0)">o</text><text xml:space="preserve" font-family="ComicSansMS-Bold" font-weight="bold" font-size="30.0" fill="#E7A432" transform="matrix(1.00, 0.00, -0.00, -1.00, 952.0, 678.0)">f</text><text xml:space="preserve" font-family="ComicSansMS-Bold" font-weight="bold" font-size="30.0" fill="#E7A432" transform="matrix(1.00, 0.00, -0.00, -1.00, 967.3, 678.0)">f</text><text xml:space="preserve" font-family="ComicSansMS-Bold" font-weight="bold" font-size="30.0" fill="#E7A432" transform="matrix(1.00, 0.00, -0.00, -1.00, 982.5, 678.0)"> </text><text xml:space="preserve" font-family="ComicSansMS-Bold" font-weight="bold" font-size="30.0" fill="#DCDDE0" transform="matrix(1.00, 0.00, -0.00, -1.00, 708.0, 636.0)">3</text><text xml:space="preserve" font-family="ComicSansMS-Bold" font-weight="bold" font-size="30.0" fill="#DCDDE0" transform="matrix(1.00, 0.00, -0.00, -1.00, 726.3, 636.0)">.</text><text xml:space="preserve" font-family="ComicSansMS-Bold" font-weight="bold" font-size="30.0" fill="#DCDDE0" transform="matrix(1.00, 0.00, -0.00, -1.00, 739.3, 636.0)"> </text><text xml:space="preserve" font-family="ComicSansMS-Bold" font-weight="bold" font-size="30.0" fill="#DCDDE0" transform="matrix(1.00, 0.00, -0.00, -1.00, 752.3, 636.0)">D</text><text xml:space="preserve" font-family="ComicSansMS-Bold" font-weight="bold" font-size="30.0" fill="#DCDDE0" transform="matrix(1.00, 0.00, -0.00, -1.00, 773.9, 636.0)">e</text><text xml:space="preserve" font-family="ComicSansMS-Bold" font-weight="bold" font-size="30.0" fill="#DCDDE0" transform="matrix(1.00, 0.00, -0.00, -1.00, 790.7, 636.0)">v</text><text xml:space="preserve" font-family="ComicSansMS-Bold" font-weight="bold" font-size="30.0" fill="#DCDDE0" transform="matrix(1.00, 0.00, -0.00, -1.00, 805.3, 636.0)"> </text><text xml:space="preserve" font-family="ComicSansMS-Bold" font-weight="bold" font-size="30.0" fill="#DCDDE0" transform="matrix(1.00, 0.00, -0.00, -1.00, 818.3, 636.0)">B</text><text xml:space="preserve" font-family="ComicSansMS-Bold" font-weight="bold" font-size="30.0" fill="#DCDDE0" transform="matrix(1.00, 0.00, -0.00, -1.00, 837.2, 636.0)">o</text><text xml:space="preserve" font-family="ComicSansMS-Bold" font-weight="bold" font-size="30.0" fill="#DCDDE0" transform="matrix(1.00, 0.00, -0.00, -1.00, 853.0, 636.0)">x</text><text xml:space="preserve" font-family="ComicSansMS-Bold" font-weight="bold" font-size="30.0" fill="#DCDDE0" transform="matrix(1.00, 0.00, -0.00, -1.00, 870.7, 636.0)"> </text><text xml:space="preserve" font-family="ComicSansMS-Bold" font-weight="bold" font-size="30.0" fill="#DCDDE0" transform="matrix(1.00, 0.00, -0.00, -1.00, 883.7, 636.0)">T</text><text xml:space="preserve" font-family="ComicSansMS-Bold" font-weight="bold" font-size="30.0" fill="#DCDDE0" transform="matrix(1.00, 0.00, -0.00, -1.00, 904.6, 636.0)">e</text><text xml:space="preserve" font-family="ComicSansMS-Bold" font-weight="bold" font-size="30.0" fill="#DCDDE0" transform="matrix(1.00, 0.00, -0.00, -1.00, 921.3, 636.0)">s</text><text xml:space="preserve" font-family="ComicSansMS-Bold" font-weight="bold" font-size="30.0" fill="#DCDDE0" transform="matrix(1.00, 0.00, -0.00, -1.00, 935.9, 636.0)">t</text><text xml:space="preserve" font-family="ComicSansMS-Bold" font-weight="bold" font-size="30.0" fill="#DCDDE0" transform="matrix(1.00, 0.00, -0.00, -1.00, 950.1, 636.0)">i</text><text xml:space="preserve" font-family="ComicSansMS-Bold" font-weight="bold" font-size="30.0" fill="#DCDDE0" transform="matrix(1.00, 0.00, -0.00, -1.00, 958.5, 636.0)">n</text><text xml:space="preserve" font-family="ComicSansMS-Bold" font-weight="bold" font-size="30.0" fill="#DCDDE0" transform="matrix(1.00, 0.00, -0.00, -1.00, 974.2, 636.0)">g</text><text xml:space="preserve" font-family="ComicSansMS-Bold" font-weight="bold" font-size="30.0" fill="#DCDDE0" transform="matrix(1.00, 0.00, -0.00, -1.00, 990.2, 636.0)"> </text><text xml:space="preserve" font-family="ComicSansMS-Bold" font-weight="bold" font-size="30.0" fill="#DCDDE0" transform="matrix(1.00, 0.00, -0.00, -1.00, 708.0, 594.0)">4</text><text xml:space="preserve" font-family="ComicSansMS-Bold" font-weight="bold" font-size="30.0" fill="#DCDDE0" transform="matrix(1.00, 0.00, -0.00, -1.00, 726.3, 594.0)">.</text><text xml:space="preserve" font-family="ComicSansMS-Bold" font-weight="bold" font-size="30.0" fill="#DCDDE0" transform="matrix(1.00, 0.00, -0.00, -1.00, 739.3, 594.0)"> </text><text xml:space="preserve" font-family="ComicSansMS-Bold" font-weight="bold" font-size="30.0" fill="#DCDDE0" transform="matrix(1.00, 0.00, -0.00, -1.00, 752.3, 594.0)">A</text><text xml:space="preserve" font-family="ComicSansMS-Bold" font-weight="bold" font-size="30.0" fill="#DCDDE0" transform="matrix(1.00, 0.00, -0.00, -1.00, 774.3, 594.0)">u</text><text xml:space="preserve" font-family="ComicSansMS-Bold" font-weight="bold" font-size="30.0" fill="#DCDDE0" transform="matrix(1.00, 0.00, -0.00, -1.00, 789.9, 594.0)">t</text><text xml:space="preserve" font-family="ComicSansMS-Bold" font-weight="bold" font-size="30.0" fill="#DCDDE0" transform="matrix(1.00, 0.00, -0.00, -1.00, 804.0, 594.0)">o</text><text xml:space="preserve" font-family="ComicSansMS-Bold" font-weight="bold" font-size="30.0" fill="#DCDDE0" transform="matrix(1.00, 0.00, -0.00, -1.00, 819.8, 594.0)">m</text><text xml:space="preserve" font-family="ComicSansMS-Bold" font-weight="bold" font-size="30.0" fill="#DCDDE0" transform="matrix(1.00, 0.00, -0.00, -1.00, 843.1, 594.0)">a</text><text xml:space="preserve" font-family="ComicSansMS-Bold" font-weight="bold" font-size="30.0" fill="#DCDDE0" transform="matrix(1.00, 0.00, -0.00, -1.00, 859.7, 594.0)">t</text><text xml:space="preserve" font-family="ComicSansMS-Bold" font-weight="bold" font-size="30.0" fill="#DCDDE0" transform="matrix(1.00, 0.00, -0.00, -1.00, 873.9, 594.0)">i</text><text xml:space="preserve" font-family="ComicSansMS-Bold" font-weight="bold" font-size="30.0" fill="#DCDDE0" transform="matrix(1.00, 0.00, -0.00, -1.00, 882.3, 594.0)">o</text><text xml:space="preserve" font-family="ComicSansMS-Bold" font-weight="bold" font-size="30.0" fill="#DCDDE0" transform="matrix(1.00, 0.00, -0.00, -1.00, 898.1, 594.0)">n</text><text xml:space="preserve" font-family="ComicSansMS-Bold" font-weight="bold" font-size="21.0" fill="#52575F" transform="matrix(1.00, 0.00, -0.00, -1.00, 484.0, 544.0)">B</text><text xml:space="preserve" font-family="ComicSansMS-Bold" font-weight="bold" font-size="21.0" fill="#52575F" transform="matrix(1.00, 0.00, -0.00, -1.00, 497.2, 544.0)">A</text><text xml:space="preserve" font-family="ComicSansMS-Bold" font-weight="bold" font-size="21.0" fill="#52575F" transform="matrix(1.00, 0.00, -0.00, -1.00, 512.6, 544.0)">,</text><text xml:space="preserve" font-family="ComicSansMS-Bold" font-weight="bold" font-size="21.0" fill="#DCDDE0" transform="matrix(1.00, 0.00, -0.00, -1.00, 521.7, 544.0)"> </text><text xml:space="preserve" font-family="ComicSansMS-Bold" font-weight="bold" font-size="21.0" fill="#DCDDE0" transform="matrix(1.00, 0.00, -0.00, -1.00, 530.8, 544.0)">Q</text><text xml:space="preserve" font-family="ComicSansMS-Bold" font-weight="bold" font-size="21.0" fill="#DCDDE0" transform="matrix(1.00, 0.00, -0.00, -1.00, 549.2, 544.0)">A</text><text xml:space="preserve" font-family="ComicSansMS-Bold" font-weight="bold" font-size="21.0" fill="#DCDDE0" transform="matrix(1.00, 0.00, -0.00, -1.00, 564.6, 544.0)"> </text><text xml:space="preserve" font-family="ComicSansMS-Bold" font-weight="bold" font-size="21.0" fill="#DCDDE0" transform="matrix(1.00, 0.00, -0.00, -1.00, 573.7, 544.0)">a</text><text xml:space="preserve" font-family="ComicSansMS-Bold" font-weight="bold" font-size="21.0" fill="#DCDDE0" transform="matrix(1.00, 0.00, -0.00, -1.00, 585.3, 544.0)">n</text><text xml:space="preserve" font-family="ComicSansMS-Bold" font-weight="bold" font-size="21.0" fill="#DCDDE0" transform="matrix(1.00, 0.00, -0.00, -1.00, 596.3, 544.0)">d</text><text xml:space="preserve" font-family="ComicSansMS-Bold" font-weight="bold" font-size="21.0" fill="#DCDDE0" transform="matrix(1.00, 0.00, -0.00, -1.00, 608.7, 544.0)"> </text><text xml:space="preserve" font-family="ComicSansMS-Bold" font-weight="bold" font-size="21.0" fill="#DCDDE0" transform="matrix(1.00, 0.00, -0.00, -1.00, 617.8, 544.0)">D</text><text xml:space="preserve" font-family="ComicSansMS-Bold" font-weight="bold" font-size="21.0" fill="#DCDDE0" transform="matrix(1.00, 0.00, -0.00, -1.00, 632.9, 544.0)">e</text><text xml:space="preserve" font-family="ComicSansMS-Bold" font-weight="bold" font-size="21.0" fill="#DCDDE0" transform="matrix(1.00, 0.00, -0.00, -1.00, 644.7, 544.0)">v</text><text xml:space="preserve" font-family="ComicSansMS-Bold" font-weight="bold" font-size="21.0" fill="#DCDDE0" transform="matrix(1.00, 0.00, -0.00, -1.00, 654.9, 544.0)">e</text><text xml:space="preserve" font-family="ComicSansMS-Bold" font-weight="bold" font-size="21.0" fill="#DCDDE0" transform="matrix(1.00, 0.00, -0.00, -1.00, 666.6, 544.0)">l</text><text xml:space="preserve" font-family="ComicSansMS-Bold" font-weight="bold" font-size="21.0" fill="#DCDDE0" transform="matrix(1.00, 0.00, -0.00, -1.00, 672.4, 544.0)">o</text><text xml:space="preserve" font-family="ComicSansMS-Bold" font-weight="bold" font-size="21.0" fill="#DCDDE0" transform="matrix(1.00, 0.00, -0.00, -1.00, 683.4, 544.0)">p</text><text xml:space="preserve" font-family="ComicSansMS-Bold" font-weight="bold" font-size="21.0" fill="#DCDDE0" transform="matrix(1.00, 0.00, -0.00, -1.00, 694.7, 544.0)">e</text><text xml:space="preserve" font-family="ComicSansMS-Bold" font-weight="bold" font-size="21.0" fill="#DCDDE0" transform="matrix(1.00, 0.00, -0.00, -1.00, 706.4, 544.0)">r</text><text xml:space="preserve" font-family="ComicSansMS-Bold" font-weight="bold" font-size="21.0" fill="#DCDDE0" transform="matrix(1.00, 0.00, -0.00, -1.00, 716.5, 544.0)"> </text><text xml:space="preserve" font-family="ComicSansMS-Bold" font-weight="bold" font-size="21.0" fill="#DCDDE0" transform="matrix(1.00, 0.00, -0.00, -1.00, 725.6, 544.0)">c</text><text xml:space="preserve" font-family="ComicSansMS-Bold" font-weight="bold" font-size="21.0" fill="#DCDDE0" transform="matrix(1.00, 0.00, -0.00, -1.00, 736.4, 544.0)">o</text><text xml:space="preserve" font-family="ComicSansMS-Bold" font-weight="bold" font-size="21.0" fill="#DCDDE0" transform="matrix(1.00, 0.00, -0.00, -1.00, 747.4, 544.0)">m</text><text xml:space="preserve" font-family="ComicSansMS-Bold" font-weight="bold" font-size="21.0" fill="#DCDDE0" transform="matrix(1.00, 0.00, -0.00, -1.00, 763.7, 544.0)">e</text><text xml:space="preserve" font-family="ComicSansMS-Bold" font-weight="bold" font-size="21.0" fill="#DCDDE0" transform="matrix(1.00, 0.00, -0.00, -1.00, 775.5, 544.0)"> </text><text xml:space="preserve" font-family="ComicSansMS-Bold" font-weight="bold" font-size="21.0" fill="#DCDDE0" transform="matrix(1.00, 0.00, -0.00, -1.00, 784.6, 544.0)">t</text><text xml:space="preserve" font-family="ComicSansMS-Bold" font-weight="bold" font-size="21.0" fill="#DCDDE0" transform="matrix(1.00, 0.00, -0.00, -1.00, 794.5, 544.0)">o</text><text xml:space="preserve" font-family="ComicSansMS-Bold" font-weight="bold" font-size="21.0" fill="#DCDDE0" transform="matrix(1.00, 0.00, -0.00, -1.00, 805.5, 544.0)">g</text><text xml:space="preserve" font-family="ComicSansMS-Bold" font-weight="bold" font-size="21.0" fill="#DCDDE0" transform="matrix(1.00, 0.00, -0.00, -1.00, 816.7, 544.0)">e</text><text xml:space="preserve" font-family="ComicSansMS-Bold" font-weight="bold" font-size="21.0" fill="#DCDDE0" transform="matrix(1.00, 0.00, -0.00, -1.00, 828.4, 544.0)">t</text><text xml:space="preserve" font-family="ComicSansMS-Bold" font-weight="bold" font-size="21.0" fill="#DCDDE0" transform="matrix(1.00, 0.00, -0.00, -1.00, 838.3, 544.0)">h</text><text xml:space="preserve" font-family="ComicSansMS-Bold" font-weight="bold" font-size="21.0" fill="#DCDDE0" transform="matrix(1.00, 0.00, -0.00, -1.00, 850.4, 544.0)">e</text><text xml:space="preserve" font-family="ComicSansMS-Bold" font-weight="bold" font-size="21.0" fill="#DCDDE0" transform="matrix(1.00, 0.00, -0.00, -1.00, 862.2, 544.0)">r</text><text xml:space="preserve" font-family="ComicSansMS-Bold" font-weight="bold" font-size="21.0" fill="#DCDDE0" transform="matrix(1.00, 0.00, -0.00, -1.00, 872.3, 544.0)"> </text><text xml:space="preserve" font-family="ComicSansMS-Bold" font-weight="bold" font-size="21.0" fill="#DCDDE0" transform="matrix(1.00, 0.00, -0.00, -1.00, 881.4, 544.0)">t</text><text xml:space="preserve" font-family="ComicSansMS-Bold" font-weight="bold" font-size="21.0" fill="#DCDDE0" transform="matrix(1.00, 0.00, -0.00, -1.00, 891.3, 544.0)">o</text><text xml:space="preserve" font-family="ComicSansMS-Bold" font-weight="bold" font-size="21.0" fill="#DCDDE0" transform="matrix(1.00, 0.00, -0.00, -1.00, 902.3, 544.0)"> </text><text xml:space="preserve" font-family="ComicSansMS-Bold" font-weight="bold" font-size="21.0" fill="#DCDDE0" transform="matrix(1.00, 0.00, -0.00, -1.00, 911.4, 544.0)">d</text><text xml:space="preserve" font-family="ComicSansMS-Bold" font-weight="bold" font-size="21.0" fill="#DCDDE0" transform="matrix(1.00, 0.00, -0.00, -1.00, 923.7, 544.0)">i</text><text xml:space="preserve" font-family="ComicSansMS-Bold" font-weight="bold" font-size="21.0" fill="#DCDDE0" transform="matrix(1.00, 0.00, -0.00, -1.00, 929.6, 544.0)">s</text><text xml:space="preserve" font-family="ComicSansMS-Bold" font-weight="bold" font-size="21.0" fill="#DCDDE0" transform="matrix(1.00, 0.00, -0.00, -1.00, 939.8, 544.0)">c</text><text xml:space="preserve" font-family="ComicSansMS-Bold" font-weight="bold" font-size="21.0" fill="#DCDDE0" transform="matrix(1.00, 0.00, -0.00, -1.00, 950.6, 544.0)">u</text><text xml:space="preserve" font-family="ComicSansMS-Bold" font-weight="bold" font-size="21.0" fill="#DCDDE0" transform="matrix(1.00, 0.00, -0.00, -1.00, 961.5, 544.0)">s</text><text xml:space="preserve" font-family="ComicSansMS-Bold" font-weight="bold" font-size="21.0" fill="#DCDDE0" transform="matrix(1.00, 0.00, -0.00, -1.00, 971.8, 544.0)">s</text><text xml:space="preserve" font-family="ComicSansMS-Bold" font-weight="bold" font-size="21.0" fill="#DCDDE0" transform="matrix(1.00, 0.00, -0.00, -1.00, 982.0, 544.0)"> </text><text xml:space="preserve" font-family="ComicSansMS-Bold" font-weight="bold" font-size="21.0" fill="#DCDDE0" transform="matrix(1.00, 0.00, -0.00, -1.00, 484.0, 515.0)">h</text><text xml:space="preserve" font-family="ComicSansMS-Bold" font-weight="bold" font-size="21.0" fill="#DCDDE0" transform="matrix(1.00, 0.00, -0.00, -1.00, 496.1, 515.0)">o</text><text xml:space="preserve" font-family="ComicSansMS-Bold" font-weight="bold" font-size="21.0" fill="#DCDDE0" transform="matrix(1.00, 0.00, -0.00, -1.00, 507.2, 515.0)">w</text><text xml:space="preserve" font-family="ComicSansMS-Bold" font-weight="bold" font-size="21.0" fill="#DCDDE0" transform="matrix(1.00, 0.00, -0.00, -1.00, 521.5, 515.0)"> </text><text xml:space="preserve" font-family="ComicSansMS-Bold" font-weight="bold" font-size="21.0" fill="#DCDDE0" transform="matrix(1.00, 0.00, -0.00, -1.00, 530.6, 515.0)">t</text><text xml:space="preserve" font-family="ComicSansMS-Bold" font-weight="bold" font-size="21.0" fill="#DCDDE0" transform="matrix(1.00, 0.00, -0.00, -1.00, 540.5, 515.0)">o</text><text xml:space="preserve" font-family="ComicSansMS-Bold" font-weight="bold" font-size="21.0" fill="#DCDDE0" transform="matrix(1.00, 0.00, -0.00, -1.00, 551.6, 515.0)"> </text><text xml:space="preserve" font-family="ComicSansMS-Bold" font-weight="bold" font-size="21.0" fill="#DCDDE0" transform="matrix(1.00, 0.00, -0.00, -1.00, 560.7, 515.0)">t</text><text xml:space="preserve" font-family="ComicSansMS-Bold" font-weight="bold" font-size="21.0" fill="#DCDDE0" transform="matrix(1.00, 0.00, -0.00, -1.00, 570.6, 515.0)">e</text><text xml:space="preserve" font-family="ComicSansMS-Bold" font-weight="bold" font-size="21.0" fill="#DCDDE0" transform="matrix(1.00, 0.00, -0.00, -1.00, 582.3, 515.0)">s</text><text xml:space="preserve" font-family="ComicSansMS-Bold" font-weight="bold" font-size="21.0" fill="#DCDDE0" transform="matrix(1.00, 0.00, -0.00, -1.00, 592.5, 515.0)">t</text><text xml:space="preserve" font-family="ComicSansMS-Bold" font-weight="bold" font-size="21.0" fill="#DCDDE0" transform="matrix(1.00, 0.00, -0.00, -1.00, 602.4, 515.0)"> </text><text xml:space="preserve" font-family="ComicSansMS-Bold" font-weight="bold" font-size="21.0" fill="#DCDDE0" transform="matrix(1.00, 0.00, -0.00, -1.00, 611.5, 515.0)">a</text><text xml:space="preserve" font-family="ComicSansMS-Bold" font-weight="bold" font-size="21.0" fill="#DCDDE0" transform="matrix(1.00, 0.00, -0.00, -1.00, 623.2, 515.0)">n</text><text xml:space="preserve" font-family="ComicSansMS-Bold" font-weight="bold" font-size="21.0" fill="#DCDDE0" transform="matrix(1.00, 0.00, -0.00, -1.00, 634.2, 515.0)">d</text><text xml:space="preserve" font-family="ComicSansMS-Bold" font-weight="bold" font-size="21.0" fill="#DCDDE0" transform="matrix(1.00, 0.00, -0.00, -1.00, 646.5, 515.0)"> </text><text xml:space="preserve" font-family="ComicSansMS-Bold" font-weight="bold" font-size="21.0" fill="#DCDDE0" transform="matrix(1.00, 0.00, -0.00, -1.00, 655.6, 515.0)">d</text><text xml:space="preserve" font-family="ComicSansMS-Bold" font-weight="bold" font-size="21.0" fill="#DCDDE0" transform="matrix(1.00, 0.00, -0.00, -1.00, 668.0, 515.0)">e</text><text xml:space="preserve" font-family="ComicSansMS-Bold" font-weight="bold" font-size="21.0" fill="#DCDDE0" transform="matrix(1.00, 0.00, -0.00, -1.00, 679.7, 515.0)">v</text><text xml:space="preserve" font-family="ComicSansMS-Bold" font-weight="bold" font-size="21.0" fill="#DCDDE0" transform="matrix(1.00, 0.00, -0.00, -1.00, 689.9, 515.0)">e</text><text xml:space="preserve" font-family="ComicSansMS-Bold" font-weight="bold" font-size="21.0" fill="#DCDDE0" transform="matrix(1.00, 0.00, -0.00, -1.00, 701.7, 515.0)">l</text><text xml:space="preserve" font-family="ComicSansMS-Bold" font-weight="bold" font-size="21.0" fill="#DCDDE0" transform="matrix(1.00, 0.00, -0.00, -1.00, 707.4, 515.0)">o</text><text xml:space="preserve" font-family="ComicSansMS-Bold" font-weight="bold" font-size="21.0" fill="#DCDDE0" transform="matrix(1.00, 0.00, -0.00, -1.00, 718.5, 515.0)">p</text><text xml:space="preserve" font-family="ComicSansMS-Bold" font-weight="bold" font-size="21.0" fill="#DCDDE0" transform="matrix(1.00, 0.00, -0.00, -1.00, 729.7, 515.0)"> </text><text xml:space="preserve" font-family="ComicSansMS-Bold" font-weight="bold" font-size="21.0" fill="#DCDDE0" transform="matrix(1.00, 0.00, -0.00, -1.00, 738.8, 515.0)">f</text><text xml:space="preserve" font-family="ComicSansMS-Bold" font-weight="bold" font-size="21.0" fill="#DCDDE0" transform="matrix(1.00, 0.00, -0.00, -1.00, 749.5, 515.0)">e</text><text xml:space="preserve" font-family="ComicSansMS-Bold" font-weight="bold" font-size="21.0" fill="#DCDDE0" transform="matrix(1.00, 0.00, -0.00, -1.00, 761.2, 515.0)">a</text><text xml:space="preserve" font-family="ComicSansMS-Bold" font-weight="bold" font-size="21.0" fill="#DCDDE0" transform="matrix(1.00, 0.00, -0.00, -1.00, 772.9, 515.0)">t</text><text xml:space="preserve" font-family="ComicSansMS-Bold" font-weight="bold" font-size="21.0" fill="#DCDDE0" transform="matrix(1.00, 0.00, -0.00, -1.00, 782.8, 515.0)">u</text><text xml:space="preserve" font-family="ComicSansMS-Bold" font-weight="bold" font-size="21.0" fill="#DCDDE0" transform="matrix(1.00, 0.00, -0.00, -1.00, 793.7, 515.0)">r</text><text xml:space="preserve" font-family="ComicSansMS-Bold" font-weight="bold" font-size="21.0" fill="#DCDDE0" transform="matrix(1.00, 0.00, -0.00, -1.00, 803.8, 515.0)">e</text><text xml:space="preserve" font-family="ComicSansMS-Bold" font-weight="bold" font-size="21.0" fill="#DCDDE0" transform="matrix(1.00, 0.00, -0.00, -1.00, 815.5, 515.0)">.</text><g><clipPath id="clip-1069"><path d="M 592.0 187.4 L 649.7 187.4 L 649.7 245.1 L 592.0 245.1 Z M 592.0 187.4 "></path></clipPath><g clip-path="url(#clip-1069)"><image xlink:href="../../AAA0FCF1-536D-412F-8916-0370750779E4/assets/51A0D71708F85035315E7FD6E0AA3FDF.png" width="58.00" height="58.00" transform="matrix(1.00, 0.00, -0.00, -1.00, 592.0, 245.0)"></image></g></g><g><clipPath id="clip-1070"><path d="M 539.2 138.6 L 689.5 138.6 L 689.5 193.2 L 539.2 193.2 Z M 539.2 138.6 "></path></clipPath><g clip-path="url(#clip-1070)"><text xml:space="preserve" font-family="ComicSansMS-Bold" font-weight="bold" font-size="13.0" fill="#E7A432" transform="matrix(1.00, 0.00, -0.00, -1.00, 591.0, 174.0)">f</text><text xml:space="preserve" font-family="ComicSansMS-Bold" font-weight="bold" font-size="13.0" fill="#E7A432" transform="matrix(1.00, 0.00, -0.00, -1.00, 597.6, 174.0)">e</text><text xml:space="preserve" font-family="ComicSansMS-Bold" font-weight="bold" font-size="13.0" fill="#E7A432" transform="matrix(1.00, 0.00, -0.00, -1.00, 604.9, 174.0)">a</text><text xml:space="preserve" font-family="ComicSansMS-Bold" font-weight="bold" font-size="13.0" fill="#E7A432" transform="matrix(1.00, 0.00, -0.00, -1.00, 612.1, 174.0)">t</text><text xml:space="preserve" font-family="ComicSansMS-Bold" font-weight="bold" font-size="13.0" fill="#E7A432" transform="matrix(1.00, 0.00, -0.00, -1.00, 618.2, 174.0)">u</text><text xml:space="preserve" font-family="ComicSansMS-Bold" font-weight="bold" font-size="13.0" fill="#E7A432" transform="matrix(1.00, 0.00, -0.00, -1.00, 625.0, 174.0)">r</text><text xml:space="preserve" font-family="ComicSansMS-Bold" font-weight="bold" font-size="13.0" fill="#E7A432" transform="matrix(1.00, 0.00, -0.00, -1.00, 631.2, 174.0)">e</text><text xml:space="preserve" font-family="ComicSansMS-Bold" font-weight="bold" font-size="13.0" fill="#E7A432" transform="matrix(1.00, 0.00, -0.00, -1.00, 638.5, 174.0)"> </text><text xml:space="preserve" font-family="ComicSansMS-Bold" font-weight="bold" font-size="18.0" fill="#A6AAA8" transform="matrix(1.00, 0.00, -0.00, -1.00, 569.0, 151.0)">D</text><text xml:space="preserve" font-family="ComicSansMS-Bold" font-weight="bold" font-size="18.0" fill="#A6AAA8" transform="matrix(1.00, 0.00, -0.00, -1.00, 582.0, 151.0)">e</text><text xml:space="preserve" font-family="ComicSansMS-Bold" font-weight="bold" font-size="18.0" fill="#A6AAA8" transform="matrix(1.00, 0.00, -0.00, -1.00, 592.0, 151.0)">v</text><text xml:space="preserve" font-family="ComicSansMS-Bold" font-weight="bold" font-size="18.0" fill="#A6AAA8" transform="matrix(1.00, 0.00, -0.00, -1.00, 600.8, 151.0)"> </text><text xml:space="preserve" font-family="ComicSansMS-Bold" font-weight="bold" font-size="18.0" fill="#A6AAA8" transform="matrix(1.00, 0.00, -0.00, -1.00, 608.6, 151.0)">R</text><text xml:space="preserve" font-family="ComicSansMS-Bold" font-weight="bold" font-size="18.0" fill="#A6AAA8" transform="matrix(1.00, 0.00, -0.00, -1.00, 620.1, 151.0)">e</text><text xml:space="preserve" font-family="ComicSansMS-Bold" font-weight="bold" font-size="18.0" fill="#A6AAA8" transform="matrix(1.00, 0.00, -0.00, -1.00, 630.2, 151.0)">a</text><text xml:space="preserve" font-family="ComicSansMS-Bold" font-weight="bold" font-size="18.0" fill="#A6AAA8" transform="matrix(1.00, 0.00, -0.00, -1.00, 640.2, 151.0)">d</text><text xml:space="preserve" font-family="ComicSansMS-Bold" font-weight="bold" font-size="18.0" fill="#A6AAA8" transform="matrix(1.00, 0.00, -0.00, -1.00, 650.8, 151.0)">y</text></g></g></g></svg>